<?xml version="1.0" standalone="no"?>
<!DOCTYPE svg PUBLIC "-//W3C//DTD SVG 20010904//EN"
 "http://www.w3.org/TR/2001/REC-SVG-20010904/DTD/svg10.dtd">
<svg version="1.0" xmlns="http://www.w3.org/2000/svg"
 width="256.000000pt" height="256.000000pt" viewBox="0 0 256.000000 256.000000"
 preserveAspectRatio="xMidYMid meet">

<g transform="translate(0.000000,256.000000) scale(0.100000,-0.100000)"
fill="#000000" stroke="none">
<path d="M765 2072 c-127 -44 -222 -128 -282 -249 l-38 -77 -3 -440 c-3 -388
-1 -449 14 -504 42 -160 191 -297 360 -332 34 -7 196 -10 466 -8 394 3 416 4
470 24 132 51 241 160 292 292 20 54 21 76 24 470 2 270 -1 432 -8 466 -34
165 -162 308 -321 357 -56 17 -96 19 -492 19 -383 -1 -438 -3 -482 -18z m967
-134 c76 -35 142 -98 175 -167 l28 -56 0 -435 0 -435 -26 -56 c-34 -72 -96
-134 -168 -168 l-56 -26 -435 0 -435 0 -56 28 c-69 33 -132 99 -167 175 l-27
57 0 420 c0 416 0 420 23 478 26 63 97 143 153 172 79 42 108 44 529 42 l405
-2 57 -27z"/>
<path d="M1706 1818 c-9 -12 -16 -29 -16 -38 0 -9 7 -26 16 -38 23 -34 83 -27
104 11 13 24 13 30 0 55 -21 37 -81 44 -104 10z"/>
<path d="M1160 1710 c-78 -17 -163 -66 -224 -129 -128 -135 -159 -318 -82
-486 35 -76 72 -122 140 -172 168 -124 406 -108 559 36 237 224 156 616 -151
731 -65 25 -175 34 -242 20z m200 -139 c161 -61 241 -234 185 -401 -25 -76
-109 -160 -185 -185 -86 -29 -167 -24 -246 15 -255 125 -220 496 56 581 47 14
139 9 190 -10z"/>
</g>
</svg>
