<?xml version="1.0" standalone="no"?>
<!DOCTYPE svg PUBLIC "-//W3C//DTD SVG 20010904//EN"
 "http://www.w3.org/TR/2001/REC-SVG-20010904/DTD/svg10.dtd">
<svg version="1.0" xmlns="http://www.w3.org/2000/svg"
 width="155.000000pt" height="38.000000pt" viewBox="0 0 155.000000 38.000000"
 preserveAspectRatio="xMidYMid meet">

<g transform="translate(0.000000,38.000000) scale(0.100000,-0.100000)"
fill="#000000" stroke="none">
<path d="M230 186 c0 -70 3 -86 15 -86 12 0 15 13 16 58 l0 57 22 -57 c22 -61
42 -73 56 -35 5 12 16 38 25 57 l16 35 -3 -58 c-3 -50 -1 -57 15 -57 16 0 18
9 18 85 0 82 -1 85 -23 85 -18 0 -26 -9 -36 -37 -35 -96 -30 -94 -55 -28 -17
45 -28 61 -44 63 -21 3 -22 0 -22 -82z"/>
<path d="M440 254 c0 -9 7 -14 17 -12 25 5 28 28 4 28 -12 0 -21 -6 -21 -16z"/>
<path d="M570 185 l0 -85 41 0 c22 0 49 5 60 10 21 12 26 49 8 67 -8 8 -7 16
2 31 20 33 -12 62 -68 62 l-43 0 0 -85z m85 35 c0 -9 -11 -16 -27 -18 -23 -3
-28 1 -28 18 0 17 5 21 28 18 16 -2 27 -9 27 -18z m3 -69 c-2 -9 -15 -17 -31
-19 -21 -3 -27 1 -27 17 0 20 24 31 48 23 7 -3 12 -12 10 -21z"/>
<path d="M1090 243 c0 -26 -3 -28 -37 -28 -30 0 -40 -5 -52 -27 -14 -25 -14
-31 -1 -55 14 -25 22 -28 68 -30 l52 -1 0 84 c0 68 -3 84 -15 84 -10 0 -15
-10 -15 -27z m-7 -64 c15 -24 1 -49 -27 -49 -29 0 -44 33 -25 56 15 18 38 15
52 -7z"/>
<path d="M1221 254 c-18 -13 -20 -18 -10 -25 7 -4 19 -3 26 3 15 12 43 4 43
-13 0 -6 -9 -13 -20 -16 -11 -3 -20 -11 -20 -18 0 -7 9 -15 20 -18 11 -3 20
-12 20 -21 0 -19 -31 -21 -48 -4 -8 8 -15 9 -23 1 -15 -15 16 -43 50 -43 15 0
32 5 39 12 14 14 16 54 2 63 -6 3 -5 15 3 32 10 22 8 28 -12 44 -28 23 -40 24
-70 3z"/>
<path d="M440 160 c0 -47 3 -60 15 -60 12 0 15 13 15 60 0 47 -3 60 -15 60
-12 0 -15 -13 -15 -60z"/>
<path d="M727 214 c-13 -14 5 -23 33 -17 19 3 30 1 30 -6 0 -6 -11 -11 -23
-11 -35 0 -62 -33 -48 -59 9 -16 21 -20 56 -19 l45 1 0 46 c0 26 -5 52 -12 59
-13 13 -70 17 -81 6z m59 -65 c9 -16 -12 -33 -31 -25 -14 5 -15 9 -5 21 15 18
26 19 36 4z"/>
<path d="M850 158 c0 -45 3 -58 15 -58 10 0 15 10 15 31 0 37 16 69 34 69 17
0 26 -22 26 -66 0 -24 5 -34 15 -34 11 0 15 11 15 41 0 65 -12 78 -70 77 l-50
-1 0 -59z"/>
</g>
</svg>
