<?xml version="1.0" standalone="no"?>
<!DOCTYPE svg PUBLIC "-//W3C//DTD SVG 20010904//EN"
 "http://www.w3.org/TR/2001/REC-SVG-20010904/DTD/svg10.dtd">
<svg version="1.0" xmlns="http://www.w3.org/2000/svg"
 width="478.000000pt" height="262.000000pt" viewBox="0 0 478.000000 262.000000"
 preserveAspectRatio="xMidYMid meet">

<g transform="translate(0.000000,262.000000) scale(0.100000,-0.100000)"
fill="#000000" stroke="none">
<path d="M2442 2614 c2 -7 -37 -54 -87 -105 -49 -50 -85 -90 -79 -88 5 2 58
21 117 43 59 21 107 43 107 48 0 5 5 6 12 2 7 -4 8 -3 4 5 -4 6 -12 8 -18 5
-8 -5 -9 -1 -5 10 4 10 3 15 -3 11 -9 -6 -14 8 -11 28 1 5 -3 6 -9 2 -5 -3
-11 -1 -11 4 -1 6 -2 15 -3 20 0 5 -5 13 -9 18 -5 4 -7 3 -5 -3z"/>
<path d="M2385 2445 c-60 -24 -114 -46 -120 -48 -5 -2 17 -35 49 -73 l59 -70
66 22 c36 12 77 20 91 18 14 -3 42 1 63 8 l37 13 -57 88 c-32 47 -62 86 -68
86 -5 -1 -59 -21 -120 -44z"/>
<path d="M2417 2174 c-53 -60 -95 -110 -93 -111 1 -2 16 1 32 6 16 5 74 23
129 40 83 25 101 34 101 50 0 11 -3 18 -7 15 -4 -2 -12 9 -18 24 -6 15 -20 40
-30 55 l-18 28 -96 -107z"/>
<path d="M2356 2234 c-54 -18 -101 -35 -103 -38 -6 -6 28 -125 37 -131 5 -3
37 28 71 68 35 39 69 77 74 82 6 6 19 20 29 33 25 29 14 28 -108 -14z"/>
<path d="M2151 2099 c-45 -49 -88 -86 -93 -82 -7 4 -8 1 -3 -7 5 -8 1 -19 -11
-28 -17 -13 -17 -14 -1 -9 9 4 66 21 125 39 59 17 108 32 109 33 3 2 -35 136
-39 141 -2 1 -41 -38 -87 -87z"/>
<path d="M3660 1909 l0 -221 -40 35 c-74 67 -113 82 -225 82 -108 0 -154 -15
-239 -73 -88 -60 -156 -193 -171 -336 l-7 -59 -19 29 c-25 38 -24 24 1 -21 22
-40 25 -49 10 -40 -9 5 -182 -15 -263 -31 l-28 -6 45 -29 44 -30 106 13 c95
11 106 14 107 33 0 11 8 -7 18 -41 36 -127 109 -217 219 -271 73 -36 80 -38
176 -38 116 0 159 16 234 88 l42 41 0 -57 0 -57 105 0 105 0 0 605 0 605 -110
0 -110 0 0 -221z m-154 -314 c61 -18 127 -82 149 -144 20 -57 19 -140 -2 -192
l-16 -41 -31 35 c-93 107 -270 101 -348 -12 l-16 -23 -17 31 c-55 108 -5 274
99 328 69 36 110 40 182 18z"/>
<path d="M2500 2095 c-41 -13 -101 -31 -133 -40 -32 -9 -57 -20 -55 -24 2 -5
31 -38 65 -75 l61 -67 134 36 c73 19 137 37 141 38 13 4 -107 156 -123 156 -8
0 -49 -11 -90 -24z"/>
<path d="M1244 1967 c-87 -63 -162 -120 -167 -128 -12 -19 88 -173 106 -163 7
4 42 29 79 56 37 26 70 48 73 48 3 0 5 -61 5 -134 l0 -135 -81 -58 c-45 -32
-84 -57 -88 -56 -3 1 -29 35 -57 77 l-52 75 -1 -169 c-1 -118 2 -176 11 -192
28 -53 93 -148 101 -148 5 0 28 15 51 33 24 17 54 39 66 47 12 8 29 21 36 28
12 11 14 -5 14 -108 l0 -121 113 3 112 3 3 578 2 577 -84 0 -84 0 -158 -113z"/>
<path d="M2153 1992 c-68 -20 -125 -43 -128 -50 -3 -7 0 -10 6 -7 13 9 41 -14
32 -28 -3 -5 -1 -7 4 -4 11 7 89 -50 86 -62 -4 -16 59 -10 157 15 58 15 107
29 109 31 6 4 -131 143 -139 142 -3 -1 -60 -17 -127 -37z"/>
<path d="M2582 1915 c-68 -18 -125 -35 -127 -37 -3 -2 15 -23 38 -46 40 -39
45 -41 77 -32 26 8 37 6 50 -5 15 -14 27 -13 114 7 l97 23 -26 34 c-19 27 -22
37 -12 44 8 6 7 7 -5 3 -11 -3 -24 4 -37 19 -10 14 -25 25 -32 24 -8 -1 -69
-16 -137 -34z"/>
<path d="M2310 1843 c-52 -13 -97 -26 -99 -29 -7 -7 61 -63 85 -70 17 -4 201
31 213 42 2 2 -11 21 -29 44 -37 47 -41 47 -170 13z"/>
<path d="M4285 1796 c-136 -33 -215 -123 -215 -245 0 -131 88 -216 265 -257
129 -29 198 -57 214 -85 52 -93 -110 -155 -238 -90 -23 12 -51 37 -64 56 -12
19 -25 35 -28 35 -3 0 -32 -11 -65 -24 l-59 -24 -12 21 c-12 22 -12 22 -13 -4
0 -16 -9 -32 -22 -41 l-22 -15 27 -45 c36 -62 107 -123 176 -150 47 -18 76
-22 176 -23 102 0 129 3 182 23 119 46 194 141 192 247 -1 64 -16 104 -58 155
-44 54 -103 83 -245 119 -167 44 -206 69 -192 127 19 75 213 74 263 -2 8 -13
21 -24 28 -24 23 0 175 75 175 86 0 22 -84 106 -129 128 -89 45 -229 58 -336
32z"/>
<path d="M26 1768 c3 -13 85 -209 182 -435 l175 -413 107 0 c107 0 107 0 120
28 15 34 268 624 320 750 l39 92 -122 0 -123 0 -64 -162 c-35 -90 -71 -181
-80 -203 -9 -22 -32 -77 -50 -122 -18 -46 -36 -83 -41 -83 -5 0 -9 4 -9 9 0 6
-38 106 -84 223 -46 117 -94 241 -107 275 l-24 63 -123 0 c-123 0 -123 0 -116
-22z"/>
<path d="M2489 1642 c-64 -81 -115 -148 -114 -149 4 -7 325 60 325 67 0 5 -14
39 -31 77 -18 37 -39 87 -48 110 l-16 41 -116 -146z"/>
<path d="M2414 1748 l-122 -31 28 -104 c16 -57 30 -106 32 -108 3 -4 59 62
167 198 72 91 75 90 -105 45z"/>
<path d="M2721 1643 c29 -45 55 -81 57 -79 2 2 -8 26 -22 54 -14 27 -23 52
-21 56 3 3 2 4 -2 1 -4 -3 -20 7 -36 22 -23 22 -17 10 24 -54z"/>
<path d="M2165 1689 c-44 -11 -97 -24 -119 -30 l-38 -10 7 -72 c3 -40 9 -86
13 -104 l7 -31 65 76 c131 153 162 192 153 191 -4 0 -44 -9 -88 -20z"/>
<path d="M2163 1568 c-61 -73 -110 -134 -108 -136 3 -3 267 48 276 54 7 4 -42
214 -51 214 -3 0 -56 -60 -117 -132z"/>
<path d="M2701 1608 c17 -35 45 -74 62 -88 17 -14 27 -18 22 -10 -27 45 -107
160 -110 160 -3 0 9 -28 26 -62z"/>
<path d="M2750 1657 c0 -2 15 -16 33 -33 l32 -29 -29 33 c-28 30 -36 37 -36
29z"/>
<path d="M1910 1543 c-47 -53 -99 -113 -117 -133 l-32 -37 37 7 c20 4 79 15
130 25 50 9 92 20 91 24 0 3 -6 52 -12 108 l-12 102 -85 -96z"/>
<path d="M2817 1559 c10 -16 28 -42 41 -57 l23 -27 -18 35 c-10 19 -22 38 -26
41 -4 3 -7 12 -5 19 2 7 -5 14 -15 15 -16 3 -16 2 0 -26z"/>
<path d="M2553 1505 c-67 -12 -134 -27 -149 -32 -27 -9 -26 -10 45 -56 53 -33
80 -45 100 -42 213 36 276 48 279 50 1 1 -21 25 -50 54 -61 59 -56 58 -225 26z"/>
<path d="M2848 1460 c10 -24 28 -50 40 -58 18 -12 15 -4 -14 39 -47 70 -48 72
-26 19z"/>
<path d="M21 1313 c-1 -100 3 -184 8 -187 4 -3 11 -19 14 -36 4 -16 16 -51 27
-76 12 -25 19 -48 16 -51 -3 -4 0 -11 8 -17 16 -13 129 -286 122 -294 -3 -3 1
-10 10 -17 9 -6 17 -23 17 -37 1 -14 5 -24 9 -21 5 2 8 0 8 -6 0 -5 14 -40 31
-78 35 -77 50 -113 69 -160 l12 -33 117 0 117 0 23 55 c13 30 27 55 33 55 5 0
7 4 3 10 -3 5 -1 17 4 27 10 18 36 78 61 140 7 18 16 30 21 27 5 -3 7 1 4 8
-6 18 59 170 70 161 4 -4 5 -3 1 4 -4 7 2 32 12 55 11 24 30 66 42 95 13 29
28 49 33 46 6 -3 7 -1 3 5 -3 6 5 41 19 78 23 62 25 78 24 243 0 171 0 175
-16 136 -16 -41 -271 -638 -303 -710 -10 -22 -21 -50 -25 -63 -6 -22 -9 -23
-123 -20 l-117 3 -51 120 c-29 66 -57 131 -62 145 -6 14 -59 140 -117 280 -59
140 -111 264 -115 275 -5 12 -9 -55 -9 -162z"/>
<path d="M2183 1436 c-62 -12 -115 -25 -118 -27 -2 -3 33 -23 78 -45 l82 -41
128 21 c70 12 127 26 126 31 -4 20 -124 85 -154 84 -16 0 -81 -11 -142 -23z"/>
<path d="M2815 1403 c-16 -2 -82 -13 -145 -24 -63 -11 -176 -29 -250 -40 -186
-27 -185 -27 -121 -56 30 -13 51 -26 48 -29 -3 -3 -32 8 -64 25 l-58 31 -114
-19 c-62 -11 -116 -22 -118 -25 -3 -3 6 -8 21 -12 14 -3 24 -10 21 -14 -3 -4
1 -7 8 -7 6 1 31 -5 53 -12 36 -12 56 -11 145 3 57 9 120 18 139 20 70 5 225
29 239 36 10 5 0 15 -33 35 -26 15 -45 30 -42 32 3 3 29 -11 59 -30 l54 -36
139 20 c76 11 140 21 141 23 4 4 -79 86 -86 85 -3 -1 -19 -4 -36 -6z"/>
<path d="M1872 1378 l-103 -20 48 -22 c127 -59 131 -60 245 -41 56 9 110 19
118 22 24 8 -129 82 -170 82 -19 -1 -81 -10 -138 -21z"/>
<path d="M2533 1252 c-62 -8 -113 -18 -113 -22 0 -3 20 -17 45 -29 44 -22 46
-22 150 -7 58 9 108 16 112 16 12 0 -22 32 -48 46 -16 8 -29 13 -31 13 -2 -1
-54 -8 -115 -17z"/>
<path d="M2265 1214 c-49 -8 -94 -16 -99 -17 -5 -2 17 -13 50 -25 57 -22 63
-22 164 -9 l105 13 -52 27 c-29 15 -58 26 -65 26 -7 -1 -53 -8 -103 -15z"/>
<path d="M2755 1190 c-3 -5 -1 -10 4 -10 6 0 11 5 11 10 0 6 -2 10 -4 10 -3 0
-8 -4 -11 -10z"/>
<path d="M2498 1161 c-70 -9 -130 -20 -134 -23 -3 -4 11 -79 32 -167 30 -130
40 -158 51 -150 11 10 84 112 235 332 l19 27 -38 -1 c-21 -1 -95 -9 -165 -18z"/>
<path d="M2698 1138 c-13 -18 -49 -69 -80 -113 -146 -212 -150 -218 -136 -227
14 -9 331 0 360 11 15 5 11 22 -33 141 -28 74 -58 154 -68 178 l-18 43 -25
-33z"/>
<path d="M2770 1156 c0 -6 169 -266 182 -281 11 -12 3 9 -46 125 -20 46 -36
89 -36 95 0 5 -23 23 -50 38 -28 16 -50 26 -50 23z"/>
<path d="M2200 1124 c-63 -7 -129 -16 -146 -19 -35 -6 -34 14 -10 -218 l11
-109 126 169 c118 158 145 195 137 192 -2 -1 -55 -7 -118 -15z"/>
<path d="M2224 972 c-61 -81 -120 -161 -131 -177 l-21 -31 71 3 c237 10 275
14 271 31 -49 228 -67 308 -73 314 -4 4 -56 -59 -117 -140z"/>
<path d="M1858 1081 l-128 -14 0 -151 c0 -82 4 -146 8 -140 41 46 253 316 250
318 -1 1 -60 -5 -130 -13z"/>
<path d="M2913 1082 c-9 -6 -3 -23 24 -62 52 -79 57 -82 48 -30 -4 25 -7 50
-8 57 0 6 -5 9 -11 7 -7 -3 -20 3 -31 12 -11 8 -14 12 -6 8 9 -5 12 -3 7 4 -8
14 -8 14 -23 4z"/>
<path d="M1879 925 c-68 -85 -126 -160 -128 -167 -3 -8 34 -9 140 -4 78 3 144
7 144 9 3 4 -24 310 -28 313 -2 2 -59 -66 -128 -151z"/>
<path d="M2790 1065 c0 -2 23 -63 51 -135 51 -128 52 -130 90 -142 22 -6 42
-8 45 -5 4 3 -35 69 -86 146 -84 129 -100 150 -100 136z"/>
<path d="M1643 963 l-73 -85 0 -69 0 -70 68 3 67 3 5 150 c3 83 5 151 5 152 0
1 -33 -37 -72 -84z"/>
<path d="M2930 986 c0 -2 13 -32 29 -68 28 -60 30 -73 30 -194 1 -156 1 -156
40 -227 56 -104 139 -175 245 -210 54 -19 195 -23 224 -7 9 5 33 16 53 25 20
9 52 31 72 49 l36 33 7 -44 6 -43 104 0 104 0 0 175 0 175 -104 0 c-113 0
-115 1 -116 69 0 22 -2 22 -41 -14 -65 -58 -120 -78 -219 -79 -128 -1 -224 41
-308 133 -35 39 -92 144 -92 170 0 14 -2 14 -9 2 -8 -12 -14 -7 -31 22 -19 33
-30 45 -30 33z"/>
<path d="M4030 661 c0 -184 5 -208 57 -263 86 -93 176 -128 328 -128 174 0
321 82 354 196 4 16 7 90 5 164 -5 187 -5 187 -11 170 -23 -59 -107 -124 -203
-156 -72 -25 -234 -25 -303 0 -100 34 -165 83 -198 148 -11 21 -22 38 -24 38
-3 0 -5 -76 -5 -169z"/>
<path d="M1938 663 c6 -2 18 -2 25 0 6 3 1 5 -13 5 -14 0 -19 -2 -12 -5z"/>
<path d="M2058 653 c7 -3 16 -2 19 1 4 3 -2 6 -13 5 -11 0 -14 -3 -6 -6z"/>
<path d="M2408 653 c7 -3 16 -2 19 1 4 3 -2 6 -13 5 -11 0 -14 -3 -6 -6z"/>
<path d="M1350 470 l0 -180 104 0 103 0 7 -82 c4 -45 8 -83 9 -84 1 -1 25 -4
54 -6 l52 -5 5 51 c8 74 13 366 6 366 -3 -1 -31 -35 -64 -76 -32 -41 -61 -73
-64 -70 -5 6 7 25 74 111 l47 60 -62 5 c-34 3 -61 8 -61 13 0 4 0 23 0 42 l0
35 -105 0 -105 0 0 -180z"/>
<path d="M2648 633 c6 -2 18 -2 25 0 6 3 1 5 -13 5 -14 0 -19 -2 -12 -5z"/>
<path d="M2653 572 c-189 -2 -203 -4 -203 -21 0 -19 99 -474 105 -479 1 -2 54
81 117 185 138 227 190 315 186 317 -2 0 -94 0 -205 -2z"/>
<path d="M2920 574 c0 -15 51 -94 60 -94 12 0 13 60 2 76 -8 13 -62 28 -62 18z"/>
<path d="M2055 527 c8 -65 35 -385 35 -409 0 -24 -16 -46 187 255 l134 198
-180 -1 -180 -2 4 -41z"/>
<path d="M1710 353 c1 -165 3 -205 13 -193 11 14 82 109 212 285 29 39 57 80
64 93 l12 22 -151 0 -150 0 0 -207z"/>
<path d="M2408 523 c-35 -41 -281 -417 -282 -432 -1 -12 10 -17 44 -19 25 -1
109 -9 188 -17 78 -8 147 -15 152 -15 6 0 10 11 10 25 0 26 -87 465 -93 472
-2 2 -11 -5 -19 -14z"/>
<path d="M1893 353 c-168 -231 -176 -243 -166 -243 4 0 80 -7 168 -15 88 -8
164 -15 169 -15 4 0 6 28 3 63 -3 34 -12 135 -18 225 -7 89 -16 162 -20 162
-4 0 -65 -80 -136 -177z"/>
<path d="M2728 300 c-75 -127 -138 -238 -140 -248 -3 -14 8 -18 72 -23 293
-25 389 -31 403 -26 14 5 14 12 -5 64 -11 32 -46 132 -78 223 -73 210 -86 240
-102 240 -7 0 -75 -104 -150 -230z"/>
<path d="M2950 458 c0 -3 7 -21 15 -39 10 -24 14 -28 14 -14 0 11 -6 29 -14
39 -8 11 -15 17 -15 14z"/>
<path d="M3083 88 c17 -43 35 -78 42 -78 7 0 21 8 31 17 18 18 17 20 -42 78
l-60 60 29 -77z"/>
</g>
</svg>
