<?xml version="1.0" encoding="utf-8"?>
<!-- Generator: Adobe Illustrator 26.0.2, SVG Export Plug-In . SVG Version: 6.00 Build 0)  -->
<svg version="1.1" id="Слой_1" xmlns="http://www.w3.org/2000/svg" xmlns:xlink="http://www.w3.org/1999/xlink" x="0px" y="0px"
	 viewBox="0 0 40 40" style="enable-background:new 0 0 40 40;" xml:space="preserve">
<style type="text/css">
	.st0{fill:#FFFFFF;}
</style>
<path class="st0" d="M7.3,28.7l0.6-1.4L7.3,28.7z M2.3,23.7l1.4-0.6L2.3,23.7z M38,23.7l-1.4-0.6L38,23.7z M33,28.7l-0.6-1.4
	L33,28.7z M33,2.3l-0.6,1.4L33,2.3z M38,7.3l-1.4,0.6L38,7.3z M7.3,2.3l0.6,1.4L7.3,2.3z M2.3,7.3l1.4,0.6L2.3,7.3z M1.6,10.9
	l-1.5-0.1L1.6,10.9z M29.5,15.5c-0.9,0-1.6,0.7-1.6,1.5c0,0.9,0.7,1.6,1.6,1.6V15.5z M32.5,18.6c0.9,0,1.5-0.7,1.5-1.6
	c0-0.9-0.7-1.5-1.5-1.5V18.6z M15.5,3.1h9.3V0h-9.3V3.1z M24.8,27.9h-9.3V31h9.3V27.9z M15.5,27.9c-2.2,0-3.8,0-5-0.1
	c-1.2-0.1-2-0.2-2.6-0.5l-1.2,2.9c1.1,0.4,2.2,0.6,3.6,0.7c1.4,0.1,3,0.1,5.2,0.1V27.9z M0,15.5c0,2.1,0,3.8,0.1,5.2
	c0.1,1.4,0.3,2.5,0.7,3.6l2.9-1.2c-0.3-0.6-0.4-1.4-0.5-2.6c-0.1-1.2-0.1-2.8-0.1-5H0z M7.9,27.3C6,26.5,4.5,25,3.7,23.1l-2.9,1.2
	C1.9,27,4,29.1,6.7,30.2L7.9,27.3z M37.2,15.5c0,2.2,0,3.8-0.1,5c-0.1,1.2-0.2,2-0.5,2.6l2.9,1.2c0.4-1.1,0.6-2.2,0.7-3.6
	c0.1-1.4,0.1-3,0.1-5.2H37.2z M24.8,31c2.1,0,3.8,0,5.2-0.1c1.4-0.1,2.5-0.3,3.6-0.7l-1.2-2.9c-0.6,0.3-1.4,0.4-2.6,0.5
	c-1.2,0.1-2.8,0.1-5,0.1V31z M36.6,23.1c-0.8,1.9-2.3,3.4-4.2,4.2l1.2,2.9c2.7-1.1,4.8-3.2,5.9-5.9L36.6,23.1z M24.8,3.1
	c2.2,0,3.8,0,5,0.1c1.2,0.1,2,0.2,2.6,0.5l1.2-2.9c-1.1-0.4-2.2-0.6-3.6-0.7C28.6,0,26.9,0,24.8,0V3.1z M32.4,3.7
	c1.9,0.8,3.4,2.3,4.2,4.2l2.9-1.2c-1.1-2.7-3.2-4.8-5.9-5.9L32.4,3.7z M15.5,0c-2.1,0-3.8,0-5.2,0.1C8.9,0.2,7.8,0.4,6.7,0.8
	l1.2,2.9c0.6-0.3,1.4-0.4,2.6-0.5c1.2-0.1,2.8-0.1,5-0.1V0z M6.7,0.8C4,1.9,1.9,4,0.8,6.7l2.9,1.2C4.5,6,6,4.5,7.9,3.7L6.7,0.8z
	 M3.1,15.5c0-1.9,0-3.4,0.1-4.6l-3.1-0.2C0,12,0,13.6,0,15.5H3.1z M3.2,10.9c0.1-1.5,0.2-2.3,0.5-3L0.8,6.7
	c-0.5,1.2-0.7,2.5-0.8,4.1L3.2,10.9z M40.3,15.5c0-1.9,0-3.5-0.1-4.7l-3.1,0.2c0.1,1.2,0.1,2.6,0.1,4.6H40.3z M40.2,10.8
	c-0.1-1.6-0.3-2.9-0.8-4.1l-2.9,1.2c0.3,0.7,0.5,1.6,0.5,3L40.2,10.8z M1.6,12.4h37.1V9.3H1.6V12.4z M29.5,18.6h3.1v-3.1h-3.1V18.6z
	"/>
</svg>
