<?xml version="1.0" encoding="utf-8"?>
<!-- Generator: Adobe Illustrator 26.0.2, SVG Export Plug-In . SVG Version: 6.00 Build 0)  -->
<svg version="1.1" id="Слой_1" xmlns="http://www.w3.org/2000/svg" xmlns:xlink="http://www.w3.org/1999/xlink" x="0px" y="0px"
	 viewBox="0 0 26 26" style="enable-background:new 0 0 26 26;" xml:space="preserve">
<style type="text/css">
	.st0{fill:none;stroke:#FFFFFF;stroke-width:2;}
</style>
<path class="st0" d="M1.7,9C1.2,10.3,1,11.6,1,13c0,6.6,5.4,12,12,12c6.6,0,12-5.4,12-12c0-1.4-0.2-2.7-0.7-4 M1.7,9
	C3.3,4.3,7.8,1,13,1c5.2,0,9.7,3.3,11.3,8 M1.7,9h22.6 M1.7,17h22.6 M14,1c0,0,4,5,4,12s-4,12-4,12 M12,1c0,0-4,5-4,12s4,12,4,12"/>
</svg>
