<?xml version="1.0" encoding="utf-8"?>
<!-- Generator: Adobe Illustrator 24.3.0, SVG Export Plug-In . SVG Version: 6.00 Build 0)  -->
<svg version="1.1"
	 id="Capa_1" xmlns:cc="http://creativecommons.org/ns#" xmlns:dc="http://purl.org/dc/elements/1.1/" xmlns:inkscape="http://www.inkscape.org/namespaces/inkscape" xmlns:rdf="http://www.w3.org/1999/02/22-rdf-syntax-ns#" xmlns:sodipodi="http://sodipodi.sourceforge.net/DTD/sodipodi-0.dtd" xmlns:svg="http://www.w3.org/2000/svg"
	 xmlns="http://www.w3.org/2000/svg" xmlns:xlink="http://www.w3.org/1999/xlink" x="0px" y="0px" viewBox="0 0 186.8 186.8"
	 style="enable-background:new 0 0 186.8 186.8;" xml:space="preserve">
<style type="text/css">
	.st0{fill:url(#path2957_1_);}
	.st1{fill:url(#path2959_1_);}
	.st2{fill:url(#path2961_1_);}
	.st3{fill:url(#path2963_1_);}
</style>
<sodipodi:namedview  bordercolor="#666666" borderopacity="1" gridtolerance="10" guidetolerance="10" id="namedview2998" inkscape:current-layer="Capa_1" inkscape:cx="93.422501" inkscape:cy="93.422501" inkscape:pageopacity="0" inkscape:pageshadow="2" inkscape:window-height="705" inkscape:window-maximized="1" inkscape:window-width="1366" inkscape:window-x="-8" inkscape:window-y="173" inkscape:zoom="2.7607074" objecttolerance="10" pagecolor="#ffffff" showgrid="false">
	</sodipodi:namedview>
<g id="g2965">
	<linearGradient id="path2957_1_" gradientUnits="userSpaceOnUse" x1="262.6312" y1="41.8255" x2="-199.3688" y2="261.8255">
		<stop  offset="1" style="stop-color:#FFFFFF"/>
		<stop  offset="1" style="stop-color:#000000"/>
	</linearGradient>
	<path id="path2957" class="st0" d="M128.9,121c-31.1-14.4-74.6-8-76.5-7.7c-4.1,0.6-6.9,4.4-6.3,8.5s4.4,6.9,8.5,6.3
		c0.4-0.1,40.9-6,67.9,6.5c1,0.5,2.1,0.7,3.1,0.7c2.8,0,5.5-1.6,6.8-4.4C134.3,127.2,132.6,122.7,128.9,121z"/>
	<linearGradient id="path2959_1_" gradientUnits="userSpaceOnUse" x1="252.5941" y1="20.7475" x2="-209.4059" y2="240.7475">
		<stop  offset="1" style="stop-color:#FFFFFF"/>
		<stop  offset="1" style="stop-color:#000000"/>
	</linearGradient>
	<path id="path2959" class="st1" d="M137.6,94c-35.3-16.3-84.8-9.1-86.9-8.8c-4.1,0.6-6.9,4.4-6.3,8.5c0.6,4.1,4.4,6.9,8.5,6.3
		c0.5-0.1,47.2-6.9,78.4,7.6c1,0.5,2.1,0.7,3.1,0.7c2.8,0,5.5-1.6,6.8-4.4C143,100.1,141.4,95.7,137.6,94z"/>
	<linearGradient id="path2961_1_" gradientUnits="userSpaceOnUse" x1="241.7027" y1="-2.1243" x2="-220.2973" y2="217.8757">
		<stop  offset="1" style="stop-color:#FFFFFF"/>
		<stop  offset="1" style="stop-color:#000000"/>
	</linearGradient>
	<path id="path2961" class="st2" d="M143.5,65.7c-39-18-93.8-10-96.1-9.7c-4.1,0.6-6.9,4.4-6.3,8.5s4.4,6.9,8.5,6.3
		c0.5-0.1,52.7-7.7,87.6,8.5c1,0.5,2.1,0.7,3.1,0.7c2.8,0,5.5-1.6,6.8-4.4C148.9,71.9,147.2,67.5,143.5,65.7z"/>
	<linearGradient id="path2963_1_" gradientUnits="userSpaceOnUse" x1="251.3825" y1="18.2033" x2="-210.6175" y2="238.2033">
		<stop  offset="0" style="stop-color:#000000"/>
		<stop  offset="0" style="stop-color:#FFFFFF"/>
	</linearGradient>
	<path id="path2963" class="st3" d="M93.4,0C41.9,0,0,41.9,0,93.4c0,51.5,41.9,93.4,93.4,93.4c51.5,0,93.4-41.9,93.4-93.4
		C186.8,41.9,144.9,0,93.4,0z M93.4,171.8c-43.2,0-78.4-35.2-78.4-78.4C15,50.2,50.2,15,93.4,15c43.2,0,78.4,35.2,78.4,78.4
		C171.8,136.7,136.7,171.8,93.4,171.8z"/>
</g>
<g id="g2967">
</g>
<g id="g2969">
</g>
<g id="g2971">
</g>
<g id="g2973">
</g>
<g id="g2975">
</g>
<g id="g2977">
</g>
<g id="g2979">
</g>
<g id="g2981">
</g>
<g id="g2983">
</g>
<g id="g2985">
</g>
<g id="g2987">
</g>
<g id="g2989">
</g>
<g id="g2991">
</g>
<g id="g2993">
</g>
<g id="g2995">
</g>
</svg>
