<?xml version="1.0" encoding="UTF-8" standalone="no"?>
<svg
   xmlns:osb="http://www.openswatchbook.org/uri/2009/osb"
   xmlns:dc="http://purl.org/dc/elements/1.1/"
   xmlns:cc="http://creativecommons.org/ns#"
   xmlns:rdf="http://www.w3.org/1999/02/22-rdf-syntax-ns#"
   xmlns:svg="http://www.w3.org/2000/svg"
   xmlns="http://www.w3.org/2000/svg"
   xmlns:xlink="http://www.w3.org/1999/xlink"
   xmlns:sodipodi="http://sodipodi.sourceforge.net/DTD/sodipodi-0.dtd"
   xmlns:inkscape="http://www.inkscape.org/namespaces/inkscape"
   version="1.1"
   id="Capa_1"
   x="0px"
   y="0px"
   viewBox="0 0 186.845 186.845"
   style="enable-background:new 0 0 186.845 186.845;"
   xml:space="preserve"
   sodipodi:docname="Ñspotify.svg"
   inkscape:version="1.0.1 (3bc2e813f5, 2020-09-07)"><metadata
   id="metadata1041"><rdf:RDF><cc:Work
       rdf:about=""><dc:format>image/svg+xml</dc:format><dc:type
         rdf:resource="http://purl.org/dc/dcmitype/StillImage" /><dc:title></dc:title></cc:Work></rdf:RDF></metadata><defs
   id="defs1039"><linearGradient
     id="linearGradient4402"
     osb:paint="solid"><stop
       style="stop-color:#19c054;stop-opacity:1;"
       offset="0"
       id="stop4400" /></linearGradient><linearGradient
     id="linearGradient4382"
     osb:paint="solid"><stop
       style="stop-color:#28c054;stop-opacity:1;"
       offset="0"
       id="stop4380" /></linearGradient><linearGradient
     inkscape:collect="always"
     xlink:href="#linearGradient4382"
     id="linearGradient4406"
     gradientUnits="userSpaceOnUse"
     x1="0"
     y1="93.422501"
     x2="186.845"
     y2="93.422501" /></defs><sodipodi:namedview
   pagecolor="#ffffff"
   bordercolor="#666666"
   borderopacity="1"
   objecttolerance="10"
   gridtolerance="10"
   guidetolerance="10"
   inkscape:pageopacity="0"
   inkscape:pageshadow="2"
   inkscape:window-width="1366"
   inkscape:window-height="705"
   id="namedview1037"
   showgrid="false"
   inkscape:zoom="2.879392"
   inkscape:cx="64.967329"
   inkscape:cy="93.422501"
   inkscape:window-x="-8"
   inkscape:window-y="173"
   inkscape:window-maximized="1"
   inkscape:current-layer="g1004" />
<g
   id="g1004">
	<path
   d="M128.875,120.962c-31.094-14.37-74.616-8.014-76.453-7.737c-4.096,0.619-6.915,4.44-6.296,8.536   c0.619,4.096,4.443,6.912,8.536,6.296c0.406-0.062,40.867-5.982,67.92,6.521c1.018,0.471,2.089,0.694,3.142,0.694   c2.834-0.001,5.546-1.614,6.813-4.355C134.274,127.157,132.635,122.7,128.875,120.962z"
   id="path996"
   style="fill:#19c054;fill-opacity:1" />
	<path
   d="M137.614,93.953c-35.313-16.319-84.833-9.087-86.924-8.772c-4.094,0.619-6.911,4.438-6.294,8.532   c0.616,4.095,4.438,6.916,8.531,6.301c0.468-0.071,47.206-6.857,78.394,7.556c1.02,0.471,2.089,0.694,3.142,0.694   c2.834-0.001,5.546-1.614,6.814-4.356C143.014,100.148,141.374,95.691,137.614,93.953z"
   id="path998"
   style="fill:#19c054;fill-opacity:1" />
	<path
   d="M143.49,65.736c-39.006-18.027-93.79-10.028-96.103-9.679c-4.094,0.619-6.911,4.438-6.294,8.532s4.44,6.919,8.531,6.3   c0.523-0.079,52.691-7.657,87.573,8.463c1.018,0.471,2.089,0.694,3.142,0.694c2.834,0,5.546-1.614,6.813-4.355   C148.89,71.93,147.25,67.474,143.49,65.736z"
   id="path1000"
   style="fill-opacity:1;fill:#19c054" />
	<path
   d="M93.423,0.001C41.909,0.001,0,41.909,0,93.42c0,51.514,41.909,93.424,93.423,93.424c51.513,0,93.422-41.91,93.422-93.424   C186.845,41.909,144.936,0.001,93.423,0.001z M93.423,171.844C50.18,171.844,15,136.664,15,93.42   c0-43.241,35.18-78.42,78.423-78.42c43.242,0,78.422,35.179,78.422,78.42C171.845,136.664,136.665,171.844,93.423,171.844z"
   id="path1002"
   style="fill:url(#linearGradient4406);fill-opacity:1;opacity:1;stroke:none;stroke-opacity:1" />
</g>
<g
   id="g1006">
</g>
<g
   id="g1008">
</g>
<g
   id="g1010">
</g>
<g
   id="g1012">
</g>
<g
   id="g1014">
</g>
<g
   id="g1016">
</g>
<g
   id="g1018">
</g>
<g
   id="g1020">
</g>
<g
   id="g1022">
</g>
<g
   id="g1024">
</g>
<g
   id="g1026">
</g>
<g
   id="g1028">
</g>
<g
   id="g1030">
</g>
<g
   id="g1032">
</g>
<g
   id="g1034">
</g>
</svg>
