<?xml version="1.0" encoding="UTF-8" standalone="no"?>
<svg
   xmlns:dc="http://purl.org/dc/elements/1.1/"
   xmlns:cc="http://creativecommons.org/ns#"
   xmlns:rdf="http://www.w3.org/1999/02/22-rdf-syntax-ns#"
   xmlns:svg="http://www.w3.org/2000/svg"
   xmlns="http://www.w3.org/2000/svg"
   xmlns:sodipodi="http://sodipodi.sourceforge.net/DTD/sodipodi-0.dtd"
   xmlns:inkscape="http://www.inkscape.org/namespaces/inkscape"
   version="1.1"
   id="Capa_1"
   x="0px"
   y="0px"
   viewBox="0 0 159.596 159.596"
   style="enable-background:new 0 0 159.596 159.596;"
   xml:space="preserve"
   sodipodi:docname="ctiktok.svg"
   inkscape:version="1.0.1 (3bc2e813f5, 2020-09-07)"><metadata
   id="metadata43"><rdf:RDF><cc:Work
       rdf:about=""><dc:format>image/svg+xml</dc:format><dc:type
         rdf:resource="http://purl.org/dc/dcmitype/StillImage" /><dc:title></dc:title></cc:Work></rdf:RDF></metadata><defs
   id="defs41" /><sodipodi:namedview
   pagecolor="#ffffff"
   bordercolor="#666666"
   borderopacity="1"
   objecttolerance="10"
   gridtolerance="10"
   guidetolerance="10"
   inkscape:pageopacity="0"
   inkscape:pageshadow="2"
   inkscape:window-width="1366"
   inkscape:window-height="705"
   id="namedview39"
   showgrid="false"
   inkscape:zoom="3.371012"
   inkscape:cx="79.797997"
   inkscape:cy="79.797997"
   inkscape:window-x="-8"
   inkscape:window-y="173"
   inkscape:window-maximized="1"
   inkscape:current-layer="Capa_1" />
<g
   id="g6">
	<path
   d="M133.455,132.469c-3.352-2.43-8.044-1.682-10.474,1.673c-4.743,6.546-12.392,10.454-20.459,10.454   c-13.916,0-25.238-11.321-25.238-25.236V65.811h47.649c4.143,0,7.5-3.358,7.5-7.5s-3.357-7.5-7.5-7.5H30.541   c-4.142,0-7.5,3.358-7.5,7.5s3.358,7.5,7.5,7.5h31.743v53.549c0,22.187,18.051,40.236,40.238,40.236   c12.861,0,25.05-6.226,32.606-16.653C137.558,139.588,136.809,134.899,133.455,132.469z"
   id="path2"
   style="fill:#ff7f2a" />
	<path
   d="M69.784,36.772c4.142,0,7.5-3.358,7.5-7.5V7.5c0-4.142-3.358-7.5-7.5-7.5s-7.5,3.358-7.5,7.5v21.772   C62.284,33.415,65.642,36.772,69.784,36.772z"
   id="path4"
   style="fill:#ff7f2a" />
</g>
<g
   id="g8">
</g>
<g
   id="g10">
</g>
<g
   id="g12">
</g>
<g
   id="g14">
</g>
<g
   id="g16">
</g>
<g
   id="g18">
</g>
<g
   id="g20">
</g>
<g
   id="g22">
</g>
<g
   id="g24">
</g>
<g
   id="g26">
</g>
<g
   id="g28">
</g>
<g
   id="g30">
</g>
<g
   id="g32">
</g>
<g
   id="g34">
</g>
<g
   id="g36">
</g>
</svg>
