<?xml version="1.0" encoding="UTF-8" standalone="no"?>
<svg
   xmlns:dc="http://purl.org/dc/elements/1.1/"
   xmlns:cc="http://creativecommons.org/ns#"
   xmlns:rdf="http://www.w3.org/1999/02/22-rdf-syntax-ns#"
   xmlns:svg="http://www.w3.org/2000/svg"
   xmlns="http://www.w3.org/2000/svg"
   xmlns:xlink="http://www.w3.org/1999/xlink"
   xmlns:sodipodi="http://sodipodi.sourceforge.net/DTD/sodipodi-0.dtd"
   xmlns:inkscape="http://www.inkscape.org/namespaces/inkscape"
   version="1.1"
   id="Capa_1"
   x="0px"
   y="0px"
   viewBox="0 0 184.313 184.313"
   style="enable-background:new 0 0 184.313 184.313;"
   xml:space="preserve"
   sodipodi:docname="cvk.svg"
   inkscape:version="1.0.1 (3bc2e813f5, 2020-09-07)"><metadata
   id="metadata7228"><rdf:RDF><cc:Work
       rdf:about=""><dc:format>image/svg+xml</dc:format><dc:type
         rdf:resource="http://purl.org/dc/dcmitype/StillImage" /><dc:title></dc:title></cc:Work></rdf:RDF></metadata><defs
   id="defs7226"><linearGradient
     inkscape:collect="always"
     id="linearGradient8394"><stop
       style="stop-color:#4c84c3;stop-opacity:1;"
       offset="0"
       id="stop8390" /><stop
       style="stop-color:#4c84c3;stop-opacity:0;"
       offset="1"
       id="stop8392" /></linearGradient><linearGradient
     inkscape:collect="always"
     xlink:href="#linearGradient8394"
     id="linearGradient8398"
     x1="-0.00046504865"
     y1="92.156096"
     x2="255.91389"
     y2="91.128326"
     gradientUnits="userSpaceOnUse" /></defs><sodipodi:namedview
   pagecolor="#ffffff"
   bordercolor="#666666"
   borderopacity="1"
   objecttolerance="10"
   gridtolerance="10"
   guidetolerance="10"
   inkscape:pageopacity="0"
   inkscape:pageshadow="2"
   inkscape:window-width="1920"
   inkscape:window-height="1017"
   id="namedview7224"
   showgrid="false"
   inkscape:zoom="2.9189476"
   inkscape:cx="87.077814"
   inkscape:cy="92.156502"
   inkscape:window-x="1358"
   inkscape:window-y="-8"
   inkscape:window-maximized="1"
   inkscape:current-layer="Capa_1" />
<path
   d="M 180.323,147.777 127.275,102.404 182.589,35.62 c 2.642,-3.191 2.197,-7.918 -0.992,-10.56 -3.19,-2.643 -7.918,-2.199 -10.561,0.992 l -60.022,72.469 c -0.304,0.366 -0.562,0.754 -0.784,1.156 V 30.836 c 0,-4.142 -3.357,-7.5 -7.5,-7.5 h -9.521 c -4.143,0 -9.212946,3.015411 -9.212946,7.157411 0,4.142 5.069946,7.842589 9.212946,7.842589 h 2.021 v 93.253 L 13.424,26.236 C 10.883,22.964 6.171,22.372 2.9,24.912 c -3.272,2.54 -3.864,7.252 -1.324,10.523 l 95.229,122.641 c 1.448,1.866 3.652,2.901 5.925,2.901 0.812,0 1.633,-0.132 2.431,-0.405 3.031,-1.039 5.068,-3.89 5.068,-7.095 v -46.55 c 0.423,0.767 0.981,1.476 1.686,2.079 l 58.658,50.171 c 1.413,1.209 3.146,1.8 4.871,1.8 2.116,0 4.22,-0.891 5.703,-2.625 2.693,-3.148 2.324,-7.883 -0.824,-10.575 z"
   id="path7191"
   sodipodi:nodetypes="cccccccsssssccccccscscccscc"
   style="fill:url(#linearGradient8398);fill-opacity:1" />
<g
   id="g7193">
</g>
<g
   id="g7195">
</g>
<g
   id="g7197">
</g>
<g
   id="g7199">
</g>
<g
   id="g7201">
</g>
<g
   id="g7203">
</g>
<g
   id="g7205">
</g>
<g
   id="g7207">
</g>
<g
   id="g7209">
</g>
<g
   id="g7211">
</g>
<g
   id="g7213">
</g>
<g
   id="g7215">
</g>
<g
   id="g7217">
</g>
<g
   id="g7219">
</g>
<g
   id="g7221">
</g>
</svg>
