<?xml version="1.0" encoding="utf-8"?>
<!-- Generator: Adobe Illustrator 24.3.0, SVG Export Plug-In . SVG Version: 6.00 Build 0)  -->
<svg version="1.1"
	 id="Layer_1" xmlns:cc="http://creativecommons.org/ns#" xmlns:dc="http://purl.org/dc/elements/1.1/" xmlns:inkscape="http://www.inkscape.org/namespaces/inkscape" xmlns:rdf="http://www.w3.org/1999/02/22-rdf-syntax-ns#" xmlns:sodipodi="http://sodipodi.sourceforge.net/DTD/sodipodi-0.dtd" xmlns:svg="http://www.w3.org/2000/svg"
	 xmlns="http://www.w3.org/2000/svg" xmlns:xlink="http://www.w3.org/1999/xlink" x="0px" y="0px" viewBox="0 0 169.1 169.1"
	 style="enable-background:new 0 0 169.1 169.1;" xml:space="preserve">
<style type="text/css">
	.st0{fill:url(#path2235_1_);}
	.st1{fill:url(#path2237_1_);}
	.st2{fill:url(#path2239_1_);}
</style>
<sodipodi:namedview  bordercolor="#666666" borderopacity="1" gridtolerance="10" guidetolerance="10" id="namedview2274" inkscape:current-layer="Layer_1" inkscape:cx="84.531502" inkscape:cy="84.531502" inkscape:pageopacity="0" inkscape:pageshadow="2" inkscape:window-height="705" inkscape:window-maximized="1" inkscape:window-width="1366" inkscape:window-x="-8" inkscape:window-y="173" inkscape:zoom="3.0510778" objecttolerance="10" pagecolor="#ffffff" showgrid="false">
	</sodipodi:namedview>
<g id="g2241">
	<linearGradient id="path2235_1_" gradientUnits="userSpaceOnUse" x1="0" y1="84.531" x2="169.062" y2="84.531">
		<stop  offset="1" style="stop-color:#FFFFFF"/>
		<stop  offset="1" style="stop-color:#000000"/>
	</linearGradient>
	<path id="path2235" class="st0" d="M122.4,0H46.7C20.9,0,0,20.9,0,46.7v75.8c0,25.7,20.9,46.7,46.7,46.7h75.8
		c25.7,0,46.7-20.9,46.7-46.7V46.7C169.1,20.9,148.1,0,122.4,0z M154.1,122.4c0,17.5-14.2,31.7-31.7,31.7H46.7
		c-17.5,0-31.7-14.2-31.7-31.7V46.7C15,29.2,29.2,15,46.7,15h75.8c17.5,0,31.7,14.2,31.7,31.7L154.1,122.4L154.1,122.4z"/>
	<linearGradient id="path2237_1_" gradientUnits="userSpaceOnUse" x1="40.968" y1="84.532" x2="128.094" y2="84.532">
		<stop  offset="1" style="stop-color:#FFFFFF"/>
		<stop  offset="1" style="stop-color:#000000"/>
	</linearGradient>
	<path id="path2237" class="st1" d="M84.5,41C60.5,41,41,60.5,41,84.5c0,24,19.5,43.6,43.6,43.6s43.6-19.5,43.6-43.6
		C128.1,60.5,108.6,41,84.5,41z M84.5,113.1c-15.7,0-28.6-12.8-28.6-28.6C56,68.8,68.8,56,84.5,56s28.6,12.8,28.6,28.6
		C113.1,100.3,100.3,113.1,84.5,113.1z"/>
	<linearGradient id="path2239_1_" gradientUnits="userSpaceOnUse" x1="118.921" y1="39.251" x2="140.921" y2="39.251">
		<stop  offset="1" style="stop-color:#FFFFFF"/>
		<stop  offset="1" style="stop-color:#000000"/>
	</linearGradient>
	<path id="path2239" class="st2" d="M129.9,28.3c-2.9,0-5.7,1.2-7.8,3.2c-2.1,2-3.2,4.9-3.2,7.8c0,2.9,1.2,5.7,3.2,7.8
		c2,2,4.9,3.2,7.8,3.2c2.9,0,5.7-1.2,7.8-3.2c2.1-2,3.2-4.9,3.2-7.8c0-2.9-1.2-5.7-3.2-7.8C135.7,29.4,132.8,28.3,129.9,28.3z"/>
</g>
<g id="g2243">
</g>
<g id="g2245">
</g>
<g id="g2247">
</g>
<g id="g2249">
</g>
<g id="g2251">
</g>
<g id="g2253">
</g>
<g id="g2255">
</g>
<g id="g2257">
</g>
<g id="g2259">
</g>
<g id="g2261">
</g>
<g id="g2263">
</g>
<g id="g2265">
</g>
<g id="g2267">
</g>
<g id="g2269">
</g>
<g id="g2271">
</g>
</svg>
