<?xml version="1.0" encoding="UTF-8" standalone="no"?>
<svg
   xmlns:dc="http://purl.org/dc/elements/1.1/"
   xmlns:cc="http://creativecommons.org/ns#"
   xmlns:rdf="http://www.w3.org/1999/02/22-rdf-syntax-ns#"
   xmlns:svg="http://www.w3.org/2000/svg"
   xmlns="http://www.w3.org/2000/svg"
   xmlns:sodipodi="http://sodipodi.sourceforge.net/DTD/sodipodi-0.dtd"
   xmlns:inkscape="http://www.inkscape.org/namespaces/inkscape"
   version="1.1"
   id="Слой_1"
   x="0px"
   y="0px"
   viewBox="0 0 300 150"
   style="enable-background:new 0 0 300 150;"
   xml:space="preserve"
   sodipodi:docname="projects.svg"
   inkscape:version="1.0.1 (3bc2e813f5, 2020-09-07)"><metadata
   id="metadata1547"><rdf:RDF><cc:Work
       rdf:about=""><dc:format>image/svg+xml</dc:format><dc:type
         rdf:resource="http://purl.org/dc/dcmitype/StillImage" /><dc:title></dc:title></cc:Work></rdf:RDF></metadata><defs
   id="defs1545" /><sodipodi:namedview
   pagecolor="#ffffff"
   bordercolor="#666666"
   borderopacity="1"
   objecttolerance="10"
   gridtolerance="10"
   guidetolerance="10"
   inkscape:pageopacity="0"
   inkscape:pageshadow="2"
   inkscape:window-width="1366"
   inkscape:window-height="705"
   id="namedview1543"
   showgrid="false"
   inkscape:zoom="1.7933333"
   inkscape:cx="176.50821"
   inkscape:cy="95.449999"
   inkscape:window-x="-8"
   inkscape:window-y="-8"
   inkscape:window-maximized="1"
   inkscape:current-layer="g1540" />
<style
   type="text/css"
   id="style1518">
	.st0{fill:#F7F7F7;}
</style>
<g
   id="g1540">
	<path
   class="st0"
   d="M52.1,56.2c0.3,0.4,0.5,0.8,0.5,1.4V92c0,0.5-0.2,1-0.5,1.3c-0.3,0.4-0.8,0.6-1.3,0.6c-0.5,0-1-0.2-1.3-0.6   c-0.4-0.4-0.5-0.8-0.5-1.3V64.3L35.8,92.1c-0.4,0.6-0.9,0.9-1.6,0.9c-0.8,0-1.4-0.4-1.7-1.2L19.4,64.7V92c0,0.5-0.2,1-0.5,1.3   c-0.3,0.4-0.8,0.6-1.3,0.6c-0.5,0-0.9-0.2-1.3-0.6c-0.4-0.4-0.5-0.8-0.5-1.3V57.6c0-0.6,0.2-1,0.5-1.4c0.4-0.4,0.8-0.5,1.3-0.5   c0.7,0,1.3,0.3,1.7,1l15.1,31.1l14.8-31.1c0.4-0.7,0.9-1,1.7-1C51.3,55.7,51.8,55.9,52.1,56.2z"
   id="path1520" />
	<path
   class="st0"
   d="M82.9,68.7c0,0.3-0.1,0.6-0.2,0.9l-15.3,34.8c-0.3,0.7-0.7,1.1-1.4,1.1c-0.3,0-0.6-0.1-0.9-0.2   c-0.7-0.3-1.1-0.8-1.1-1.5c0-0.3,0.1-0.6,0.2-0.9L69,92.3v0L58.4,69.6c-0.1-0.3-0.2-0.6-0.2-0.9c0-0.7,0.3-1.2,1-1.5   c0.3-0.1,0.5-0.2,0.9-0.2c0.7,0,1.1,0.3,1.4,1l9.2,20.1l8.8-20c0.3-0.7,0.8-1.1,1.4-1.1c0.3,0,0.6,0.1,0.9,0.2   C82.5,67.6,82.9,68,82.9,68.7z"
   id="path1522" />
	<path
   class="st0"
   d="M102.3,93.3c-0.3-0.4-0.5-0.8-0.5-1.4V57.6c0-0.6,0.2-1,0.5-1.4c0.3-0.4,0.8-0.5,1.3-0.5h9.4   c2.3,0,4.4,0.5,6.2,1.6c1.8,1.1,3.2,2.5,4.2,4.4c1,1.9,1.5,4,1.5,6.4c0,2.4-0.5,4.5-1.5,6.4c-1,1.9-2.4,3.3-4.2,4.4   c-1.8,1-3.9,1.6-6.2,1.6h-7.6V92c0,0.6-0.2,1-0.5,1.4c-0.3,0.4-0.8,0.5-1.3,0.5C103.1,93.9,102.7,93.7,102.3,93.3z M113.1,76.7   c1.6,0,3-0.4,4.3-1.1c1.3-0.7,2.2-1.8,3-3.1c0.7-1.3,1.1-2.8,1.1-4.4c0-1.7-0.4-3.2-1.1-4.5c-0.7-1.3-1.7-2.4-3-3.1   c-1.3-0.7-2.7-1.1-4.3-1.1h-7.6v17.4H113.1z"
   id="path1524" />
	<path
   class="st0"
   d="M145.1,67.4c0.8,0.4,1.2,0.9,1.2,1.5c0,0.2,0,0.3,0,0.4c-0.1,0.5-0.3,0.8-0.6,0.9c-0.3,0.2-0.6,0.2-1.1,0.2   c-0.3,0-0.8,0-1.5-0.1c-0.3,0-0.6,0-1.1,0c-2.4,0-4.3,0.7-5.8,2c-1.5,1.3-2.2,3-2.2,5.1V92c0,0.6-0.2,1-0.5,1.4   c-0.3,0.3-0.8,0.5-1.3,0.5s-1-0.2-1.3-0.5c-0.3-0.3-0.5-0.8-0.5-1.4V69c0-0.6,0.2-1,0.5-1.4c0.3-0.3,0.8-0.5,1.3-0.5s1,0.2,1.3,0.5   c0.3,0.3,0.5,0.8,0.5,1.4v2.2c0.9-1.4,2.1-2.4,3.5-3.2c1.4-0.7,2.9-1.1,4.6-1.1C143.2,66.8,144.3,67,145.1,67.4z"
   id="path1526" />
	<path
   class="st0"
   d="M155,92.4c-2-1.2-3.6-2.8-4.7-4.9c-1.1-2.1-1.7-4.4-1.7-7c0-2.6,0.6-4.9,1.7-7c1.1-2.1,2.7-3.7,4.7-4.9   c2-1.2,4.2-1.8,6.7-1.8c2.5,0,4.7,0.6,6.7,1.8s3.6,2.8,4.7,4.9c1.1,2.1,1.7,4.4,1.7,7c0,2.6-0.6,4.9-1.7,7   c-1.1,2.1-2.7,3.7-4.7,4.9c-2,1.2-4.2,1.8-6.7,1.8C159.3,94.1,157,93.5,155,92.4z M166.7,89.4c1.4-0.9,2.6-2.1,3.4-3.6   c0.8-1.5,1.2-3.3,1.2-5.2c0-2-0.4-3.7-1.2-5.3c-0.8-1.5-2-2.8-3.4-3.6s-3.1-1.3-4.9-1.3c-1.8,0-3.4,0.4-4.9,1.3s-2.6,2.1-3.4,3.6   c-0.8,1.5-1.3,3.3-1.3,5.3c0,1.9,0.4,3.7,1.3,5.2c0.8,1.5,2,2.8,3.4,3.6s3.1,1.3,4.9,1.3C163.6,90.7,165.2,90.3,166.7,89.4z"
   id="path1528" />
	<path
   class="st0"
   d="M173.8,104.8c-0.3-0.4-0.5-0.8-0.5-1.4c0-0.6,0.2-1,0.5-1.4c0.3-0.4,0.8-0.5,1.3-0.5c2.2,0,4-0.7,5.3-2.2   c1.4-1.4,2.1-3.3,2.1-5.5V69c0-0.6,0.2-1,0.5-1.4c0.3-0.4,0.8-0.5,1.3-0.5c0.5,0,1,0.2,1.3,0.5c0.3,0.4,0.5,0.8,0.5,1.4v24.8   c0,2.2-0.5,4.2-1.4,5.9c-0.9,1.7-2.3,3.1-3.9,4.1c-1.7,1-3.6,1.5-5.7,1.5C174.6,105.3,174.2,105.1,173.8,104.8z M182.5,61.3   c-0.5-0.5-0.7-1.2-0.7-1.9c0-0.8,0.3-1.4,0.8-1.9c0.5-0.5,1.1-0.7,1.8-0.7c0.7,0,1.3,0.2,1.8,0.7c0.5,0.5,0.8,1.1,0.8,1.9   c0,0.8-0.3,1.4-0.8,1.9c-0.5,0.5-1.1,0.8-1.8,0.8S183,61.8,182.5,61.3z"
   id="path1530" />
	<path
   class="st0"
   d="M210.8,68.6c1.8,1.1,3.2,2.7,4.2,4.7c1,2,1.5,4.3,1.5,6.8c0,0.5-0.2,0.9-0.5,1.2c-0.3,0.3-0.7,0.5-1.2,0.5   h-19.1c0.3,2.7,1.3,4.8,3,6.5c1.8,1.7,4,2.5,6.6,2.5c1.1,0,2.3-0.2,3.4-0.6c1.1-0.4,2.1-0.9,2.8-1.5c0.4-0.3,0.8-0.5,1.3-0.5   c0.3,0,0.7,0.1,1,0.4c0.4,0.4,0.6,0.8,0.6,1.3c0,0.4-0.2,0.8-0.5,1.1c-1,0.9-2.4,1.7-4,2.3c-1.6,0.6-3.2,0.9-4.6,0.9   c-2.5,0-4.8-0.6-6.8-1.7c-2-1.2-3.5-2.8-4.7-4.8c-1.1-2.1-1.7-4.4-1.7-7c0-2.6,0.5-5,1.6-7.1c1.1-2.1,2.5-3.7,4.4-4.8   c1.9-1.2,4-1.7,6.4-1.7C206.9,66.9,209,67.4,210.8,68.6z M198.6,72.6c-1.6,1.5-2.5,3.6-2.9,6.1H213c-0.3-2.5-1.1-4.5-2.6-6.1   c-1.5-1.5-3.4-2.3-5.8-2.3C202.2,70.3,200.2,71,198.6,72.6z"
   id="path1532" />
	<path
   class="st0"
   d="M226.5,92.3c-2-1.2-3.5-2.8-4.6-4.9c-1.1-2.1-1.7-4.4-1.7-6.9c0-2.6,0.5-4.9,1.6-7c1.1-2.1,2.6-3.7,4.4-4.9   c1.9-1.2,4-1.8,6.4-1.8c3.9,0,7.1,1.6,9.6,4.7c0.3,0.3,0.4,0.6,0.4,1c0,0.5-0.3,1-0.8,1.4c-0.3,0.2-0.6,0.3-0.9,0.3   c-0.5,0-0.9-0.2-1.4-0.7c-0.9-1.1-2-1.9-3.1-2.4c-1.1-0.5-2.4-0.8-3.8-0.8c-1.7,0-3.3,0.4-4.6,1.3c-1.4,0.9-2.4,2.1-3.1,3.6   c-0.7,1.6-1.1,3.3-1.1,5.3c0,1.9,0.4,3.7,1.2,5.2c0.8,1.5,1.9,2.8,3.3,3.6c1.4,0.9,3,1.3,4.9,1.3c2.5,0,4.6-0.7,6.1-2.1   c0.4-0.4,0.8-0.5,1.3-0.5c0.4,0,0.7,0.1,1,0.4c0.4,0.4,0.7,0.8,0.7,1.3c0,0.4-0.2,0.8-0.5,1.1c-2.3,2.2-5.1,3.3-8.6,3.3   C230.7,94.1,228.5,93.5,226.5,92.3z"
   id="path1534" />
	<path
   class="st0"
   d="M262.4,90.6c0.3,0.4,0.5,0.8,0.5,1.4c0,0.5-0.2,1-0.6,1.3c-0.4,0.4-0.9,0.5-1.4,0.5h-1c-1.7,0-3.2-0.4-4.5-1.2   s-2.4-2-3.1-3.4c-0.7-1.4-1.1-3-1.1-4.8V71.4h-3.1c-0.5,0-0.9-0.2-1.2-0.5c-0.3-0.3-0.4-0.7-0.4-1.1c0-0.5,0.1-0.9,0.4-1.2   c0.3-0.3,0.7-0.5,1.2-0.5h3.1v-7.6c0-0.6,0.2-1,0.5-1.4c0.3-0.4,0.8-0.5,1.3-0.5c0.5,0,1,0.2,1.3,0.5c0.3,0.4,0.5,0.8,0.5,1.4v7.6   h5.3c0.5,0,0.9,0.2,1.2,0.5c0.3,0.3,0.4,0.7,0.4,1.2c0,0.5-0.2,0.8-0.4,1.1c-0.3,0.3-0.7,0.5-1.2,0.5h-5.3v13.1   c0,1.7,0.5,3,1.4,4.1c0.9,1.1,2.2,1.6,3.6,1.6h1.3C261.7,90.1,262.1,90.3,262.4,90.6z"
   id="path1536" />
	<path
   class="st0"
   d="M272.2,94.1c-1.8-0.7-3.2-1.6-4.3-2.9c-0.3-0.4-0.5-0.8-0.5-1.1c0-0.6,0.3-1,0.8-1.5c0.4-0.3,0.8-0.4,1.2-0.4   c0.5,0,1,0.2,1.4,0.7c0.8,0.9,1.8,1.6,3,2.1c1.2,0.5,2.6,0.7,4.1,0.7c2.2,0,3.9-0.4,5-1.2c1.1-0.8,1.7-1.8,1.7-3.1   c0-1.2-0.6-2.2-1.7-2.9s-2.9-1.4-5.2-1.8c-3.1-0.5-5.5-1.3-6.9-2.7c-1.3-1.3-2.3-2.8-2.3-4.7c0-2.4,0.9-4.2,2.7-5.5   c1.8-1.3,4-2,6.7-2c2.1,0,3.9,0.4,5.4,1.1c1.5,0.7,2.8,1.8,3.7,3.1c0.3,0.4,0.4,0.8,0.4,1.1c0,0.6-0.3,1-0.8,1.3   c-0.2,0.2-0.5,0.2-0.9,0.2c-0.7,0-1.2-0.2-1.7-0.7c-1.5-1.8-3.7-2.7-6.3-2.7c-1.7,0-3.1,0.4-4.2,1.1c-1,0.7-1.6,1.7-1.6,2.8   c0,1.2,0.5,2.1,1.5,2.8c1,0.7,2.7,1.3,5.2,1.7c3.4,0.6,5.8,1.5,7.2,2.9c1.4,1.3,2.2,3,2.2,4.9c0,1.5-0.4,2.8-1.3,4   c-0.9,1.2-2.1,2.1-3.6,2.7c-1.5,0.7-3.3,1-5.2,1S274,94.8,272.2,94.1z"
   id="path1538" />
</g>
</svg>
