<?xml version="1.0" encoding="utf-8"?>
<!-- Generator: Adobe Illustrator 24.3.0, SVG Export Plug-In . SVG Version: 6.00 Build 0)  -->
<svg version="1.1"
	 id="Capa_1" xmlns:cc="http://creativecommons.org/ns#" xmlns:dc="http://purl.org/dc/elements/1.1/" xmlns:inkscape="http://www.inkscape.org/namespaces/inkscape" xmlns:rdf="http://www.w3.org/1999/02/22-rdf-syntax-ns#" xmlns:sodipodi="http://sodipodi.sourceforge.net/DTD/sodipodi-0.dtd" xmlns:svg="http://www.w3.org/2000/svg"
	 xmlns="http://www.w3.org/2000/svg" xmlns:xlink="http://www.w3.org/1999/xlink" x="0px" y="0px" viewBox="0 0 159.6 159.6"
	 style="enable-background:new 0 0 159.6 159.6;" xml:space="preserve">
<style type="text/css">
	.st0{fill:url(#path4251_1_);}
	.st1{fill:url(#path4253_1_);}
</style>
<sodipodi:namedview  bordercolor="#666666" borderopacity="1" gridtolerance="10" guidetolerance="10" id="namedview4288" inkscape:current-layer="Capa_1" inkscape:cx="79.797997" inkscape:cy="79.797997" inkscape:pageopacity="0" inkscape:pageshadow="2" inkscape:window-height="705" inkscape:window-maximized="1" inkscape:window-width="1366" inkscape:window-x="-8" inkscape:window-y="173" inkscape:zoom="3.2320634" objecttolerance="10" pagecolor="#ffffff" showgrid="false">
	</sodipodi:namedview>
<g id="g4255">
	<linearGradient id="path4251_1_" gradientUnits="userSpaceOnUse" x1="23.041" y1="105.2035" x2="136.5549" y2="105.2035">
		<stop  offset="1" style="stop-color:#FFFFFF"/>
		<stop  offset="1" style="stop-color:#000000"/>
	</linearGradient>
	<path id="path4251" class="st0" d="M133.5,132.5c-3.4-2.4-8-1.7-10.5,1.7c-4.7,6.5-12.4,10.5-20.5,10.5
		c-13.9,0-25.2-11.3-25.2-25.2V65.8h47.6c4.1,0,7.5-3.4,7.5-7.5s-3.4-7.5-7.5-7.5H30.5c-4.1,0-7.5,3.4-7.5,7.5s3.4,7.5,7.5,7.5h31.7
		v53.5c0,22.2,18.1,40.2,40.2,40.2c12.9,0,25.1-6.2,32.6-16.7C137.6,139.6,136.8,134.9,133.5,132.5z"/>
	<linearGradient id="path4253_1_" gradientUnits="userSpaceOnUse" x1="119.284" y1="18.386" x2="134.284" y2="18.386">
		<stop  offset="1" style="stop-color:#FFFFFF"/>
		<stop  offset="1" style="stop-color:#000000"/>
	</linearGradient>
	<path id="path4253" class="st1" d="M69.8,36.8c4.1,0,7.5-3.4,7.5-7.5V7.5c0-4.1-3.4-7.5-7.5-7.5s-7.5,3.4-7.5,7.5v21.8
		C62.3,33.4,65.6,36.8,69.8,36.8z"/>
</g>
<g id="g4257">
</g>
<g id="g4259">
</g>
<g id="g4261">
</g>
<g id="g4263">
</g>
<g id="g4265">
</g>
<g id="g4267">
</g>
<g id="g4269">
</g>
<g id="g4271">
</g>
<g id="g4273">
</g>
<g id="g4275">
</g>
<g id="g4277">
</g>
<g id="g4279">
</g>
<g id="g4281">
</g>
<g id="g4283">
</g>
<g id="g4285">
</g>
</svg>
