<?xml version="1.0" encoding="utf-8"?>
<!-- Generator: Adobe Illustrator 26.0.2, SVG Export Plug-In . SVG Version: 6.00 Build 0)  -->
<svg version="1.1" id="Слой_1" xmlns="http://www.w3.org/2000/svg" xmlns:xlink="http://www.w3.org/1999/xlink" x="0px" y="0px"
	 viewBox="0 0 1451.34 1451.34" style="enable-background:new 0 0 1451.34 1451.34;" xml:space="preserve">
<style type="text/css">
	.st0{fill-rule:evenodd;clip-rule:evenodd;fill:#DEE0E1;}
	.st1{fill:#FFFFFF;}
	.st2{fill-rule:evenodd;clip-rule:evenodd;fill:#FCE525;}
	.st3{fill-rule:evenodd;clip-rule:evenodd;fill:#222220;}
</style>
<path class="st0" d="M409.79,1052.34c17.33-16.19,33.1-24.19,32.4-63.2c-27.2,15.6-103.96,14.82-136.37-35.11
	c-9.18-14.24,0-21.26,9.36-10.14c22.01,28.09,62.73,15.41,77.63,7.22c-2.55-10.36-7.31-19.87-13.86-27.7
	c5.54-6.24,21.31-15.41,24.6-31.21c-13.65-4.63-27.71-7.57-41.93-8.78c8.75-8.62,11.92-22.4,7.97-34.72
	c-33.44,11.51-74.68-4.1-84.04-17.95s0-26.53,7.97-17.56c17.33,19.51,98.59,42.33,129.09,8c-10.83-3.25-20.21-10.89-26.34-21.46
	c28.24-3.12,50.77-21.85,51.98-45.25c-18.78,1.44-37.62-1.89-55.1-9.75c12.82-3.06,23.02-14.01,26.34-28.28
	c-51.98-3.51-55.79-46.62-55.97-53.84c33.62,21.85,92.87,12.09,77.45-41.55c-27.9-1.76-56.14-52.67,20.79-99.48
	c69.31-42.52,149.36-88.56,142.43-164.04c-4.68-48.37-75.37-81.34-84.38-105.92c-29.46,15.8-34.65,34.14-22.18,64.95
	c0,0-65.84,7.41-71.04-39.01c-0.02-21.03,8.38-40.95,22.87-54.23c-7.45,0-57.01-15.02-71.91,30.62
	c-27.9-21.26-51.98-20.68-70.35,1.95c29.8,19.51,48.34,88.36,97.73,108.65c-34.65,21.46-92.01,12.48-125.1-53.45
	c-31.36,53.25-49.38,105.92,17.33,162.09c-122.5,62.81-121.29,182.57-228.03,239.73c10.92,32.57,33.62,32.57,62.55,27.5
	c-46.09,67.3-6.76,137.91-79.71,166.58c6.76,27.5,20.45,49.35,47.48,41.35c-7.62,13.46-12.65,13.07-24.6,27.89
	c39.85,28.28,86.64,7.8,97.9-82.9c1.91-16.19,21.66-6.05,14.9,9.75c-45.4,105.72,69.31,185.31,28.76,262.94
	c35.87-1.76,63.07-4.88,78.15-18.53c7.45,14.69,10.94,31.49,10.05,48.37c15.33-1.59,27.38-15.47,28.42-32.77
	c13,42.52,59.26,87.97,133.59,87.97c-39.33-63-2.77-127.18-58.39-199.35 M334.94,1129.78L319,1160.21
	c-6.21-19.1-13.75-37.62-22.53-55.4c-12.65,29.65-32.92,30.23-51.98,30.23c5.54-70.42-73.47-141.61-38.81-222.37
	c7.51-16,2.07-35.83-12.15-44.28c-0.11-0.07-0.22-0.13-0.33-0.19c-53.02-30.23-28.42,95.38-81.44,99.09
	c7.28-14.53,12.49-30.26,15.42-46.62c-11.26,3.32-38.29,22.63-50.42-2.15c25.17-15.47,41.9-43.95,44.7-76.07
	c2.54-23.22,7.54-46.01,14.9-67.88c11.21-22.24,24.39-43.15,39.33-62.42c-5.37,0-64.98,15.02-78.32,8
	c103.1-71.2,79.88-161.9,236.86-242.46c-41.24-34.53-83.34-61.83-53.19-127.76c42.97,58.52,124.93,39.01,168.94,10.92
	c-43.66-9.75-99.98-53.06-113.32-101.24c17.33-2.93,37.77,17.17,50.08,26.53c5.89-17.75,8.32-39.01,27.38-42.91
	c-25.47,61.64,24.95,93.63,73.12,93.82c7.45,0,38.64-3.51,38.64-3.51c-5.02-11.51-25.12-42.91-10.4-55.79
	c11.78,12.48,25.82,22.43,38.64,33.36c93.57,81.53-44.53,157.02-101.02,191.35c-88.72,53.84-64.98,118.01-27.9,134.4
	c0,7.22-4.16,10.53-10.22,12.68c-25.82,9.75-50.25-11.12-70.87-24.38c1.21,40.18-1.21,78.02,38.29,101.04l-27.2,11.31
	c23.39,19.51,30.5,30.62,58.74,34.72c-13.94,5.68-28.66,8.59-43.49,8.58c2.76,12.89,7.45,25.16,13.86,36.28
	c-57.7,7.8-80.75-29.45-98.59-27.89c-38.12,3.12-35.69,83.88,58.05,83.88l-9.7,18.14c10.75,6.84,22.48,11.52,34.65,13.85
	c-6.24,5.66-12.3,13.26-17.33,19.51l14.9,14.43c-38.29,7.8-49.04-39.01-73.81-15.99c-37.77,33.75,45.57,104.94,125.62,94.41
	c-10.4,11.51-21.65,22.02-33.62,31.4c65.15,69.25,33.1,134.59,59.78,182.38c-51.62-3.44-95.24-44.32-107.6-100.85"/>
<path class="st0" d="M233.75,877.76c13.52,15.8,29.98,17.56,60.99,15.21c-34.65-4.68-53.37-14.04-65.32-39.01
	c-1.87-14.02-3.03-28.16-3.47-42.33c1.05-49.78,13.33-98.45,35.69-141.42c1.73,47.58,33.34,87.01,75.2,93.82
	c-46.78-23.02-74.33-74.9-59.26-125.03c9.7-17.56,20.79-35.7,33.1-54.03c6.24-8.97,12.13-17.36,17.33-25.36
	c-6.24,25.55,21.14,52.08,39.68,56.37c-10.05-10.92-31.36-46.62,17.33-106.11c-14.35,7.66-27.94,17.01-40.55,27.89
	C434.22,428.54,508.04,425.42,542,370.42c-49.21,37.84-179.16,58.52-237.56,40.38c32.23,24.19,110.03,22.04,128.92,17.56
	c-63.42,69.44-201.69,141.03-225.26,204.81c21.88-29.63,51.55-50.66,84.73-60.08c-22.64,35-42.03,72.51-57.87,111.96
	c-36.73,89.92-86.64,91.09-89.24,165.41c17.33-58.52,50.94-72.17,74.51-109.82c-4.47,26.94-6.27,54.35-5.37,81.73
	c0.59,30.71,6.11,61.04,16.29,89.53c-2.43,36.67,0,99.28,37.95,140.83c-20.65-34.44-30.7-75.55-28.59-117.04
	c29.28,63.59,112.63,151.37,153,210.27c-40.37-75.88-138.62-164.43-160.45-266.84"/>
<path class="st0" d="M1157.12,572.3c33.18,9.44,62.84,30.47,84.73,60.08c-23.91-63.78-162.36-135.37-225.26-204.81
	c19.06,4.49,96.86,6.83,129.09-17.56c-58.39,17.95-188.52-2.54-237.56-40.38c34.65,55.01,107.78,58.52,197.53,167.36
	c-12.6-10.89-26.19-20.24-40.55-27.89c49.38,59.49,28.07,94.99,17.33,106.11c18.37-4.49,45.92-30.82,39.68-56.37
	c5.89,8,11.96,16.58,17.33,25.36c12.3,18.34,23.22,36.48,32.92,54.03c14.9,50.13-12.65,102.02-59.26,125.03
	c41.83-6.83,73.38-46.28,75.03-93.82c22.4,42.95,34.68,91.63,35.69,141.42c-0.44,14.17-1.6,28.3-3.47,42.33
	c-11.96,25.55-31.19,34.92-65.15,39.01c31.02,2.15,47.3,0,60.99-15.21c-21.31,102.21-120.08,190.96-160.45,266.84
	c40.37-58.52,123.72-146.68,153-210.27c2.09,41.48-7.95,82.59-28.59,117.04c37.25-41.35,40.2-103.97,37.77-140.83
	c10.13-28.51,15.65-58.83,16.29-89.53c0.96-27.38-0.84-54.8-5.37-81.73c23.57,37.84,57.7,52.28,74.51,109.82
	c-3.12-74.32-51.98-75.49-89.24-165.41c-15.81-39.47-35.2-76.99-57.87-111.96"/>
<path class="st0" d="M1317.23,741.22c28.94,5.07,51.98,5.07,62.55-27.5c-106.56-57.15-105.7-176.92-228.03-239.73
	c67.23-56.18,49.21-109.04,17.33-162.09c-33.1,65.93-90.1,74.9-125.1,53.45c49.38-19.51,67.92-88.75,97.73-108.65
	c-17.67-22.63-41.93-23.99-69.66-3.12c-15.07-45.45-64.46-30.62-71.91-30.62c14.49,13.28,22.89,33.2,22.87,54.23
	c-5.2,45.64-70.87,39.01-70.87,39.01c13.17-30.82,7.45-49.15-22.18-64.95c-9.01,24.58-79.71,57.54-84.21,105.92
	c-7.1,75.68,72.43,121.52,142.26,164.04c76.93,46.81,48.69,97.53,20.79,99.48c-15.42,53.84,43.84,63.39,77.45,41.55
	c0,7.22-4.33,50.33-55.97,53.84c3.32,14.28,13.51,25.22,26.34,28.28c-17.49,7.83-36.32,11.16-55.1,9.75
	c1.91,23.41,24.43,42.13,51.98,45.25c-5.98,10.76-15.31,18.62-26.16,22.04c30.5,34.14,112.45,11.7,129.09-8
	c7.62-8.97,17.33,3.9,7.97,17.36c-9.36,13.46-50.6,29.65-84.04,18.14c-3.94,12.28-0.85,26.02,7.8,34.72
	c-13.93,1.27-27.69,4.22-41.07,8.78c3.12,15.8,19.06,24.97,24.6,31.21c-6.8,7.75-11.8,17.26-14.55,27.7
	c14.9,8.19,55.79,20.87,77.63-7.22c8.84-11.12,18.54-4.1,9.53,10.14c-32.23,49.93-109.16,50.72-136.37,35.11
	c0,39.01,14.21,47.01,32.4,63.39c-55.62,72.17-18.89,136.54-58.22,199.35c74.16,0,121.29-45.45,133.59-87.97
	c1.04,17.3,13.08,31.18,28.42,32.77c-0.82-16.87,2.67-33.66,10.05-48.37c15.07,13.65,42.45,16.78,78.15,18.53
	c-40.55-78.02,74.33-157.02,28.76-262.94c-6.76-15.8,13-25.94,14.9-9.75c10.57,90.51,58.05,111.18,97.9,82.9
	c-11.96-14.82-17.33-14.43-24.6-27.89c26.86,8,40.55-13.85,47.48-41.35c-72.95-28.87-33.62-99.28-79.71-166.58 M1323.12,921.46
	c2.78,16.44,7.93,32.25,15.25,46.81c-53.02-3.9-28.42-129.52-81.44-99.28c-14.31,8.25-19.97,27.99-12.65,44.1
	c0.06,0.12,0.11,0.25,0.17,0.37c34.65,80.75-44.36,151.95-39.85,222.76c-19.58,0-39.85,0-51.98-30.23
	c-8.77,17.78-16.3,36.3-22.53,55.4l-15.94-30.43c-12.41,56.49-56,97.34-107.6,100.85c26.68-47.79-5.37-112.94,59.78-182.38
	c-11.98-9.37-23.22-19.88-33.62-31.4c80.05,10.73,163.4-60.66,125.45-94.41c-24.78-22.04-35.69,23.8-73.81,15.99l14.9-14.43
	c-5.2-5.85-11.26-13.46-17.33-19.51c12.18-2.31,23.91-7,34.65-13.85l-9.7-18.14c93.74,0,95.99-80.75,58.05-83.88
	c-17.33-1.56-41.07,35.5-98.59,27.89c6.34-11.17,11.02-23.42,13.86-36.28c-14.83,0-29.55-2.9-43.49-8.58
	c28.24-4.1,34.65-14.82,58.74-34.72l-27.2-11.31c39.51-22.24,37.08-60.86,38.12-101.04c-20.62,13.46-45.05,34.14-70.7,24.38
	c-6.06-2.34-10.22-5.46-10.22-12.68c37.08-16.38,60.65-80.56-27.9-134.4c-57.18-34.92-195.45-110.21-101.71-190.96
	c12.82-10.92,26.68-20.87,38.47-33.36c14.73,12.68-5.37,44.08-10.4,55.79c0,0,31.19,3.51,38.47,3.51
	c48.17,0,98.77-32.38,73.29-93.82c19.23,4.49,21.49,25.16,27.2,42.91c12.3-9.36,33.62-29.45,50.08-26.53
	c-13.34,48.18-69.31,91.48-113.32,101.24c44.18,27.11,125.97,47.2,168.94-10.92c30.15,65.73-11.78,93.24-53.19,127.76
	c157.16,80.75,133.94,171.26,237.04,242.46c-13.34,7.02-73.12-7.02-78.32-8c15.03,19.23,28.27,40.15,39.51,62.42
	c7.46,21.86,12.58,44.65,15.25,67.88c2.95,32.06,19.64,60.48,44.7,76.07c-12.13,24.77-38.99,5.46-50.25,2.15"/>
<path class="st0" d="M575.09,1119.05l22.35-21.46l-3.47-7.8c-2.43-5.46-1.21-5.85,1.39-8l11.78-9.95c2.59-2.18,6-2.69,9.01-1.37
	l34.65,9.36h-36.56c-6.57-0.31-12.49,4.42-14.38,11.51l-2.6,6.05l-9.7,22.24c-4.62,9.66-3.15,21.58,3.64,29.45l6.76,8.97
	l-13.52,31.79h11.61l9.53-21.85c7.99-8.24,13.95-18.65,17.33-30.23c-3.99-3.71-6.93-6.24-4.68-11.51l4.33-10.34
	c1.39-3.51,1.91-4.88,6.06-3.9l37.25,9.17c5.76,3.25,12.76,1.26,16.46-4.68c5.2-8.78,5.89-7.8,17.33-6.44l19.06,2.34
	c21.44,3.11,43.21-1.68,62.03-13.65c4.27,8,8.89,15.74,13.86,23.21c1.21,2.54,0,6.24-2.43,10.92l-20.62,56.96h32.92l18.71-52.47
	c1.35-4.11,3.48-7.84,6.24-10.92l-10.74,63.39h31.88l8.49-62.81c1.91-13.85,0-18.34-5.2-24.19c-13.34-12.68-13-39.01-17.33-55.4
	c2.42-1.54,5.21-2.16,7.97-1.76c6.93,0,12.13,20.87,20.45,33.55c16.29,25.94,38.64,54.42,64.28,14.24
	c-2.45-4.48-5.23-8.72-8.32-12.68l-7.1-9.36c-4.16-5.27-23.91-30.62-32.23-39.01c-15.75-17.62-40.15-20.84-59.09-7.8
	c-25.99-15.21-53.37,0-59.95,0l-44.7-3.12c-3-0.13-5.75-1.96-7.28-4.88l8.32-3.12c-7.8-36.48-27.38-67.1-61.51-72.17
	c0,0-2.08-11.51-7.1-13.85l-10.22,13.65c-2.98,0.48-5.89,1.4-8.66,2.73l-43.66-18.34l32.75,37.26c0,0-16.29,26.53-21.66,31.99
	c-3.32,3.86-3.32,9.99,0,13.85l6.41,9.36c3.29,4.88,6.93,4.68,12.13,1.56l7.1-4.1c3.12-2.93,13.69,2.93,17.33-1.76
	c-1.83,9.56-2.81,19.29-2.95,29.06l-29.46-3.9c-4.69-1.34-9.66-0.03-13.34,3.51l-25.12,21.65c-8.45,7.41-10.87,20.64-5.72,31.21
	L575.09,1119.05z M817.68,1125.29l-19.93,55.2h-12.3l19.93-53.45c2.08-6.83-1.91-10.14-6.76-17.75c6.92,4.57,14.16,8.49,21.66,11.7
	c-0.93,1.34-1.74,2.78-2.43,4.29 M625.86,1005.53l-5.72,3.32c-3.99,2.54-5.89,3.71-9.36-1.17l-2.43-3.51
	c-1.61-2.85-1.25-6.58,0.87-8.97L633.66,963l-22.53-20.87l28.76,11.9l10.57-14.82c3.12,2.93,2.08,11.51,2.08,11.51
	c27.76,6.34,47.43,34.25,46.61,66.12c3.99,6.86,10.21,11.69,17.33,13.46l49.73,3.32c8.14,0,28.76-17.75,55.27,0
	c6.38-4.73,13.59-7.86,21.14-9.17c21.87,0.63,41.97,13.7,53.37,34.72c9.36,13.26,22.18,33.75,22.18,33.75
	c-5.54,7.41-10.92,9.75-15.42,8c-6.3-4.11-10.48-11.36-11.26-19.51c-3.64-10.11-9.63-18.93-17.33-25.55
	c3.66,9.34,6.23,19.17,7.62,29.26c-19.41-21.65-23.05-48.18-36.73-51.69c-7.66-1.31-15.29,2.5-19.58,9.75
	c6.93,17.95,6.58,39.01,13.52,52.47c5.37,10.34,6.41,11.31,8.84,13.65c5.72,4.68,2.43,12.87,1.56,19.51l-7.45,51.89h-12.48
	l8.14-50.91c2.43-15.41-36.21-15.41-55.97-45.06c-17.33,22.24-64.11,16.58-84.56,13.07c-7.82-3.18-16.55,0.34-20.79,8.39
	c-2.6,5.27-7.1,3.71-9.88,2.93l-37.25-8.97c-4.55-2.27-9.87,0.04-11.89,5.16c-0.16,0.41-0.3,0.84-0.41,1.27l-7.45,17.36
	c-1.96,3.34-1.36,7.8,1.39,10.34l3.64,4.29c-1.77,5.66-4.81,10.7-8.84,14.63l-8.14-10.34c-3.65-5.74-4.06-13.32-1.04-19.51
	l12.13-28.28c1.59-3.98,5.13-6.51,9.01-6.44h46.09l-14.21-25.94c-10.57-19.51,6.93-54.03,4.33-70.42
	c-1.39,21.85-24.78,11.9-28.59,14.82 M575.61,1070.87l21.83-19.51c2.79-3.41,6.81-5.21,10.92-4.88l30.84,4.49
	c1.39,5.89,3.61,11.49,6.58,16.58l-32.75-7.8c-3.71-1.01-7.62,0.16-10.4,3.12l-15.59,13.26c-2.88,2.87-3.46,7.67-1.39,11.31
	l2.6,6.05l-10.92,9.17l-4.16-8.78c-4.16-9.36-4.51-17.95,2.43-23.99"/>
<path class="st0" d="M670.74,404.16c10.54,7.5,21.61,14.03,33.1,19.51v-15.8l-46.61-19.51c0,0,0,6.44,13.52,16.78"/>
<path class="st0" d="M703.84,385.05v-15.8l-52.85-21.26c6.05,6.69,12.66,12.71,19.75,17.95c10.53,7.52,21.6,14.05,33.1,19.51"/>
<path class="st0" d="M703.84,349.15v-15.99l-57.87-23.99c0,0,11.26,10.34,24.78,20.68c10.54,7.5,21.61,14.03,33.1,19.51"/>
<path class="st0" d="M866.54,565.67h59.26c-4.57-13.17-16.47-21.19-28.94-19.51C884.29,545.69,872.56,553.24,866.54,565.67"/>
<path class="st0" d="M804.51,309.36l-57.87,23.99v15.99c11.5-5.45,22.57-11.97,33.1-19.51c13.52-10.34,24.78-20.68,24.78-20.68"/>
<path class="st0" d="M793.25,387.58l-46.61,19.51v15.8c11.48-5.48,22.55-12,33.1-19.51c13.52-10.34,13.52-16.78,13.52-16.78"/>
<path class="st0" d="M799.66,347.98l-51.98,21.26v15.8c11.5-5.44,22.57-11.97,33.1-19.51c7.09-5.23,13.71-11.24,19.75-17.95"/>
<path class="st0" d="M553.61,546.16c-12.48-1.75-24.42,6.29-28.94,19.51h59.26C577.88,553.27,566.17,545.74,553.61,546.16"/>
<path class="st0" d="M842.8,266.65c0-37.45-55.97-71-117.65-71s-117.65,33.55-117.65,71l1.39,9.17l24.6,159.17l-115.92,76.66
	c-16.63,12.23-27.8,31.91-30.67,54.03h21.31c3.13-27.56,24.56-47.77,49.21-46.42c26.86,1.56,42.8,19.51,58.74,46.42l4.16,7.02
	l5.89,10.34H454.67c14.38,27.94,22.81,59.26,24.6,91.48v401.04c0,103.38,70.52,152.54,146.94,152.54c58.91,0,66.88-2.93,99.46,33.55
	c32.4-36.67,40.37-33.55,99.46-33.55c76.24,0,146.76-49.15,146.76-152.54V673.93c1.73-32.21,10.1-63.53,24.43-91.48H824.61
	l5.89-10.34l4.16-7.02c15.77-26.33,31.71-44.67,58.74-46.42c24.7-1.11,45.99,19.38,48.86,47.01h21.31
	c-2.75-22.02-13.72-41.68-30.15-54.03l-116.61-76.46l24.6-159.17L842.8,266.65z M631.41,284.98l86.64,33.36v153.32l-64.11-38.04
	L631.41,284.98z M652.72,610.34c12.81,18.76,31.32,31.53,51.98,35.89c2.17,10.85,7.47,20.6,15.07,27.7
	c-5.67,26.5,8.81,53.15,32.35,59.54c0.19,0.05,0.38,0.1,0.57,0.15c2.48,13.87,11.43,25.14,23.39,29.45l-18.19,23.6
	c-5.68,7.93-14.57,12.05-23.57,10.92l-81.27-10.34c3.47-10.14-5.89-22.04-31.54-16.97l31.88-100.46l-19.58-46.81l-36.91,35.5
	l-2.77,105.53l-15.59-8.78c-20.62-9.95-26.68,31.99-7.1,32.18h7.8c-0.85,4.02,0.6,8.21,3.64,10.53c-3.01,2.09-3.95,6.54-2.09,9.93
	c0.53,0.96,1.24,1.77,2.09,2.36c-3.71,2.25-5.09,7.46-3.09,11.63c0.4,0.83,0.91,1.58,1.53,2.22c-5.04,9.16-2.52,21.18,5.62,26.85
	c1.22,0.85,2.54,1.53,3.91,2.02c11.61,3.51,18.89-10.73,21.31-19.51l126.49,44.08c15.98,6.4,33.81,1.67,45.57-12.09l32.92-32.57
	c-5.25,18.28,2.1,38.14,17.33,46.81c-1.05,9.18-1.52,18.44-1.39,27.7H503.88V673.34c-0.71-21.91-4.88-43.51-12.3-63.78
	L652.72,610.34z M788.74,699.28c-6.93,15.18-6.21,33.36,1.91,47.79l-5.37,6.05c-23.74-3.32-33.1-43.11-33.1-43.11
	c-0.24,3.51-0.24,7.03,0,10.53c-14.41-5.76-23.44-21.89-21.83-39.01c5.4,3.33,11.26,5.64,17.33,6.83l1.56-11.7
	c-14.13-2.08-25.87-13.31-29.98-28.67h-2.25h8.84c9.26,0.02,18.47-1.43,27.38-4.29c7.5,11.4,18.85,18.81,31.36,20.48
	c-1.91,11.78-0.46,23.93,4.16,34.72 M823.4,804.23c-2.48,3.69-4.36,7.85-5.54,12.29l-13.17,13.65c1.11-22.33-7.09-43.97-22.18-58.52
	l14.04-15.6l2.77,3.12c-4.32,19.66,6.34,39.54,23.81,44.4c0.09,0.03,0.18,0.05,0.28,0.08 M760.15,797.59l10.92-11.9
	c15.3,14.3,23.23,36.26,21.14,58.52l-11.78,12.29c-2.26,2.46-4.76,4.62-7.45,6.44c5.36-22.74,0.65-47-12.65-65.15 M736.93,807.93
	L736.93,807.93c4.07,0.58,8.2-0.1,11.96-1.95c10.83,18.71,12.65,42.27,4.85,62.81c-5.52-0.05-11-0.97-16.29-2.73l-4.16-1.37
	c7.19-17.84,8.36-38.02,3.29-56.76 M709.04,804.03l15.42,2.15c2.79,18.17,0.24,36.87-7.28,53.25l-17.33-5.85
	c7.87-14.99,11.33-32.4,9.88-49.74 M677.15,799.74l18.54,2.54c1.4,16.48-1.62,33.06-8.66,47.59l-18.89-6.24
	C675.43,830.55,678.61,815.09,677.15,799.74 M601.78,794.08c-4.21,2.32-9.3,0.35-11.35-4.4c-0.75-1.72-1.02-3.66-0.77-5.55
	c9.29-5.61,20.54-5.16,29.46,1.17c4.51,3.32,8.32,12.48,14.55,18.14c-1.2,9.08-3.12,18.02-5.72,26.72
	c-9.56-0.56-16.9-9.73-16.4-20.49c0.21-4.58,1.85-8.92,4.62-12.28c-3.46-4.98-9.59-6.46-14.55-3.51 M589.48,832.9
	c3.77,1.69,7.74,2.74,11.78,3.12c-0.32,4.19-3.59,7.29-7.31,6.93c-0.22-0.02-0.44-0.05-0.66-0.1c-3.37-1.23-5.21-5.31-4.11-9.1
	C589.26,833.46,589.36,833.18,589.48,832.9 M572.15,776.92c-2.4-1.35-3.37-4.63-2.17-7.33c0.86-1.94,2.67-3.12,4.59-3.01
	c5.2,0,12.13,6.83,19.06,10.14c-7.11,1.31-14.37,1.31-21.49,0 M589.48,817.49c3.64,4.1,14.9,2.54,14.9,2.54v2.54
	c-4.85,7.41-18.54,4.1-15.42-5.07 M604.03,809.1c-8.14,3.71-16.29-1.37-13.69-7.22c3.64,3.9,14.21,1.95,14.21,1.95L604.03,809.1z
	 M615.81,703.77l-15.42,63.2l5.2-102.02l23.91-23.02l12.13,30.04l-30.67,99.09l8.14-66.71c0-4.68-2.6-5.27-3.29,0 M618.24,780.23
	c7.35-0.55,14.73-0.15,22.01,1.17c3.64,1.76,1.21,8.39-3.47,7.8C630.34,786.94,624.13,783.94,618.24,780.23 M645.1,795.64
	l18.71,2.54c1.18,14.08-1.48,28.23-7.62,40.57l-17.33-5.85c4.19-12.51,6.64-25.66,7.28-39.01 M947.81,1074.38
	c1.7,44.05-19,85.35-53.37,106.5l11.96-27.31h-11.61l-15.25,35.11c-17.24,7.17-35.51,10.74-53.89,10.53
	c-60.82,0-76.93,2.73-99.46,28.09c-22.7-25.16-38.64-28.09-99.46-28.09c-18.31,0.2-36.5-3.31-53.71-10.34l0,0l15.25-35.11h-11.78
	l-13.52,30.82c-3.12-1.76-6.24-3.51-9.36-5.46l11.09-25.16h-11.44l-8.32,19.51c-27.11-22.96-42.57-59.36-41.41-97.53v-153.9h443.23
	L947.81,1074.38z M960.11,609.17c-7.56,20.24-11.78,41.85-12.48,63.78v234.07h-24.26c-9.46-15.79-16.33-33.36-20.27-51.89
	c-4.17,17.68-1.53,36.52,7.28,51.89h-31.19c-6.92-16.93-11.76-34.85-14.38-53.25c-9.36,11.9-3.47,44.28,2.43,53.25h-20.62
	c-0.56-11.67,0.43-23.38,2.95-34.72c-10.74-2.34-22.35-8.78-22.35-22.24c3.83,4.8,9.63,6.96,15.25,5.66l8.84-7.8
	c-29.28,0.98-30.5-34.92-7.45-51.89c-23.05,0-40.37-14.63-31.88-42.33c-16.11-11.63-20.8-35.76-10.47-53.9
	c0.14-0.24,0.28-0.48,0.42-0.72c-8.77-13.37-10.55-30.98-4.68-46.23c-11.93,0.14-23.43-4.97-32.06-14.24h-1.91
	c13.77-6.26,25.76-16.65,34.65-30.04L960.11,609.17z M871.91,496.42c-24.09,4.68-44.7,37.84-61.69,67.69l-1.91,3.51h-17.33v3.51
	c-1.91,23.02-21.31,54.23-64.11,54.23c-16.17,0.59-32.02-5.13-44.88-16.19c-8.08-7.11-14.1-16.74-17.33-27.7
	c-0.97-3.36-1.61-6.82-1.91-10.34v-3.51h-17.33l-4.33-1.95c-17.33-29.84-37.6-62.81-61.51-67.69l65.32-42.72l80.57,48.76
	l80.23-49.15L871.91,496.42z M796.88,432.44l-64.11,38.04V318.34l86.64-33.36L796.88,432.44z M725.5,301.37l-95.3-42.13
	c7.97-21.46,45.4-39.01,95.13-39.01c49.73,0,86.64,18.34,95.13,39.01L725.5,301.37z"/>
<path class="st0" d="M936.72,760.73v-11.7c-31.88,0-39.33-43.3-39.33-43.3c-5.78,23.01,6.11,46.94,26.55,53.45
	C928.09,760.5,932.41,761.02,936.72,760.73"/>
<path class="st0" d="M896.34,833.68l-3.29-11.12c-27.2,7.8-41.24-40.77-41.24-40.77c-5.84,21.87,5.18,44.93,24.61,51.5
	C882.91,835.49,889.8,835.62,896.34,833.68"/>
<path class="st0" d="M916.1,788.43c-32.58,5.85-45.92-36.87-45.92-36.87c-4,22.5,8.95,44.39,28.94,48.9
	c0.8,0.18,1.61,0.33,2.42,0.45c-3.47,17.34,6.2,34.56,21.61,38.47c6.91,1.75,14.15,0.56,20.33-3.36l-3.12-10.53
	c-10.9,4.7-23.13-1.44-27.3-13.72c-2.68-7.87-1.45-16.75,3.21-23.34"/>
<path class="st0" d="M895.82,666.52v-11.7c-42.97-9.95-39.33-43.3-39.33-43.3c-5.77,23.02,6.12,46.94,26.56,53.44
	c4.09,1.3,8.35,1.83,12.6,1.56"/>
<polygon class="st0" points="623.09,1154.75 607.67,1189.86 619.28,1189.86 634.7,1154.75 "/>
<polygon class="st0" points="646.31,1154.75 630.89,1189.86 642.67,1189.86 657.92,1154.75 "/>
<polygon class="st0" points="739.53,1154.75 724.11,1189.86 735.72,1189.86 751.14,1154.75 "/>
<polygon class="st0" points="762.92,1154.75 747.5,1189.86 759.11,1189.86 774.36,1154.75 "/>
<polygon class="st0" points="716.31,1154.75 700.89,1189.86 712.5,1189.86 727.92,1154.75 "/>
<polygon class="st0" points="852.33,1189.86 863.94,1189.86 879.36,1154.75 867.75,1154.75 "/>
<polygon class="st0" points="669.7,1154.75 654.28,1189.86 665.89,1189.86 681.31,1154.75 "/>
<polygon class="st0" points="692.92,1154.75 677.5,1189.86 689.28,1189.86 704.53,1154.75 "/>
<path class="st0" d="M640.25,965.54c-2.64-0.54-5.16,1.43-5.64,4.4c-0.48,2.97,1.27,5.81,3.91,6.35s5.16-1.43,5.64-4.4
	c0.05-0.29,0.07-0.59,0.08-0.89C644.43,968.27,642.67,965.85,640.25,965.54"/>
<path class="st0" d="M725.5,171.85c38.34-1.17,75.95,11.85,107.08,37.06c4.89-28.38,14.28-55.54,27.72-80.17l-38.47,4.88
	l-20.1-48.18l-38.64,22.63l-37.6-41.94l-37.43,41.94l-38.99-22.63l-20.27,48.18l-38.29-4.88c13.48,24.61,22.87,51.78,27.72,80.17
	C649.42,183.65,687.1,170.63,725.5,171.85 M635.74,152.34l18.37-43.69l34.65,19.51l36.73-40.57l37.6,41.74l34.65-19.51l17.33,43.69
	l22.53-3.9c-5.88,12.03-10.65,24.71-14.21,37.84c-60.95-38.31-135.19-38.31-196.15,0c-3.55-13.14-8.31-25.82-14.21-37.84
	L635.74,152.34z"/>
<path class="st0" d="M764.66,85.63c5.62,0.56,10.59-4.12,11.08-10.45c0-0.03,0-0.05,0.01-0.08c-1.34-8.11-3.92-15.9-7.62-23.02
	c0,0-12.3,14.82-12.65,21.07c-0.4,6.22,3.67,11.67,9.18,12.29"/>
<path class="st0" d="M827.55,111.38c4.98,2.86,11.08,0.69,13.69-4.88c1.54-8.01,1.84-16.26,0.87-24.38c0,0-16.29,8.19-18.89,13.85
	C820.78,101.58,822.69,108.37,827.55,111.38"/>
<path class="st0" d="M685.99,85.63c5.58-0.52,9.76-6,9.36-12.29c0-6.44-12.65-21.07-12.65-21.07c-3.69,7.13-6.27,14.91-7.62,23.02
	c0.46,6.28,5.33,10.98,10.92,10.53"/>
<path class="st0" d="M622.92,111.38c4.88-3.01,6.73-9.85,4.16-15.41c-2.6-5.66-18.89-13.85-18.89-13.85
	c-0.92,8.13-0.57,16.38,1.04,24.38c2.51,5.57,8.55,7.81,13.51,4.98C622.8,111.45,622.86,111.41,622.92,111.38"/>
<path class="st0" d="M1379.08,501.5c13.13-6.36,23.52-18.27,28.94-33.16c-34.65-5.66-124.93-48.37-199.61-13.46
	c27.9-29.84,53.02-33.75,55.45-76.66c10.9,11.48,28,10.85,38.21-1.42c1.6-1.92,2.97-4.07,4.07-6.38c-7.62-25.55-27.2-4.88-29.8-11.9
	s24.43,3.12,30.67-30.23c-22.01-8.58-28.59,11.7-32.58,7.02s14.04-13.07,1.04-39.01c-22.87,15.02-10.92,32.18-15.77,33.94
	s-1.21-18.14-26.68-17.17c-2.43,30.62,23.91,31.6,19.41,36.48s-11.96-17.56-31.19-5.66c-1.09,17.52,10.65,32.71,26.21,33.93
	c3.5,0.27,7.01-0.19,10.35-1.36c-2.95,47.01-41.24,39.01-69.31,91.29c60.47,34.92,87.68,95.77,124.93,137.71
	c13.19-16.03,24.39-34.01,33.27-53.45c19.03,21.55,49.96,21.65,69.1,0.23c0.07-0.08,0.14-0.16,0.21-0.23
	c-13.86-15.99-14.38-28.09-35.52-49.93 M1321.9,510.66c9.13,24.46,6.38,52.5-7.28,74.12c-17.94-43.78-44.7-82.24-78.15-112.35
	c-5.54-3.9,2.95-11.12,18.37-13.26c46.61-9.95,101.02,12.29,127.01,19.51c-9.92,9.08-21.95,14.76-34.65,16.38
	c16.16,14.11,30.4,30.8,42.28,49.54c-18.37,5.07-28.59-7.8-67.92-34.53"/>
<path class="st0" d="M932.38,1294.21v-57.35c-49.04,24.38-101.44,39.1-154.91,43.5l-2.95,20.48c5.54,0,12.48,1.56,21.66,2.34
	c-47.6,7.36-95.87,7.36-143.47,0c9.18,0,16.11-1.37,21.66-2.34l-2.95-20.48c-53.12-4.5-105.16-19.21-153.87-43.5v57.35l-51.98,24.77
	c44.11,25,90.62,44.24,138.62,57.35l-6.24,23.99c84.3,26.73,173.53,26.73,257.83,0l-6.24-23.99c48-13.11,94.5-32.35,138.62-57.35
	L932.38,1294.21z M493.31,1320.35l36.04-16.38v-46.81c31.6,13.1,64.11,23.21,97.21,30.23l-20.45,75.1
	c-38.76-9.91-76.55-24.15-112.8-42.52 M725.5,1406.76c-38.61-0.27-77.06-5.71-114.53-16.19l21.66-78.02
	c61.43,11.57,124.14,11.57,185.58,0l21.66,78.02c-37.48,10.46-75.92,15.9-114.53,16.19 M844.53,1362.87l-20.62-75.49
	c33.1-7.15,65.62-17.39,97.21-30.62v46.81l36.04,16.38c-36.23,18.42-74.02,32.67-112.8,42.52"/>
<path class="st0" d="M104.48,551.24c8.89,19.43,20.09,37.4,33.27,53.45c37.25-41.94,64.63-102.8,124.93-137.71
	c-28.59-52.86-66.88-44.08-69.31-91.29c15.06,4.99,30.85-4.71,35.28-21.66c0.92-3.54,1.3-7.23,1.11-10.91
	c-19.23-11.9-25.99,11.7-31.19,5.66c-5.2-6.05,22.01-5.85,19.41-36.48c-25.3,0-20.62,19.51-26.68,17.17s7.1-19.51-15.77-33.94
	c-13,26.92,4.68,35.31,1.04,39.01c-3.64,3.71-10.57-15.6-32.58-7.02c5.89,33.16,34.65,19.51,30.5,30.23
	c-4.16,10.73-22.18-13.65-29.8,11.9c6.98,14.74,23.24,20.32,36.33,12.46c2.1-1.26,4.04-2.83,5.77-4.66
	c2.43,43.11,27.55,46.62,55.45,76.66c-74.68-34.92-165.48,8-199.61,13.46c5.44,14.83,15.83,26.67,28.94,32.96
	c-21.14,22.04-21.66,34.14-34.65,49.93c0,0,28.24,34.92,69.31,0 M63.94,543.82c11.87-18.81,26.18-35.51,42.45-49.54
	c-12.71-1.72-24.73-7.47-34.65-16.58c25.99-7.8,80.57-29.84,127.01-19.51c15.25,2.34,23.91,9.36,18.37,13.26
	c-33.52,30.08-60.33,68.55-78.32,112.35c-13.63-21.64-16.38-49.66-7.28-74.12c-39.33,26.72-49.56,39.01-67.92,34.53"/>
<path class="st0" d="M692.57,519.25v25.36c6.09-6.44,14.4-9.51,22.7-8.39v36.48c-0.1,9.02-2.18,17.86-6.06,25.75h32.4
	c-3.94-7.87-6.08-16.72-6.24-25.75v-36.67c8.3-1.15,16.62,1.93,22.7,8.39v-25.36h-65.5V519.25z"/>
<path class="st1" d="M1434.01,529.97c-3.63-4.41-6.83-9.25-9.53-14.43l-5.54-9.36c5.77-7.55,10.5-16.03,14.04-25.16l14.55-37.06
	l-35.52-5.85c-6.06-0.98-15.77-3.9-27.03-7.22c-26.34-8.43-53.22-14.56-80.4-18.34c10.89-5.58,19.84-15.04,25.47-26.92l5.89-11.9
	c0,0-1.56-16.58-7.28-21.85c2.28-5.41,3.96-11.11,5.02-16.97l4.85-26.53l-22.7-8.78c-3.44-1.32-6.98-2.3-10.57-2.93
	c-1.43-5.34-3.35-10.51-5.72-15.41l-13.86-27.7l-24.43,15.99c-5.66,3.66-10.8,8.27-15.25,13.65c-3.83-0.79-7.72-1.18-11.61-1.17
	c-9.93-0.8-19.9,0.72-29.28,4.49l-19.58-22.82l-23.22-27.89c-20.26-26.06-53.05-34.62-81.44-21.26
	c-15.38-16.37-36.05-24.9-57.18-23.6c-7.54,0.07-15.07,0.72-22.53,1.95c-21.8,4.66-42.26,15.24-59.61,30.82l-25.99-14.04
	c-11.36,19.07-27.99,33.39-47.3,40.77c-2.06-9.07-5.65-17.61-10.57-25.16l1.73-10.92c4.25-24.29,12.28-47.53,23.74-68.66
	l31.02-54.42l-44.01,6.24c0.33-5.85,0.33-11.71,0-17.56l-3.99-42.33L831.54,55.2c-3.81,1.95-7.1,3.9-10.05,5.66l-6.76-16.38
	l-15.77,9.17c-1.87-5.14-4.01-10.16-6.41-15.02L773.84,0l-25.82,31.4c-2.6,3.32-4.85,6.24-6.93,8.97l-15.77-17.56l-15.77,17.75
	c-1.91-2.93-4.16-5.85-6.76-8.97L676.81,0l-18.37,37.84c-2.38,4.87-4.52,9.88-6.41,15.02l-15.77-9.17l-6.93,16.38l-10.05-5.66
	l-34.65-17.56l-3.81,42.52c-0.33,5.85-0.33,11.71,0,17.56l-44.18-5.66l31.19,54.42c11.38,21.2,19.31,44.52,23.39,68.86l1.56,10.92
	c-4.93,7.61-8.52,16.22-10.57,25.36c-18.31-9.54-34.48-23.61-47.3-41.16l-26.68,14.24c-23.3-20.97-52.13-32.63-81.96-33.16
	c-21.03-1.49-41.63,7.16-56.66,23.8c-28.25-13.21-60.84-4.75-81.09,21.07c0,0-13.52,17.95-23.22,27.7
	c-6.75,7.46-14.25,14.01-22.35,19.51c-12.64-2.87-25.66-2.87-38.29,0c-4.77-5.48-10.26-10.08-16.29-13.65l-23.57-15.6l-13.52,28.09
	c-2.38,4.83-4.3,9.93-5.72,15.21c-3.59,0.63-7.13,1.61-10.57,2.93l-22.53,8.78l4.68,26.33c1.01,5.94,2.7,11.71,5.02,17.17
	c-1.36,2.89-2.52,5.89-3.47,8.97l-3.81,12.87l5.89,11.9c5.58,11.97,14.54,21.51,25.47,27.11c-27.18,3.77-54.06,9.9-80.4,18.34
	c-11.26,3.32-20.97,6.24-27.03,7.22l-35.69,5.85l8.14,20.68l6.58,16.38c3.69,9.35,8.59,18.03,14.56,25.75
	c-4.65,8.22-9.68,16.17-15.07,23.8L0,551.63l17.33,21.46c13.95,16.11,33.03,25.31,53.02,25.55c8.74-0.02,17.42-1.74,25.64-5.07
	c7.21,14,16.47,26.52,27.38,37.06c-17.08,23.56-38.55,42.61-62.9,55.79l-22.7,12.09l9.7,29.06c6.99,21.59,22.8,38.07,42.45,44.28
	c-4.77,15.44-8.42,31.29-10.92,47.4c-5.2,34.53-7.28,48.76-34.65,58.52l-24.26,9.56l6.93,27.7c3.51,18.15,11.36,34.88,22.7,48.37
	L33.62,982.9c22.35,18.47,48.22,30.82,75.55,36.09c17.17,1.64,34.15-4.95,46.78-18.14c6.02,22.16,13.73,43.7,23.05,64.37
	c17.33,39.99,25.99,63.78,14.55,85.44l-25.47,48.76l50.25-2.34c20.49-0.13,40.92-2.55,60.99-7.22c0.06,1.04,0.06,2.08,0,3.12
	l-4.33,42.13l44.01-10.53c4.51-1.51,8.86-3.53,13-6.05c34.81,42.86,84.64,66.27,136.19,63.98h3.64l-71.91,33.16l51.98,30.62
	c37.16,21.42,76.1,38.67,116.27,51.5l-6.06,23.6l26.34,8.58c89.33,28.49,183.93,28.49,273.25,0l26.16-8.58l-6.41-23.6
	c40.41-12.91,79.59-30.29,116.96-51.89l51.98-30.62l-71.91-33.16h3.64c51.5,2.26,101.26-21.15,136.02-63.98
	c4.15,2.49,8.5,4.51,13,6.05l44.01,10.53l-3.99-41.94c0-0.98,0-1.95,0-3.12c19.72,4.65,39.8,7.13,59.95,7.41l50.25,2.34l-25.3-48.57
	c-11.44-21.65-2.25-45.45,14.55-85.44c9.33-20.66,17.04-42.2,23.05-64.37c9.02,7.71,19.43,13.11,30.5,15.8
	c5.14,1.64,10.43,2.63,15.77,2.93c17.51,0.87,34.75-5.2,48.69-17.17l27.72-19.51l-16.29-19.51c11.24-13.02,19.19-29.18,23.05-46.81
	l6.93-27.89l-24.26-9.56c-27.03-10.73-29.11-24.97-34.65-58.52c-2.07-16.27-5.31-32.31-9.7-47.98
	c19.66-6.21,35.46-22.69,42.45-44.28l9.7-29.06l-22.7-12.09c-24.35-13.18-45.82-32.22-62.9-55.79
	c10.95-10.54,20.27-23.07,27.55-37.06c8.17,3.31,16.79,5.03,25.47,5.07l0,0c19.99-0.22,39.08-9.42,53.02-25.55l17.33-21.46
	L1434.01,529.97z"/>
<path class="st2" d="M503.71,908.39V674.32c-0.71-21.85-4.88-43.38-12.3-63.59h161.32c33.32,45.03,92.75,51.13,132.75,13.62
	c4.39-4.12,8.44-8.68,12.1-13.62h161.49c-7.49,20.18-11.66,41.73-12.3,63.59v234.07H503.71z M725.5,1228.87
	c-22.53-25.36-38.64-28.09-99.46-28.09c-72.6,0-121.29-47.98-121.29-124.64v-154.1h443.06v153.51
	c0,76.66-49.21,124.64-121.29,124.64c-60.82,0-76.93,2.73-99.46,28.09"/>
<path class="st1" d="M529.35,1257.35v46.81l-36.04,16.38c36.24,18.39,74.03,32.64,112.8,42.52l20.45-75.68
	c-33.09-7.18-65.61-17.43-97.21-30.62"/>
<path class="st1" d="M725.5,1320.55c-31.14,0.44-62.24-2.5-92.87-8.78l-21.66,78.02c75.09,21.66,153.81,21.66,228.89,0l-21.66-78.02
	C787.62,1318.03,756.58,1320.97,725.5,1320.55"/>
<path class="st1" d="M921.12,1257.35c-31.61,13-64.13,23.05-97.21,30.04l20.45,74.9c38.72-9.87,76.45-24.11,112.63-42.52
	l-36.04-16.38L921.12,1257.35z"/>
<path class="st1" d="M453.98,503.06c56.49-34.92,194.41-109.82,100.85-190.96c-12.82-11.12-26.86-21.07-38.64-33.36
	c-14.55,12.68,5.54,44.08,10.57,55.59c0,0-31.19,3.51-38.64,3.51c-48.17,0-98.59-32.38-72.95-93.82
	c-19.23,4.49-21.49,25.16-27.38,42.91c-12.3-9.36-33.62-29.45-50.08-26.53c13.34,48.18,69.31,91.48,113.32,101.24
	c-44.18,27.11-125.97,47.2-168.94-11.12c-30.15,65.73,11.96,93.24,53.02,127.76C178.13,558.84,201.17,649.35,98.25,720.74
	c13.34,7.02,72.95-7.02,78.32-8c-15.21,19.11-28.67,39.89-40.2,62.03c-7.45,21.87-12.57,44.65-15.25,67.88
	c-2.8,32.12-19.54,60.61-44.7,76.07c12.13,24.77,38.99,5.46,50.25,2.15c-2.92,16.42-8.13,32.22-15.42,46.81
	c52.85-3.9,28.42-129.52,81.44-99.28c14.47,8.14,20.34,27.94,13.11,44.22c-0.04,0.08-0.07,0.17-0.11,0.25
	c-34.65,80.75,44.18,151.95,40.03,222.76c19.41,0,39.51,0,51.98-30.23c8.75,17.79,16.28,36.31,22.53,55.4l15.77-30.23
	c12.38,56.48,56.01,97.3,107.6,100.65c-26.86-47.79,5.37-112.94-59.78-182.18c11.97-9.31,23.22-19.75,33.62-31.21
	c-79.88,10.53-163.4-60.66-125.45-94.41c24.78-22.04,35.52,23.8,73.81,15.99l-14.9-14.43c5.2-5.85,11.26-13.46,17.33-19.51
	c-12.18-2.31-23.91-7-34.65-13.85l9.7-17.95c-93.57,0-95.99-80.75-58.05-83.88c17.33-1.56,40.89,35.5,98.59,27.89
	c-6.41-11.12-11.1-23.39-13.86-36.28c14.83,0.04,29.55-2.87,43.49-8.58c-28.07-4.1-34.65-14.63-58.74-34.72l27.2-11.31
	c-37.6-22.04-35.69-60.86-37.6-101.04c20.62,13.46,44.88,34.14,70.87,24.38c6.24-2.34,10.05-5.46,10.22-12.68
	c-37.08-16.38-60.65-80.56,27.9-134.4 M385.71,509.3c-49.38,59.49-28.07,95.19-17.33,106.11c-18.37-4.49-45.92-30.82-39.68-56.37
	c-5.89,8-11.78,16.38-17.33,25.36c-12.3,18.34-23.22,36.48-32.92,54.03c-14.9,50.13,12.48,102.02,59.26,125.03
	c-41.9-6.74-73.54-46.22-75.2-93.82c-22.34,42.97-34.56,91.64-35.52,141.42c0.45,14.17,1.6,28.3,3.47,42.33
	c11.96,25.55,31.19,34.92,65.32,39.01c-31.02,2.15-47.48,0-60.99-15.41c21.14,102.21,119.91,190.96,160.28,266.84
	c-40.2-58.52-123.72-146.68-153-210.27c-2.12,41.48,7.92,82.6,28.59,117.04c-37.43-41.35-40.2-103.97-37.77-140.64
	c-10.18-28.49-15.7-58.83-16.29-89.53c-0.9-27.38,0.9-54.79,5.37-81.73c-23.57,37.84-57.7,52.28-74.51,109.82
	c3.29-74.12,51.98-75.29,89.24-165.41c15.84-39.45,35.24-76.96,57.87-111.96c-33.09,9.41-62.69,30.37-84.56,59.88
	c23.91-63.78,162.18-135.37,225.26-204.62c-19.06,4.49-96.69,6.83-128.92-17.56c58.39,17.75,188.52-2.54,237.56-40.38
	c-34.65,54.81-107.6,58.52-197.53,167.17c12.68-10.85,26.33-20.2,40.72-27.89"/>
<path class="st1" d="M1328.66,842.65c-2.68-23.23-7.79-46.01-15.25-67.88c-11.23-22.28-24.47-43.2-39.51-62.42
	c5.37,0,64.98,15.02,78.32,8c-103.1-71.2-79.88-161.7-236.86-242.46c41.24-34.53,83.34-62.03,53.2-127.76
	c-42.97,58.52-124.93,39.01-168.94,11.12c43.66-9.75,99.81-53.25,113.32-101.24c-17.33-2.93-37.77,17.17-50.08,26.53
	c-5.89-17.75-8.14-39.01-27.2-42.91c25.64,61.64-24.95,93.63-73.12,93.82c-7.45,0-38.47-3.51-38.47-3.51
	c5.02-11.51,25.12-42.91,10.4-55.59c-11.78,12.48-25.64,22.43-38.47,33.36c-93.57,81.53,44.53,157.02,101.02,191.35
	c88.54,53.84,64.98,117.04,27.9,134.4c0,7.22,4.16,10.34,10.22,12.68c25.82,9.75,50.08-11.12,70.7-24.38
	c-1.21,40.18,1.21,78.02-38.12,101.04l27.2,11.31c-23.39,19.51-30.5,30.62-58.57,34.72c13.94,5.7,28.66,8.61,43.49,8.58
	c-2.84,12.86-7.53,25.11-13.86,36.28c57.7,7.8,80.92-29.26,98.59-27.89c37.95,3.12,35.69,83.88-58.05,83.88l9.7,17.95
	c-10.74,6.86-22.47,11.55-34.65,13.85c6.24,5.66,12.3,13.26,17.33,19.51L1084,939.4c38.12,7.8,49.04-39.01,73.81-15.99
	c37.77,33.75-45.57,104.94-125.45,94.41c10.4,11.45,21.65,21.89,33.62,31.21c-65.15,69.25-33.1,134.59-59.78,182.38
	c51.58-3.56,95.14-44.39,107.6-100.85l15.77,30.23c6.28-19.07,13.81-37.59,22.53-55.4c12.65,29.65,32.92,30.23,51.98,30.23
	c-4.33-70.81,74.51-142,39.85-222.76c-7.47-16.15-1.89-36.06,12.45-44.46c0.01,0,0.01-0.01,0.02-0.01
	c53.02-30.23,28.42,95.38,81.44,99.28c-7.36-14.56-12.57-30.37-15.42-46.81c11.26,3.32,38.12,22.63,50.25-2.15
	c-25.06-15.6-41.76-44.01-44.7-76.07 M1228.86,740.05c4.52,26.93,6.32,54.35,5.37,81.73c-0.64,30.7-6.16,61.02-16.29,89.53
	c2.43,36.67,0,99.28-37.77,140.64c20.62-34.46,30.66-75.56,28.59-117.04c-29.28,63.59-112.63,151.37-153,210.27
	c40.37-75.88,138.62-164.43,160.28-266.84c-13.69,15.99-29.98,17.56-60.99,15.41c34.65-4.68,53.2-14.04,65.15-39.01
	c1.88-14.02,3.03-28.16,3.47-42.33c-1.01-49.79-13.3-98.47-35.69-141.42c-1.67,47.61-33.3,87.08-75.2,93.82
	c46.61-23.02,74.16-74.9,59.26-125.03c-9.7-17.56-20.62-35.5-32.92-54.03c-6.06-8.78-12.13-17.36-17.33-25.36
	c6.24,25.55-21.14,51.89-39.68,56.37c10.05-10.92,31.36-46.62-17.33-106.11c14.4,7.67,28.05,17.02,40.72,27.89
	c-89.76-109.23-163.57-112.16-197.53-167.17c49.21,37.84,179.16,58.52,237.56,40.38c-32.23,24.19-110.03,22.04-128.92,17.56
	c63.24,69.25,201.86,141.03,225.26,204.62c-21.86-29.51-51.46-50.47-84.56-59.88c22.66,34.98,42.05,72.5,57.87,111.96
	c36.91,89.92,86.64,91.09,89.41,165.41c-17.33-58.52-50.94-72.17-74.51-109.82"/>
<path class="st1" d="M797.75,610.53c-17.29,25.19-44.16,39.66-72.43,39.01c-6.92-0.02-13.83-0.81-20.62-2.34
	c2.09,10.84,7.41,20.54,15.07,27.5c-5.67,26.5,8.81,53.15,32.35,59.54c0.19,0.05,0.38,0.1,0.57,0.15
	c2.48,13.87,11.43,25.14,23.39,29.45l-17.33,23.6c-5.74,7.84-14.58,11.94-23.57,10.92l-81.27-10.34
	c3.47-10.14-5.89-21.85-31.54-16.78l31.88-100.65l-20.27-46.42l-36.91,35.5l-2.77,105.53l-15.94-8.78
	c-20.45-9.95-26.51,31.99-6.93,32.18h7.8c-0.89,4.13,0.64,8.43,3.81,10.73c-3.01,1.88-4.11,6.15-2.44,9.54
	c0.57,1.15,1.41,2.11,2.44,2.74c-3.73,2.43-4.99,7.8-2.84,12c0.35,0.68,0.78,1.3,1.28,1.85c-5.04,9.16-2.52,21.18,5.62,26.85
	c1.22,0.85,2.54,1.53,3.91,2.02c11.78,3.51,19.06-10.73,21.49-19.51l126.49,44.08c15.98,6.4,33.81,1.67,45.57-12.09l32.92-32.57
	c-5.25,18.28,2.1,38.14,17.33,46.81c-1.14,9.11-1.6,18.31-1.39,27.5h113.84V674.51c0.63-21.93,4.8-43.54,12.3-63.78H798.1
	L797.75,610.53z"/>
<path class="st1" d="M608.36,1004.55l2.43,3.51c3.47,4.68,5.37,3.71,9.36,1.17l5.72-3.51c3.64-3.12,27.2,7.02,28.42-15.02
	c2.6,16.38-14.73,51.11-4.33,70.42l14.04,26.14h-46.09c-3.92-0.04-7.47,2.58-9.01,6.63l-12.13,28.09
	c-2.78,6.24-2.38,13.68,1.04,19.51l8.14,10.34c4.02-4.01,7.06-9.12,8.84-14.82l-3.64-4.1c-2.75-2.54-3.35-7-1.39-10.34l7.45-17.36
	c1.31-5.41,6.26-8.6,11.06-7.12c0.42,0.13,0.84,0.29,1.24,0.49l37.25,8.97c2.77,0,7.1,2.34,9.88-2.93
	c4.24-8.05,12.97-11.57,20.79-8.39c20.45,3.51,67.75,8.97,84.56-13.26c19.75,29.65,58.39,29.65,55.97,45.06l-8.49,52.47h12.3
	l7.45-51.89c0-6.05,4.16-14.43-1.73-19.51c-2.43-2.15-3.47-3.12-8.84-13.65c-7.1-13.85-6.58-34.53-13.52-52.47
	c4.24-7.22,11.78-11.09,19.41-9.95c13.69,3.71,17.33,30.23,36.73,51.89c-1.43-10.1-4.05-19.94-7.8-29.26
	c7.69,6.55,13.67,15.31,17.33,25.36c0.84,8.13,5,15.35,11.26,19.51c4.51,1.95,10.05,0,15.42-8c0,0-12.82-19.51-22.18-33.75
	c-11.3-21.04-31.36-34.14-53.2-34.72c-7.55,1.21-14.76,4.27-21.14,8.97c-26.51-16.78-47.13,0-55.27,0l-49.56-3.32
	c-7.1-1.81-13.31-6.63-17.33-13.46c0.82-31.87-18.85-59.78-46.61-66.12c0,0,1.04-8.58-1.91-11.51l-10.4,14.63l-28.76-11.9
	l22.53,20.87l-24.43,32.57c-2.06,2.43-2.41,6.11-0.87,8.97"/>
<path class="st1" d="M575.79,1070.87c-6.93,6.05-6.58,14.43-2.43,23.99l4.16,8.78l10.92-9.36l-2.43-6.05
	c-2.08-3.64-1.49-8.44,1.39-11.31l15.59-13.26c2.74-3.02,6.68-4.21,10.4-3.12l32.75,7.8c-2.96-5.03-5.18-10.56-6.58-16.38
	l-30.84-4.49c-4.08-0.35-8.08,1.36-10.92,4.68L575.79,1070.87z"/>
<path class="st1" d="M785.62,1180.49h12.3l19.93-55.2c0.72-1.49,1.54-2.92,2.43-4.29c-7.5-3.21-14.74-7.13-21.66-11.7
	c5.02,7.61,8.84,10.73,6.76,17.75L785.62,1180.49z"/>
<path class="st1" d="M796.02,434.01l22.87-148.63l-86.64,33.36v153.32L796.02,434.01z M746.64,333.75l57.87-23.99
	c0,0-11.26,10.34-24.6,20.68c-10.53,7.52-21.6,14.05-33.1,19.51L746.64,333.75z M746.64,369.64l51.98-21.26
	c-6.06,6.68-12.68,12.69-19.75,17.95c-10.55,7.49-21.62,14.02-33.1,19.51L746.64,369.64z M746.64,408.65l46.44-19.51
	c0,0,0,6.44-13.34,16.58c-10.54,7.52-21.61,14.04-33.1,19.51V408.65z"/>
<path class="st1" d="M641.11,565.67l1.91,3.51h17.33v3.51c0.28,3.52,0.92,6.99,1.91,10.34c3.28,10.92,9.3,20.54,17.33,27.7
	c12.82,11.13,28.7,16.86,44.88,16.19c42.8,0,62.21-31.21,64.11-54.23v-3.51h17.33l1.91-3.51c17.33-29.84,37.6-62.81,61.51-67.69
	l-65.5-42.72l-78.32,48.96l-80.23-49.15l-65.32,42.72c23.91,4.68,44.53,37.84,61.51,67.69"/>
<path class="st1" d="M718.57,471.85V318.53l-86.64-33.36l22.87,148.63L718.57,471.85z M704.01,423.67
	c-11.49-5.48-22.55-12-33.1-19.51c-13.52-10.34-13.52-16.78-13.52-16.78l46.61,19.51V423.67z M704.01,333.55v15.8
	c-11.49-5.46-22.56-11.98-33.1-19.51c-13.52-10.34-24.78-20.68-24.78-20.68L704.01,333.55z M704.01,369.44v15.8
	c-11.49-5.47-22.56-12-33.1-19.51c-7.09-5.24-13.7-11.26-19.75-17.95L704.01,369.44z"/>
<path class="st1" d="M725.5,219.64c-49.73,0-86.64,18.34-95.13,39.01l95.13,43.11l94.95-42.33c-8.14-21.46-45.22-39.01-94.95-39.01"
	/>
<path class="st1" d="M725.5,158.39c34.31,0.13,68.04,9.99,98.07,28.67c3.52-13.15,8.28-25.84,14.21-37.84l-22.53,3.9l-17.33-43.69
	l-34.65,19.51L725.5,87.97l-37.43,41.74l-34.65-19.51l-17.85,42.91l-22.53-3.9c5.91,12.02,10.67,24.7,14.21,37.84
	C657.33,168.34,691.13,158.48,725.5,158.39"/>
<path class="st1" d="M1345.82,495.25c12.71-1.72,24.73-7.47,34.65-16.58c-25.99-7.8-80.4-29.84-126.84-19.51
	c-15.42,2.34-23.91,9.36-18.37,13.26c33.31,30.27,59.89,68.88,77.63,112.74c13.63-21.64,16.38-49.66,7.28-74.12
	c39.33,26.72,49.56,39.01,67.75,34.53c-11.83-18.79-26.08-35.49-42.28-49.54"/>
<path class="st1" d="M137.58,585.18c17.97-43.81,44.79-82.29,78.32-112.35c5.54-3.9-3.12-10.92-18.37-13.26
	c-46.44-9.95-101.02,12.29-127.01,19.51c9.93,9.09,21.95,14.84,34.65,16.58c-16.21,14.05-30.46,30.75-42.28,49.54
	c18.37,5.07,28.59-7.8,67.75-34.53c-8.9,24.5-6.16,52.4,7.28,74.12"/>
<path class="st3" d="M409.79,1053.32c17.33-16.19,33.1-24.19,32.4-63.2c-27.2,15.6-103.96,14.82-136.37-35.11
	c-9.18-14.24,0-21.26,9.36-10.14c22.01,28.09,62.9,15.41,77.63,7.22c-2.43-10.65-7.2-20.44-13.86-28.48
	c5.54-6.24,21.31-15.41,24.6-31.21c-13.65-4.63-27.71-7.58-41.93-8.78c8.69-8.67,11.79-22.44,7.8-34.72
	c-33.44,11.51-74.51-4.1-84.04-17.95c-9.53-13.85,0-26.53,7.97-17.36c17.33,19.51,98.59,42.13,129.09,8
	c-10.83-3.37-20.16-11.16-26.16-21.85c28.24-3.12,50.77-21.85,51.98-45.25c-18.78,1.43-37.61-1.9-55.1-9.75
	c12.82-3.06,23.02-14.01,26.34-28.28c-51.98-3.51-55.62-46.62-55.97-53.84c33.62,21.85,92.87,12.09,77.45-41.55
	c-27.9-1.76-56.14-52.67,20.79-99.28c69.31-42.52,149.36-88.56,142.26-164.04c-4.51-48.37-75.37-81.34-84.21-105.92
	c-29.46,15.8-34.65,34.14-22.18,64.95c0,0-65.84,7.41-71.04-39.01c-0.02-21.03,8.38-40.95,22.87-54.23
	c-7.45,0-57.01-15.02-71.91,30.43c-27.72-21.26-51.98-20.48-70.18,1.95c29.8,19.51,48.34,88.36,97.73,108.65
	c-34.65,21.46-91.84,12.48-125.1-53.45c-31.36,53.25-49.38,105.92,17.33,162.09c-122.5,62.81-121.29,182.57-228.03,239.73
	c10.74,32.57,33.62,32.57,62.55,27.5c-46.09,67.3-6.76,137.91-79.71,166.58c6.93,27.5,20.62,49.35,47.48,41.35
	c-7.62,13.46-12.65,13.07-24.6,27.89c39.85,28.28,86.64,7.8,97.73-82.9c1.91-16.19,21.66-6.05,14.9,9.75
	c-45.4,105.72,69.31,185.31,28.76,262.74c35.87-1.76,63.07-4.88,77.97-18.34c7.44,14.62,10.93,31.36,10.05,48.18
	c15.33-1.59,27.38-15.47,28.42-32.77c13,42.52,59.26,88.17,133.42,88.17C428.68,1188.69,465.59,1124.51,409.79,1053.32
	 M336.5,1131.34l-15.77,30.23c-6.24-19.09-13.77-37.6-22.53-55.4c-12.65,29.65-32.92,30.23-51.98,30.23
	c3.99-71.59-75.2-142.78-40.55-223.54c7.47-16.15,1.89-36.06-12.45-44.46c-0.01,0-0.01-0.01-0.02-0.01
	c-53.02-30.23-28.42,95.38-81.44,99.28c7.3-14.59,12.5-30.39,15.42-46.81c-11.26,3.32-38.12,22.63-50.25-2.15
	c25.17-15.47,41.9-43.95,44.7-76.07c2.49-23.21,7.44-45.99,14.73-67.88c11.23-22.23,24.4-43.14,39.33-62.42
	c-5.37,0-64.8,15.02-78.32,8c103.1-71.2,79.88-161.7,236.86-242.46c-41.24-34.53-83.34-62.03-53.02-127.76
	c42.97,58.52,124.76,39.01,168.94,11.12C406.5,351.5,350.36,308,337.02,260.01c16.46-2.93,37.77,17.17,50.08,26.53
	c5.89-17.75,8.32-39.01,27.38-42.91c-25.47,61.44,24.95,93.63,72.95,93.82c7.45,0,38.64-3.51,38.64-3.51
	c-5.02-11.51-25.12-42.91-10.57-55.59c11.78,12.48,25.82,22.43,38.64,33.36c93.57,81.53-44.53,157.02-101.02,191.35
	c-88.54,53.84-64.8,118.01-27.9,134.4c0,7.22-4.16,10.34-10.22,12.68c-25.82,9.75-50.25-11.12-70.87-24.38
	c1.21,40.18-1.21,78.02,38.29,101.04l-27.2,11.12c23.39,19.51,30.5,30.62,58.74,34.72c-13.94,5.7-28.66,8.61-43.49,8.58
	c2.76,12.89,7.45,25.16,13.86,36.28c-57.7,7.8-80.75-29.26-98.59-27.89c-38.12,3.12-35.69,83.88,58.05,83.88l-9.7,17.95
	c10.75,6.86,22.47,11.54,34.65,13.85c-6.24,5.66-12.13,13.26-17.33,19.51l14.9,14.43c-38.29,7.8-49.04-39.01-73.81-15.99
	c-37.77,33.75,45.57,104.94,125.45,94.41c-10.4,11.45-21.65,21.89-33.62,31.21c65.15,69.25,32.92,134.59,59.78,182.38
	c-51.56-3.52-95.09-44.38-107.43-100.85"/>
<path class="st3" d="M233.92,877.76c13.52,15.99,29.98,17.56,60.99,15.41c-34.65-4.68-53.37-14.04-65.32-39.01
	c-1.79-14.03-2.89-28.16-3.29-42.33c0.96-49.77,13.19-98.45,35.52-141.42c1.73,47.58,33.34,87.01,75.2,93.82
	c-46.78-23.02-74.16-74.9-59.26-125.03c9.7-17.56,20.79-35.5,32.92-54.03c6.24-8.78,12.13-17.36,17.33-25.36
	c-6.24,25.55,21.14,51.89,39.51,56.37c-9.88-10.92-31.36-46.62,17.33-106.11c-14.33,7.71-27.92,17.05-40.55,27.89
	c89.76-109.23,163.57-112.16,197.53-167.17c-47.65,37.06-177.61,58.32-236.17,38.82c32.23,24.19,110.03,22.04,128.92,17.56
	c-63.42,69.25-201.69,141.03-225.26,204.62c21.88-29.58,51.56-50.55,84.73-59.88c-22.64,35-42.03,72.51-57.87,111.96
	c-36.73,89.92-86.64,91.09-89.24,165.41c17.33-57.54,50.77-72.17,74.51-109.82c-4.46,26.94-6.26,54.35-5.37,81.73
	c0.6,30.7,6.12,61.03,16.29,89.53c-2.43,36.67,0,99.28,37.77,140.64c-20.67-34.43-30.71-75.55-28.59-117.04
	c29.28,63.59,112.63,151.37,153,210.27c-40.37-75.88-138.62-164.43-160.28-266.84"/>
<path class="st3" d="M1156.95,572.69c33.1,9.4,62.7,30.36,84.56,59.88c-23.91-63.78-162.36-135.37-225.26-204.62
	c19.06,4.49,96.69,6.83,128.92-17.56c-58.39,17.95-188.35-2.54-237.56-40.38c34.65,55.01,107.78,58.52,197.53,167.17
	c-12.67-10.87-26.32-20.22-40.72-27.89c49.38,59.49,28.07,95.19,17.33,106.11c18.37-4.49,45.92-30.82,39.68-56.37
	c5.89,8,11.96,16.38,17.33,25.36c12.3,18.34,23.22,36.48,32.92,54.03c14.9,50.13-12.65,102.02-59.26,125.03
	c41.83-6.83,73.38-46.28,75.03-93.82c22.4,42.95,34.68,91.63,35.69,141.42c-0.44,14.17-1.6,28.3-3.47,42.33
	c-11.96,25.55-31.19,34.92-65.32,39.01c31.19,2.15,47.48,0,60.99-15.41c-21.14,102.21-120.08,190.96-160.28,266.84
	c40.37-58.52,123.72-146.68,153-210.27c2.09,41.48-7.95,82.59-28.59,117.04c37.43-41.35,40.2-103.97,37.77-140.83
	c10.12-28.45,15.63-58.7,16.29-89.34c0.95-27.38-0.85-54.8-5.37-81.73c23.57,37.84,57.7,52.28,74.51,109.82
	c-3.29-74.12-51.98-75.29-89.41-165.41c-15.82-39.46-35.21-76.98-57.87-111.96"/>
<path class="st3" d="M1317.05,741.22c28.94,5.07,51.98,5.07,62.55-27.5c-106.56-57.15-105.52-176.92-228.03-239.73
	c67.23-56.18,49.21-108.84,17.33-162.09c-33.1,65.93-90.1,74.9-125.1,53.45c49.21-19.51,67.92-88.75,97.73-108.65
	c-17.5-22.63-41.93-22.63-69.48-3.12c-15.07-45.45-64.46-30.43-71.91-30.43c14.51,13.26,22.92,33.19,22.87,54.23
	c-5.2,45.64-70.87,39.01-70.87,39.01c13.34-30.82,7.45-49.15-22.18-64.95c-9.01,24.58-79.71,57.54-84.21,105.92
	c-7.1,75.68,72.43,121.52,142.26,164.04c76.93,46.81,48.69,97.53,20.79,99.28c-15.42,53.84,43.66,63.39,77.45,41.55
	c0,7.22-4.51,50.33-55.97,53.84c3.38,14.2,13.56,25.06,26.34,28.09c-17.49,7.85-36.32,11.18-55.1,9.75
	c1.91,23.41,24.43,42.13,51.98,45.25c-5.96,10.7-15.21,18.55-25.99,22.04c30.5,34.14,112.45,11.7,129.09-8
	c7.62-8.97,17.33,3.71,7.8,17.36s-50.6,29.65-84.04,18.14c-3.73,12.62-0.15,26.52,9.01,34.92c-13.93,1.26-27.7,4.2-41.07,8.78
	c3.12,15.8,19.06,24.97,24.6,31.21c-6.8,7.74-11.8,17.26-14.55,27.7c14.9,8.19,55.79,20.87,77.63-7.22
	c8.84-11.12,18.54-4.1,9.53,10.14c-32.23,49.93-109.16,50.72-136.37,35.11c0,39.01,14.21,47.01,32.4,63.2
	c-55.62,72.17-18.89,136.54-58.22,199.35c74.16,0,121.29-45.45,133.42-88.17c1.04,17.3,13.08,31.18,28.42,32.77
	c-0.8-16.81,2.68-33.53,10.05-48.18c15.07,13.65,42.45,16.78,78.15,18.34c-40.55-78.02,74.33-157.02,28.76-262.74
	c-6.76-15.8,13-25.94,14.9-9.75c10.74,90.7,57.87,111.18,97.9,82.9c-11.96-14.82-17.33-14.43-24.6-27.89
	c26.86,8,40.55-13.85,47.48-41.35c-72.77-28.87-33.62-99.28-79.71-166.58 M1324.16,921.26c2.85,16.44,8.06,32.25,15.42,46.81
	c-53.02-3.9-28.42-129.52-81.44-99.28c-14.29,8.25-20.01,27.92-12.82,44.08c34.65,80.75-44.36,151.95-39.85,222.76
	c-19.58,0-39.85,0-51.98-30.23c-8.73,17.81-16.26,36.32-22.53,55.4l-15.77-30.23c-12.39,56.43-55.89,97.26-107.43,100.85
	c26.68-47.79-5.37-112.94,59.78-182.38c-11.97-9.31-23.22-19.75-33.62-31.21c80.05,10.53,163.4-60.66,125.45-94.41
	c-24.78-22.04-35.69,23.8-73.81,15.99l14.9-14.43c-5.2-5.85-11.26-13.46-17.33-19.51c12.18-2.3,23.91-6.99,34.65-13.85l-9.7-17.95
	c93.57,0,95.99-80.75,58.05-83.88c-17.33-1.56-40.89,35.5-98.59,27.89c6.34-11.17,11.02-23.42,13.86-36.28
	c-14.83,0.02-29.55-2.89-43.49-8.58c28.24-4.1,34.65-14.63,58.74-34.72l-27.2-11.31c39.51-22.24,36.91-60.86,38.12-101.04
	c-20.62,13.46-45.05,34.14-70.7,24.38c-6.24-2.34-10.22-5.46-10.22-12.68c37.08-16.38,60.65-80.56-27.9-134.4
	c-56.49-34.33-194.59-109.82-101.02-191.35c12.82-11.12,26.68-21.07,38.47-33.36c14.73,12.68-5.37,44.08-10.4,55.59
	c0,0,31.19,3.51,38.47,3.51c48.17,0,98.77-32.38,73.12-93.82c19.23,4.49,21.49,25.16,27.2,42.91c12.3-9.36,33.62-29.45,50.08-26.53
	c-13.34,48.18-69.31,91.48-113.32,101.24c44.18,27.11,125.97,47.2,168.94-11.12c30.15,65.73-11.96,93.24-53.19,127.76
	c157.16,80.56,133.94,171.07,236.86,242.46c-13.34,7.02-72.95-7.02-78.32-8c15.04,19.22,28.28,40.14,39.51,62.42
	c7.45,21.87,12.57,44.65,15.25,67.88c2.98,32.05,19.66,60.45,44.7,76.07c-12.13,24.77-38.99,5.46-50.25,2.15"/>
<path class="st3" d="M575.09,1119.05l22.35-21.46l-3.47-7.61c-2.43-5.46-1.21-5.85,1.39-8l11.78-9.95c2.59-2.18,6-2.69,9.01-1.37
	l34.65,9.36h-36.56c-6.62-0.29-12.55,4.54-14.38,11.7l-2.6,5.85l-9.7,22.24c-4.62,9.66-3.15,21.58,3.64,29.45l6.76,9.17l-13.52,31.4
	h11.61l9.53-21.85c7.96-8.26,13.92-18.67,17.33-30.23c-3.99-3.71-6.93-6.44-4.68-11.51l4.33-10.34c1.39-3.51,1.91-4.88,6.06-3.9
	l37.25,8.97c5.75,3.34,12.81,1.33,16.46-4.68c5.02-8.78,5.72-7.8,17.33-6.44l19.06,2.34c21.44,3.11,43.21-1.68,62.03-13.65
	c3.47,9.17,10.57,15.99,13.86,23.02c1.21,2.54,0,6.24-2.43,10.92l-20.62,57.35h32.92l18.54-52.47c1.38-4.09,3.51-7.81,6.24-10.92
	l-10.57,63.39h31.88l8.49-62.81c1.91-13.85,0-18.53-5.2-24.19c-13.34-12.68-13-39.01-17.33-55.4c2.41-1.56,5.21-2.17,7.97-1.76
	c6.93,0,12.13,20.68,20.45,33.55c16.29,25.94,38.64,54.42,64.28,14.24c-2.44-4.49-5.22-8.73-8.32-12.68l-7.1-9.36
	c-4.16-5.27-23.91-30.62-32.23-39.01c-15.69-17.59-40.03-20.81-58.91-7.8c-25.99-15.41-53.37,0-59.78,0l-44.7-3.12
	c-3-0.13-5.75-1.96-7.28-4.88l8.32-3.12c-7.8-36.48-27.38-66.91-61.51-72.17c0,0-2.08-11.51-7.28-13.65l-10.22,13.46
	c-2.98,0.47-5.9,1.39-8.66,2.73l-43.66-18.34l33.62,36.87c0,0-17.33,27.11-22.7,32.38c-3.4,3.79-3.42,9.97-0.05,13.79
	c0.02,0.02,0.03,0.04,0.05,0.06l6.41,9.36c3.29,4.88,6.93,4.68,12.13,1.56l7.1-4.29c3.12-2.93,13.69,2.93,17.33-1.76
	c-1.86,9.61-2.85,19.42-2.95,29.26l-29.46-3.9c-4.64-1.3-9.55,0.01-13.17,3.51l-25.12,21.65c-8.45,7.41-10.87,20.64-5.72,31.21
	L575.09,1119.05z M817.68,1125.29l-19.93,55.2h-12.3l19.93-53.45c2.08-6.83-1.91-10.14-6.76-17.75c6.91,4.59,14.16,8.5,21.66,11.7
	c-0.89,1.37-1.7,2.8-2.43,4.29 M625.86,1005.53l-5.72,3.32c-3.99,2.54-5.89,3.71-9.36-1.17l-2.43-3.51
	c-1.55-2.87-1.19-6.55,0.87-8.97l24.43-31.99l-22.53-20.87l28.59,11.9l10.57-14.82c3.12,2.93,2.08,11.51,2.08,11.51
	c27.76,6.34,47.43,34.25,46.61,66.12c4.04,6.77,10.25,11.53,17.33,13.26l49.73,3.32c8.32,0,28.76-17.75,55.27,0
	c6.39-4.7,13.6-7.83,21.14-9.17c21.82,0.66,41.85,13.73,53.19,34.72c9.36,13.26,22.18,33.75,22.18,33.75
	c-5.54,7.41-10.92,9.75-15.42,8c-6.26-4.16-10.43-11.38-11.26-19.51c-3.66-10.04-9.65-18.8-17.33-25.36
	c3.72,9.33,6.34,19.16,7.8,29.26c-19.41-21.65-23.05-47.98-36.73-51.69c-7.66-1.31-15.29,2.5-19.58,9.75
	c6.93,17.95,6.41,39.01,13.52,52.47c5.37,10.34,6.41,11.31,8.84,13.65c5.72,4.68,2.43,12.87,1.56,19.51l-7.45,51.89h-12.3
	l8.14-50.91c2.43-15.41-36.04-15.41-55.97-45.06c-17.33,22.24-64.11,16.58-84.56,13.26c-7.82-3.18-16.55,0.34-20.79,8.39
	c-2.6,5.07-7.1,3.51-9.88,2.93l-37.25-8.97c-4.55-2.27-9.87,0.04-11.89,5.16c-0.16,0.41-0.3,0.84-0.41,1.27l-7.45,17.36
	c-1.88,3.36-1.29,7.76,1.39,10.34l3.47,4.29c-1.78,5.65-4.82,10.69-8.84,14.63l-8.14-10.34c-3.69-5.72-4.1-13.33-1.04-19.51
	l12.13-28.28c1.54-4.06,5.09-6.67,9.01-6.63h46.09l-14.04-25.94c-10.57-19.51,6.93-54.03,4.33-70.42
	c-1.39,21.85-24.95,11.9-28.59,14.82 M575.79,1070.87l21.83-19.51c2.8-3.39,6.81-5.18,10.92-4.88l30.84,4.49
	c1.4,5.82,3.62,11.36,6.58,16.39l-32.75-7.8c-3.71-1.01-7.62,0.16-10.4,3.12l-15.59,13.26c-2.95,2.83-3.54,7.69-1.39,11.31
	l2.43,6.05l-10.92,9.17l-4.16-8.78c-4.16-9.36-4.51-17.95,2.43-23.99"/>
<path class="st3" d="M670.74,404.55c10.54,7.51,21.61,14.03,33.1,19.51v-15.8l-46.61-19.51c0,0,0,6.44,13.52,16.78"/>
<path class="st3" d="M703.84,385.44v-15.8l-51.98-21.26c6.04,6.7,12.66,12.71,19.75,17.95c10.55,7.5,21.61,14.02,33.1,19.51"/>
<path class="st3" d="M703.84,349.54v-15.99l-57.87-23.99c0,0,11.26,10.34,24.78,20.68c10.53,7.52,21.6,14.05,33.1,19.51"/>
<path class="st3" d="M866.37,565.67h59.26c-4.52-13.21-16.46-21.26-28.94-19.51C884.13,545.74,872.42,553.27,866.37,565.67"/>
<path class="st3" d="M804.51,309.56l-57.87,23.99v15.8c11.49-5.46,22.56-11.98,33.1-19.51c13.52-10.34,24.6-20.68,24.6-20.68"/>
<path class="st3" d="M793.25,387.78l-46.61,19.51v15.8c11.48-5.48,22.55-12,33.1-19.51c13.52-10.34,13.52-16.78,13.52-16.78"/>
<path class="st3" d="M799.66,348.37l-51.98,21.26v15.8c11.49-5.47,22.56-11.99,33.1-19.51c7.08-5.25,13.7-11.26,19.75-17.95"/>
<path class="st3" d="M553.78,546.16c-12.48-1.75-24.42,6.29-28.94,19.51h59.26C578.06,553.27,566.34,545.74,553.78,546.16"/>
<path class="st3" d="M842.8,267.04c0-37.45-55.97-71-117.65-71s-117.65,33.55-117.65,71l1.21,9.17l24.6,159.17l-115.75,76.46
	c-16.59,12.19-27.75,31.78-30.67,53.84h21.31c3.13-27.56,24.56-47.77,49.21-46.42c26.86,1.56,42.8,19.51,58.74,46.42l3.99,7.02
	l5.89,10.34H454.5c14.38,27.94,22.81,59.26,24.6,91.48v401.04c0,103.19,70.52,152.54,146.76,152.54c58.91,0,66.88-2.93,99.46,33.55
	c32.4-36.67,40.37-33.55,99.46-33.55c76.24,0,146.76-49.15,146.76-152.54V674.12c1.79-32.23,10.22-63.55,24.6-91.48H824.61
	l5.89-10.34l4.16-7.02c15.77-26.33,31.71-44.86,58.74-46.42c24.64-1.12,45.9,19.26,48.86,46.81h21.14
	c-2.75-21.92-13.65-41.49-29.98-53.84l-116.61-76.46l24.6-159.17L842.8,267.04z M631.41,285.37l86.64,33.36v153.32l-64.11-38.04
	L631.41,285.37z M652.89,610.53c12.83,18.7,31.34,31.41,51.98,35.7c2.15,10.86,7.46,20.6,15.07,27.7
	c-5.67,26.5,8.81,53.15,32.35,59.54c0.19,0.05,0.38,0.1,0.57,0.15c2.45,13.82,11.32,25.08,23.22,29.45l-17.33,23.6
	c-5.72,7.87-14.58,11.98-23.57,10.92l-81.27-10.34c3.47-10.14-5.89-21.85-31.54-16.78l31.88-100.65l-20.1-45.64l-36.91,35.5
	l-2.77,105.53l-15.77-8.78c-20.62-9.95-26.68,31.99-7.1,32.18h7.8c-0.85,4.02,0.6,8.21,3.64,10.53c-3.01,2.09-3.95,6.54-2.09,9.93
	c0.53,0.96,1.24,1.77,2.09,2.36c-3.71,2.25-5.09,7.46-3.09,11.63c0.4,0.83,0.91,1.58,1.53,2.22c-5.04,9.16-2.52,21.18,5.62,26.85
	c1.22,0.85,2.54,1.53,3.91,2.02c11.61,3.51,18.89-10.73,21.31-19.51l126.49,44.08c15.98,6.46,33.84,1.72,45.57-12.09l32.92-32.57
	c-5.25,18.28,2.1,38.14,17.33,46.81c-1.04,9.18-1.5,18.44-1.39,27.7H504.05V674.51c-0.72-21.91-4.88-43.51-12.3-63.78L652.89,610.53
	z M788.91,699.28c-6.97,15.18-6.24,33.38,1.91,47.79l-5.37,6.05c-23.74-3.32-33.1-43.11-33.1-43.11c-0.26,3.57-0.26,7.16,0,10.73
	c-14.41-5.76-23.44-21.89-21.83-39.01c5.39,3.36,11.25,5.67,17.33,6.83l1.56-11.7c-14.15-2.04-25.91-13.28-29.98-28.67h-2.25h8.84
	c9.21-0.06,18.37-1.57,27.2-4.49c7.66,11.03,18.99,18.08,31.36,19.51c-1.84,11.8-0.32,23.95,4.33,34.72 M823.57,803.25
	c-2.45,3.71-4.33,7.87-5.54,12.29l-13.17,13.65c1.08-22.33-7.11-43.95-22.18-58.52l14.04-15.6l2.77,3.12
	c-4.39,19.53,6.12,39.37,23.47,44.31c0.2,0.06,0.41,0.11,0.62,0.17 M760.15,797.79l10.92-12.09c15.27,14.32,23.2,36.26,21.14,58.52
	l-11.96,12.29c-2.32,2.46-4.88,4.62-7.62,6.44C778.07,840.23,773.42,815.96,760.15,797.79 M736.76,807.93L736.76,807.93
	c4.07,0.57,8.2-0.11,11.96-1.95c10.8,18.65,12.62,42.14,4.85,62.61c-5.52-0.01-11.01-0.93-16.29-2.73l-4.16-1.37
	c7.22-17.83,8.39-38.02,3.29-56.76 M708.86,803.84l15.42,2.15c2.8,18.17,0.25,36.87-7.28,53.25l-17.33-5.85
	c7.75-14.97,11.15-32.29,9.7-49.54 M677.15,799.74l18.54,2.54c1.4,16.48-1.62,33.06-8.66,47.59l-18.89-6.24
	C675.44,830.56,678.62,815.09,677.15,799.74 M601.78,794.08c-4.21,2.32-9.3,0.35-11.35-4.4c-0.75-1.72-1.02-3.66-0.77-5.55
	c9.29-5.61,20.54-5.16,29.46,1.17c4.51,3.32,8.32,12.48,14.55,18.14c-1.17,9.09-3.08,18.03-5.72,26.72
	c-9.56-0.56-16.9-9.73-16.4-20.49c0.21-4.58,1.85-8.92,4.62-12.28c-3.46-4.98-9.59-6.46-14.55-3.51 M589.48,832.9
	c3.79,1.6,7.75,2.58,11.78,2.93c-0.32,4.19-3.59,7.29-7.31,6.93c-0.22-0.02-0.44-0.05-0.66-0.1c-3.3-1.13-5.16-5.05-4.15-8.76
	C589.23,833.55,589.34,833.22,589.48,832.9 M572.15,776.72c-2.4-1.35-3.37-4.63-2.17-7.33c0.86-1.94,2.67-3.12,4.59-3.01
	c5.2,0,12.3,6.83,19.06,10.14c-7.11,1.33-14.37,1.33-21.49,0 M589.48,817.3c3.81,4.1,15.07,2.54,15.07,2.54v2.54
	c-4.85,7.41-18.54,4.1-15.42-5.07 M604.38,808.91c-7.97,3.51-16.29-1.37-13.69-7.22c3.81,3.9,14.21,1.95,14.21,1.95L604.38,808.91z
	 M616.16,703.58l-15.42,63.2l5.2-102.02l23.91-23.02l12.13,30.04l-29.63,98.7l8.14-66.71c0-4.68-2.6-5.07-3.29,0 M618.24,780.23
	c7.35-0.53,14.73-0.14,22.01,1.17c3.64,1.76,1.21,8.39-3.47,7.61C630.35,786.82,624.13,783.87,618.24,780.23 M645.1,795.64
	l18.71,2.54c1.33,14.58-1.46,29.25-7.97,41.94l-17.33-5.85c4.24-12.5,6.76-25.66,7.45-39.01 M947.63,1075.75
	c1.7,44.05-19,85.35-53.37,106.5l11.96-27.31h-11.61l-15.25,35.11c-17.24,7.18-35.51,10.75-53.89,10.53
	c-60.82,0-76.93,2.73-99.46,28.09c-22.53-25.16-38.64-28.09-99.46-28.09c-18.51,0.18-36.89-3.45-54.23-10.73l0,0l15.42-35.11h-11.26
	l-13.52,30.82c-3.29-1.76-6.24-3.51-9.36-5.46l11.09-25.16h-11.44l-8.14,19.51c-27.11-22.96-42.57-59.36-41.41-97.53V922.04h443.06
	L947.63,1075.75z M959.94,610.73c-7.52,20.24-11.68,41.86-12.3,63.78v234.07h-24.26c-9.47-15.79-16.33-33.36-20.27-51.89
	c-4.17,17.68-1.53,36.52,7.28,51.89h-31.19c-6.93-16.93-11.77-34.85-14.38-53.25c-9.36,11.9-3.47,44.28,2.43,53.25h-20.62
	c-0.54-11.67,0.45-23.37,2.95-34.72c-10.92-2.34-22.35-8.58-22.35-22.24c3.88,4.7,9.67,6.77,15.25,5.46l8.84-7.8
	c-29.11,0.98-30.5-34.92-7.45-51.89c-23.22,0-40.37-14.63-32.06-42.33c-16.11-11.63-20.8-35.76-10.47-53.9
	c0.14-0.24,0.28-0.48,0.42-0.72c-8.77-13.37-10.55-30.98-4.68-46.23c-11.93,0.14-23.43-4.97-32.06-14.24h-1.91
	c13.78-6.25,25.77-16.64,34.65-30.04L959.94,610.73z M871.74,497.98c-24.09,4.68-44.7,37.84-61.51,67.69l-1.91,3.51h-17.33v3.51
	c-1.91,23.02-21.31,54.23-64.11,54.23c-16.17,0.57-32.02-5.15-44.88-16.19c-8.04-7.15-14.06-16.77-17.33-27.7
	c-0.97-3.36-1.61-6.82-1.91-10.34v-3.51h-17.33l-4.33-3.51c-17.33-29.84-37.6-62.81-61.51-67.69l65.32-42.72l80.57,48.96
	l80.23-49.15L871.74,497.98z M796.88,434.01l-64.11,38.04V318.53l86.64-33.36L796.88,434.01z M725.5,301.76l-95.3-42.33
	c8.14-21.46,45.4-39.01,95.13-39.01c49.73,0,86.64,18.34,94.95,39.01L725.5,301.76z"/>
<path class="st3" d="M936.72,761.7V750c-32.06,0-39.33-43.3-39.33-43.3c-5.88,22.87,5.83,46.77,26.14,53.39
	c4.22,1.38,8.63,1.92,13.02,1.62"/>
<path class="st3" d="M896.34,833.68l-3.12-11.12c-27.2,7.8-41.41-40.77-41.41-40.77c-5.7,22.03,5.54,45.09,25.11,51.51
	C883.25,835.38,889.96,835.51,896.34,833.68"/>
<path class="st3" d="M916.1,788.62c-32.58,5.85-45.92-36.87-45.92-36.87c-4,22.5,8.95,44.39,28.94,48.9
	c0.8,0.18,1.61,0.33,2.42,0.45c-3.41,17.36,6.32,34.54,21.74,38.38c6.8,1.69,13.92,0.53,20.02-3.27l-3.12-10.53
	c-10.9,4.7-23.13-1.44-27.3-13.72C910.21,804.09,911.43,795.21,916.1,788.62"/>
<path class="st3" d="M895.82,666.71v-11.7c-42.97-9.95-39.51-43.3-39.51-43.3c-5.77,23.02,6.12,46.94,26.56,53.44
	c4.09,1.3,8.35,1.83,12.6,1.56"/>
<polygon class="st3" points="623.09,1154.75 607.67,1190.05 619.28,1190.05 634.7,1154.75 "/>
<polygon class="st3" points="646.31,1154.75 631.06,1190.05 642.67,1190.05 657.92,1154.75 "/>
<polygon class="st3" points="739.53,1154.75 724.11,1190.05 735.72,1190.05 751.14,1154.75 "/>
<polygon class="st3" points="762.92,1154.75 747.5,1190.05 759.11,1190.05 774.36,1154.75 "/>
<polygon class="st3" points="716.31,1154.75 700.89,1190.05 712.5,1190.05 727.92,1154.75 "/>
<polygon class="st3" points="852.33,1190.05 863.94,1190.05 879.36,1154.75 867.75,1154.75 "/>
<polygon class="st3" points="669.7,1154.75 654.28,1190.05 665.89,1190.05 681.31,1154.75 "/>
<polygon class="st3" points="692.92,1154.75 677.5,1190.05 689.28,1190.05 704.53,1154.75 "/>
<path class="st3" d="M640.25,965.73c-2.56-0.43-4.94,1.55-5.32,4.43c-0.38,2.88,1.38,5.56,3.93,5.99c2.56,0.43,4.94-1.55,5.32-4.43
	c0.03-0.24,0.05-0.48,0.05-0.72C644.34,968.34,642.6,966.04,640.25,965.73"/>
<path class="st3" d="M725.5,172.24c38.32-1.23,75.93,11.72,107.08,36.87c4.88-28.38,14.27-55.54,27.72-80.17l-38.47,4.88
	l-20.1-48.18l-38.64,22.63l-37.6-41.74l-37.43,41.94l-38.99-22.82l-20.1,48.18l-38.47-4.88c13.48,24.61,22.88,51.77,27.72,80.17
	C649.44,183.93,687.12,170.98,725.5,172.24 M635.74,152.73l18.02-43.5l34.65,19.51l37.08-40.77l37.6,41.74l34.65-19.51l17.33,43.69
	l22.53-3.9c-5.92,12.01-10.68,24.69-14.21,37.84c-60.95-38.31-135.19-38.31-196.15,0c-3.55-13.14-8.31-25.82-14.21-37.84
	L635.74,152.73z"/>
<path class="st3" d="M764.66,86.02c5.59,0.57,10.54-4.05,11.09-10.34c-1.34-8.11-3.92-15.9-7.62-23.02c0,0-12.3,14.82-12.65,21.07
	C755.07,79.95,759.14,85.4,764.66,86.02"/>
<path class="st3" d="M827.55,111.77c4.9,2.94,10.99,0.84,13.59-4.67c0.03-0.07,0.06-0.14,0.1-0.21c1.57-8.07,1.87-16.39,0.87-24.58
	c0,0-16.29,8.19-18.89,13.85c-2.54,5.61-0.61,12.47,4.33,15.41"/>
<path class="st3" d="M685.99,86.02c5.58-0.52,9.76-6,9.36-12.29c0-6.24-12.65-21.07-12.65-21.07c-3.69,7.13-6.27,14.91-7.62,23.02
	C675.62,81.89,680.46,86.47,685.99,86.02"/>
<path class="st3" d="M622.92,111.77c4.88-3.01,6.73-9.85,4.16-15.41c-2.6-5.66-18.89-13.85-18.89-13.85
	c-0.95,8.2-0.6,16.52,1.04,24.58c2.51,5.57,8.55,7.81,13.51,4.98c0.06-0.03,0.12-0.07,0.18-0.11"/>
<path class="st3" d="M1378.91,501.69c13.14-6.34,23.54-18.26,28.94-33.16c-34.65-5.46-124.93-48.37-199.61-13.46
	c27.9-29.84,53.02-33.75,55.45-76.66c10.96,11.41,28.06,10.66,38.2-1.67c1.52-1.85,2.84-3.91,3.91-6.13
	c-7.62-25.55-27.03-4.88-29.8-11.9c-2.77-7.02,24.43,2.93,30.5-30.23c-22.01-8.58-28.59,11.7-32.58,7.02s14.04-13.07,1.04-39.01
	c-22.87,15.02-10.92,32.18-15.77,33.94c-4.85,1.76-1.21-18.14-26.51-17.17c-2.43,30.62,23.74,31.6,19.41,36.48
	c-4.33,4.88-12.13-17.56-31.19-5.66c-1.09,17.52,10.65,32.71,26.21,33.93c3.5,0.27,7.01-0.19,10.35-1.36
	c-2.95,47.01-41.24,39.01-69.31,91.29c60.47,34.92,87.68,95.77,124.93,137.71c13.18-16.04,24.37-34.02,33.27-53.45
	c19.03,21.55,49.96,21.65,69.1,0.23c0.07-0.08,0.14-0.16,0.21-0.23c-13.86-15.99-14.38-28.09-35.52-49.93 M1321.56,510.86
	c9.13,24.46,6.38,52.5-7.28,74.12c-17.93-43.79-44.69-82.26-78.15-112.35c-5.37-3.9,2.95-10.92,18.37-13.26
	c46.44-9.95,100.85,12.29,126.84,19.51c-9.93,9.07-21.95,14.75-34.65,16.38c16.18,14.08,30.43,30.78,42.28,49.54
	c-18.19,5.07-28.59-8-67.92-34.53"/>
<path class="st3" d="M932.38,1294.41v-57.54c-49.03,24.43-101.43,39.14-154.91,43.5l-2.95,20.48c5.54,0,12.48,1.56,21.66,2.34
	c-47.6,7.29-95.87,7.29-143.47,0c9.18,0,16.11-1.37,21.66-2.34l-2.95-20.48c-53.12-4.46-105.17-19.18-153.87-43.5v57.35
	l-51.98,24.77c44.11,25.01,90.62,44.25,138.62,57.35l-6.24,23.99c84.29,26.87,173.54,26.87,257.83,0l-6.24-23.99
	c47.99-13.12,94.5-32.36,138.62-57.35L932.38,1294.41z M493.31,1320.35l36.04-16.38v-46.81c31.61,13.07,64.12,23.19,97.21,30.23
	l-20.45,74.9c-38.77-9.88-76.56-24.13-112.8-42.52 M725.5,1406.76c-38.55-0.28-76.94-5.72-114.36-16.19l21.66-78.02
	c61.43,11.61,124.15,11.61,185.58,0l21.66,78.02C802.55,1401.04,764.11,1406.47,725.5,1406.76 M844.54,1362.87l-20.62-75.49
	c33.1-7.17,65.61-17.42,97.21-30.62v46.81l36.04,16.38c-36.23,18.43-74.02,32.68-112.8,42.52"/>
<path class="st3" d="M104.66,551.43c8.93,19.34,20.11,37.25,33.27,53.25c37.25-41.94,64.63-102.8,124.93-137.71
	c-28.59-52.86-66.88-44.08-69.31-91.29c14.93,5.1,30.7-4.38,35.23-21.18c1-3.69,1.39-7.55,1.15-11.39
	c-19.23-11.9-25.99,11.7-31.19,5.66c-5.2-6.05,22.01-5.85,19.41-36.48c-25.3,0-20.62,19.51-26.68,17.17s7.1-19.51-15.77-33.94
	c-13,26.92,4.68,35.31,1.04,39.01s-10.57-15.6-32.58-7.02c5.89,33.16,34.65,19.51,30.5,30.23c-4.16,10.73-22.18-13.65-29.8,11.9
	c6.98,14.74,23.24,20.32,36.33,12.46c2.1-1.26,4.04-2.83,5.77-4.66c2.43,43.11,27.55,46.62,55.45,76.66
	c-74.68-34.92-165.3,8-199.61,13.46c5.48,14.87,15.94,26.71,29.11,32.96c-22.18,23.02-22.18,35.11-35.69,51.11
	c0,0,28.24,34.92,69.31,0 M63.24,544.99c11.87-18.81,26.18-35.51,42.45-49.54c-12.71-1.74-24.72-7.49-34.65-16.58
	c25.99-7.8,80.57-29.84,127.01-19.51c15.25,2.34,23.91,9.36,18.37,13.26c-33.72,30.08-60.72,68.62-78.84,112.55
	c-13.44-21.72-16.18-49.62-7.28-74.12c-39.16,26.72-49.56,39.01-67.92,34.53"/>
<path class="st3" d="M692.57,519.44v25.36c6.08-6.46,14.4-9.54,22.7-8.39v36.48c-0.14,9.03-2.29,17.88-6.24,25.75h32.4
	c-3.95-7.87-6.09-16.72-6.24-25.75v-36.67c8.3-1.18,16.63,1.9,22.7,8.39v-25.36h-65.32V519.44z"/>
</svg>
