<?xml version="1.0" encoding="utf-8"?>
<!-- Generator: Adobe Illustrator 24.3.0, SVG Export Plug-In . SVG Version: 6.00 Build 0)  -->
<svg version="1.1"
	 id="svg870" xmlns:cc="http://creativecommons.org/ns#" xmlns:dc="http://purl.org/dc/elements/1.1/" xmlns:inkscape="http://www.inkscape.org/namespaces/inkscape" xmlns:rdf="http://www.w3.org/1999/02/22-rdf-syntax-ns#" xmlns:sodipodi="http://sodipodi.sourceforge.net/DTD/sodipodi-0.dtd" xmlns:svg="http://www.w3.org/2000/svg"
	 xmlns="http://www.w3.org/2000/svg" xmlns:xlink="http://www.w3.org/1999/xlink" x="0px" y="0px" viewBox="0 0 1963.2 848.3"
	 style="enable-background:new 0 0 1963.2 848.3;" xml:space="preserve">
<style type="text/css">
	.st0{enable-background:new    ;}
	.st1{fill:#7EC3DA;}
	.st2{fill:#75A3D2;}
	.st3{fill:#7096C7;}
	.st4{fill:#6585BC;}
	.st5{fill:#6E73AF;}
	.st6{fill:#A16AA9;}
	.st7{fill:#AF64A4;}
	.st8{fill:#BF5D9F;}
	.st9{fill:#CA6083;}
	.st10{fill:#D46268;}
	.st11{fill:#DE8C68;}
	.st12{fill:#E5A567;}
	.st13{fill:#EEC167;}
	.st14{fill:#F6DA60;}
	.st15{fill:url(#SVGID_1_);}
	.st16{fill:url(#SVGID_2_);}
	.st17{fill:url(#SVGID_3_);}
	.st18{fill:url(#SVGID_4_);}
	.st19{fill:url(#SVGID_5_);}
</style>
<g>
	<g id="g878_3_" inkscape:groupmode="layer" inkscape:label="Image">
		<g class="st0">
			<path class="st1" d="M291,522c11.4,15.6,17.1,33.6,17.1,54c0,20-5,37.9-15.1,53.7s-24,28.1-41.7,37S213.5,680,191.2,680H27.7
				c-7.4,0-13.6-2.4-18.4-7.3c-4.8-4.9-7.2-11.1-7.2-18.7V340.7c0.4-7.6,3.1-13.7,7.9-18.3c4.8-4.7,10.7-7,17.7-7h0.7h160.2
				c30.2,0,55,8.9,74.5,26.7c19.5,17.8,29.2,40.7,29.2,68.7c0,18.7-4.2,34.3-12.5,47s-20.1,22.3-35.5,29
				C264.1,494.7,279.6,506.5,291,522z M227.6,376.7c-10.3-9.8-23.3-14.7-39.1-14.7H52.6v106h138.5c15.3,0,27.8-5.1,37.4-15.3
				c9.6-10.2,14.4-23.3,14.4-39.3C243.1,398.7,237.9,386.5,227.6,376.7z M240.1,617c12.5-10.4,18.7-25,18.7-43.7
				c0-19.6-6.2-34.7-18.7-45.3c-12.5-10.7-28.8-16-48.9-16H52.6v120.7h138.5C211.3,632.7,227.6,627.5,240.1,617z"/>
		</g>
		<g class="st0">
			<path class="st1" d="M713.2,322.3c4.8,4.7,7.2,10.8,7.2,18.3V654c0,7.6-2.4,13.8-7.2,18.7s-10.9,7.3-18.4,7.3
				c-7.4,0-13.5-2.4-18.1-7.3c-4.6-4.9-6.9-11.1-6.9-18.7v-22.7c-14.4,16.4-32,29.3-52.5,38.7c-20.6,9.3-42.9,14-67,14
				c-31.1,0-59-6.7-83.7-20s-44.1-32.8-58.1-58.3c-14-25.6-21-56.1-21-91.7V340.7c0-7.1,2.4-13.1,7.2-18c4.8-4.9,10.7-7.3,17.7-7.3
				c7.4,0,13.6,2.4,18.4,7.3s7.2,10.9,7.2,18V514c0,39.6,10.8,69.7,32.5,90.3c21.7,20.7,50,31,85,31c21.4,0,40.8-4.2,58.1-12.7
				c17.3-8.4,31-20.1,41-35c10.1-14.9,15.1-31.4,15.1-49.7V340.7c0-7.6,2.3-13.7,6.9-18.3s10.6-7,18.1-7
				C702.2,315.3,708.4,317.7,713.2,322.3z"/>
		</g>
		<g class="st0">
			<path class="st1" d="M1076.7,335c25,15.3,44.3,36.6,58.1,63.7c13.8,27.1,20.7,58,20.7,92.7c0,7.1-2.2,12.8-6.6,17
				s-10.1,6.3-17.1,6.3H866.6c3.5,36.4,17.5,66,42,88.7s55.2,34,91.9,34c15.8,0,31.6-2.8,47.6-8.3c16-5.6,28.8-12.6,38.4-21
				c5.7-4.4,11.6-6.7,17.7-6.7c4.8,0,9.6,1.8,14.4,5.3c5.7,5.3,8.5,11.3,8.5,18c0,5.8-2.4,10.9-7.2,15.3
				c-14.4,12.4-32.8,22.8-55.2,31c-22.3,8.2-43.8,12.3-64.3,12.3c-35,0-66.3-7.9-93.9-23.7c-27.6-15.8-49.1-37.8-64.7-66
				c-15.5-28.2-23.3-60.1-23.3-95.7c0-36,7.3-68.1,22-96.3c14.7-28.2,35-50.2,61.1-66c26-15.8,55.7-23.7,89-23.7
				C1023,312,1051.7,319.7,1076.7,335z M907.9,389.3c-21.9,20.9-35.2,48.4-40.1,82.7h240.3c-3.5-34.2-15.8-61.8-36.8-82.7
				c-21-20.9-47.9-31.3-80.8-31.3C957.4,358,929.8,368.5,907.9,389.3z"/>
		</g>
		<g class="st0">
			<path class="st1" d="M1485.1,335.7c27.6,15.8,49.2,37.8,65,66s23.6,60.3,23.6,96.3v136c0,35.6-7.8,67.8-23.3,96.7
				s-37.1,51.7-64.7,68.3s-58.7,25-93.2,25c-33.7,0-63.7-6.4-90-19.3c-26.3-12.9-48.4-30.9-66.3-54c-3.9-4.4-5.9-9.6-5.9-15.3
				c0-6.7,3.1-12.4,9.2-17.3c4.4-3.1,9.2-4.7,14.4-4.7c3.9,0,7.9,1,11.8,3s7,4.6,9.2,7.7c13.1,16.9,29.8,30,49.9,39.3
				s42.9,14,68.3,14c24.5,0,46.7-6.1,66.6-18.3s35.6-29.3,46.9-51.3c11.4-22,17.1-47.2,17.1-75.7v-30
				c-13.1,25.3-31.7,45.2-55.8,59.7c-24.1,14.4-51.4,21.7-82.1,21.7c-34.1,0-64.7-7.9-91.6-23.7s-47.9-37.8-63-66
				s-22.7-60.1-22.7-95.7c0-36,7.9-68.1,23.6-96.3c15.8-28.2,37.5-50.2,65.3-66s59-23.7,93.6-23.7
				C1426.2,312,1457.5,319.9,1485.1,335.7z M1459.5,619c20.1-11.8,35.9-28.2,47.3-49.3s17.1-45,17.1-71.7s-5.7-50.6-17.1-71.7
				s-27.1-37.7-47.3-49.7c-20.1-12-42.9-18-68.3-18c-25.8,0-48.8,6-68.9,18s-35.9,28.6-47.3,49.7s-17.1,45-17.1,71.7
				s5.7,50.6,17.1,71.7c11.4,21.1,27.1,37.6,47.3,49.3c20.1,11.8,43.1,17.7,68.9,17.7C1416.6,636.7,1439.3,630.8,1459.5,619z"/>
		</g>
		<g class="st0">
			<path class="st1" d="M1740.5,659c-27.1-16.2-48.5-38.4-64-66.7c-15.5-28.2-23.3-59.7-23.3-94.3c0-35.6,7.4-67.4,22.3-95.7
				c14.9-28.2,35.5-50.3,61.7-66.3c26.3-16,55.8-24,88.6-24c54.7,0,99.1,21.3,133.3,64c3.5,4,5.3,8.7,5.3,14
				c0,7.1-3.7,13.3-11.2,18.7c-3.9,2.7-8.1,4-12.5,4c-6.6,0-12.9-3.3-19-10c-13.1-14.7-27.6-25.7-43.3-33s-33.3-11-52.5-11
				c-24.1,0-45.5,5.9-64.3,17.7c-18.8,11.8-33.4,28.3-43.7,49.7c-10.3,21.3-15.4,45.3-15.4,72c0,26.2,5.5,49.9,16.4,71
				s26.3,37.7,46,49.7s42.2,18,67.6,18c35,0,63.2-9.6,84.7-28.7c5.7-4.9,11.6-7.3,17.7-7.3c5.3,0,10.1,1.8,14.4,5.3
				c6.1,5.3,9.2,11.3,9.2,18c0,5.8-2.2,10.7-6.6,14.7c-31.5,29.8-71.4,44.7-119.5,44.7C1798.3,683.3,1767.6,675.2,1740.5,659z"/>
		</g>
		<g class="st0">
			<path class="st2" d="M291.3,506c11.4,15.6,17.1,33.6,17.1,54c0,20-5,37.9-15.1,53.7s-24,28.1-41.7,37S213.8,664,191.5,664H28
				c-7.4,0-13.6-2.4-18.4-7.3c-4.8-4.9-7.2-11.1-7.2-18.7V324.7c0.4-7.6,3.1-13.7,7.9-18.3c4.8-4.7,10.7-7,17.7-7h0.7h160.2
				c30.2,0,55,8.9,74.5,26.7c19.5,17.8,29.2,40.7,29.2,68.7c0,18.7-4.2,34.3-12.5,47s-20.1,22.3-35.5,29
				C264.3,478.7,279.9,490.5,291.3,506z M227.9,360.7c-10.3-9.8-23.3-14.7-39.1-14.7H52.9v106h138.5c15.3,0,27.8-5.1,37.4-15.3
				c9.6-10.2,14.4-23.3,14.4-39.3C243.3,382.7,238.2,370.5,227.9,360.7z M240.4,601c12.5-10.4,18.7-25,18.7-43.7
				c0-19.6-6.2-34.7-18.7-45.3c-12.5-10.7-28.8-16-48.9-16H52.9v120.7h138.5C211.6,616.7,227.9,611.5,240.4,601z"/>
		</g>
		<g class="st0">
			<path class="st2" d="M713.4,306.4c4.8,4.7,7.2,10.8,7.2,18.3V638c0,7.6-2.4,13.8-7.2,18.7S702.5,664,695,664
				c-7.4,0-13.5-2.4-18.1-7.3c-4.6-4.9-6.9-11.1-6.9-18.7v-22.7c-14.4,16.4-32,29.3-52.5,38.7c-20.6,9.3-42.9,14-67,14
				c-31.1,0-59-6.7-83.7-20s-44.1-32.8-58.1-58.3c-14-25.6-21-56.1-21-91.7V324.7c0-7.1,2.4-13.1,7.2-18c4.8-4.9,10.7-7.3,17.7-7.3
				c7.4,0,13.6,2.4,18.4,7.3s7.2,10.9,7.2,18V498c0,39.6,10.8,69.7,32.5,90.3c21.7,20.7,50,31,85,31c21.4,0,40.8-4.2,58.1-12.7
				c17.3-8.4,31-20.1,41-35c10.1-14.9,15.1-31.4,15.1-49.7V324.7c0-7.6,2.3-13.7,6.9-18.3s10.6-7,18.1-7
				C702.5,299.4,708.6,301.7,713.4,306.4z"/>
		</g>
		<g class="st0">
			<path class="st2" d="M1076.9,319c25,15.3,44.3,36.6,58.1,63.7c13.8,27.1,20.7,58,20.7,92.7c0,7.1-2.2,12.8-6.6,17
				s-10.1,6.3-17.1,6.3H866.8c3.5,36.4,17.5,66,42,88.7s55.2,34,91.9,34c15.8,0,31.6-2.8,47.6-8.3c16-5.6,28.8-12.6,38.4-21
				c5.7-4.4,11.6-6.7,17.7-6.7c4.8,0,9.6,1.8,14.4,5.3c5.7,5.3,8.5,11.3,8.5,18c0,5.8-2.4,10.9-7.2,15.3
				c-14.4,12.4-32.8,22.8-55.2,31c-22.3,8.2-43.8,12.3-64.3,12.3c-35,0-66.3-7.9-93.9-23.7c-27.6-15.8-49.1-37.8-64.7-66
				c-15.5-28.2-23.3-60.1-23.3-95.7c0-36,7.3-68.1,22-96.3c14.7-28.2,35-50.2,61.1-66c26-15.8,55.7-23.7,89-23.7
				C1023.3,296,1052,303.7,1076.9,319z M908.2,373.4c-21.9,20.9-35.2,48.4-40.1,82.7h240.3c-3.5-34.2-15.8-61.8-36.8-82.7
				c-21-20.9-47.9-31.3-80.8-31.3C957.7,342,930.1,352.5,908.2,373.4z"/>
		</g>
		<g class="st0">
			<path class="st2" d="M1485.4,319.7c27.6,15.8,49.2,37.8,65,66S1574,446,1574,482v136c0,35.6-7.8,67.8-23.3,96.7
				s-37.1,51.7-64.7,68.3s-58.7,25-93.2,25c-33.7,0-63.7-6.4-90-19.3c-26.3-12.9-48.4-30.9-66.3-54c-3.9-4.4-5.9-9.6-5.9-15.3
				c0-6.7,3.1-12.4,9.2-17.3c4.4-3.1,9.2-4.7,14.4-4.7c3.9,0,7.9,1,11.8,3s7,4.6,9.2,7.7c13.1,16.9,29.8,30,49.9,39.3
				s42.9,14,68.3,14c24.5,0,46.7-6.1,66.6-18.3s35.6-29.3,46.9-51.3c11.4-22,17.1-47.2,17.1-75.7v-30
				c-13.1,25.3-31.7,45.2-55.8,59.7c-24.1,14.4-51.4,21.7-82.1,21.7c-34.1,0-64.7-7.9-91.6-23.7s-47.9-37.8-63-66
				s-22.7-60.1-22.7-95.7c0-36,7.9-68.1,23.6-96.3c15.8-28.2,37.5-50.2,65.3-66s59-23.7,93.6-23.7
				C1426.5,296,1457.8,303.9,1485.4,319.7z M1459.8,603c20.1-11.8,35.9-28.2,47.3-49.3s17.1-45,17.1-71.7s-5.7-50.6-17.1-71.7
				s-27.1-37.7-47.3-49.7c-20.1-12-42.9-18-68.3-18c-25.8,0-48.8,6-68.9,18s-35.9,28.6-47.3,49.7s-17.1,45-17.1,71.7
				s5.7,50.6,17.1,71.7c11.4,21.1,27.1,37.6,47.3,49.3c20.1,11.8,43.1,17.7,68.9,17.7C1416.8,620.7,1439.6,614.8,1459.8,603z"/>
		</g>
		<g class="st0">
			<path class="st2" d="M1740.8,643c-27.1-16.2-48.5-38.4-64-66.7c-15.5-28.2-23.3-59.7-23.3-94.3c0-35.6,7.4-67.4,22.3-95.7
				c14.9-28.2,35.5-50.3,61.7-66.3c26.3-16,55.8-24,88.6-24c54.7,0,99.1,21.3,133.3,64c3.5,4,5.3,8.7,5.3,14
				c0,7.1-3.7,13.3-11.2,18.7c-3.9,2.7-8.1,4-12.5,4c-6.6,0-12.9-3.3-19-10c-13.1-14.7-27.6-25.7-43.3-33s-33.3-11-52.5-11
				c-24.1,0-45.5,5.9-64.3,17.7c-18.8,11.8-33.4,28.3-43.7,49.7c-10.3,21.3-15.4,45.3-15.4,72c0,26.2,5.5,49.9,16.4,71
				s26.3,37.7,46,49.7s42.2,18,67.6,18c35,0,63.2-9.6,84.7-28.7c5.7-4.9,11.6-7.3,17.7-7.3c5.3,0,10.1,1.8,14.4,5.3
				c6.1,5.3,9.2,11.3,9.2,18c0,5.8-2.2,10.7-6.6,14.7c-31.5,29.8-71.4,44.7-119.5,44.7C1798.6,667.4,1767.9,659.3,1740.8,643z"/>
		</g>
		<g class="st0">
			<path class="st3" d="M290.5,486c11.4,15.6,17.1,33.6,17.1,54c0,20-5,37.9-15.1,53.7s-24,28.1-41.7,37
				C233,639.5,213,644,190.7,644H27.2c-7.4,0-13.6-2.4-18.4-7.3C4,631.8,1.6,625.5,1.6,618V304.6c0.4-7.6,3.1-13.7,7.9-18.3
				c4.8-4.7,10.7-7,17.7-7h0.7h160.2c30.2,0,55,8.9,74.5,26.7c19.5,17.8,29.2,40.7,29.2,68.7c0,18.7-4.2,34.3-12.5,47
				s-20.1,22.3-35.5,29C263.6,458.6,279.1,470.4,290.5,486z M227.1,340.6c-10.3-9.8-23.3-14.7-39.1-14.7H52.2v106h138.5
				c15.3,0,27.8-5.1,37.4-15.3c9.6-10.2,14.4-23.3,14.4-39.3C242.6,362.6,237.4,350.4,227.1,340.6z M239.6,581
				c12.5-10.4,18.7-25,18.7-43.7c0-19.6-6.2-34.7-18.7-45.3c-12.5-10.7-28.8-16-48.9-16H52.2v120.7h138.5
				C210.8,596.6,227.1,591.4,239.6,581z"/>
		</g>
		<g class="st0">
			<path class="st3" d="M712.7,286.3c4.8,4.7,7.2,10.8,7.2,18.3V618c0,7.6-2.4,13.8-7.2,18.7s-10.9,7.3-18.4,7.3
				c-7.4,0-13.5-2.4-18.1-7.3c-4.6-4.9-6.9-11.1-6.9-18.7v-22.7c-14.4,16.4-32,29.3-52.5,38.7c-20.6,9.3-42.9,14-67,14
				c-31.1,0-59-6.7-83.7-20S422,595.2,408,569.7c-14-25.6-21-56.1-21-91.7V304.6c0-7.1,2.4-13.1,7.2-18c4.8-4.9,10.7-7.3,17.7-7.3
				c7.4,0,13.6,2.4,18.4,7.3s7.2,10.9,7.2,18V478c0,39.6,10.8,69.7,32.5,90.3c21.7,20.7,50,31,85,31c21.4,0,40.8-4.2,58.1-12.7
				c17.3-8.4,31-20.1,41-35c10.1-14.9,15.1-31.4,15.1-49.7V304.6c0-7.6,2.3-13.7,6.9-18.3s10.6-7,18.1-7
				C701.7,279.3,707.9,281.6,712.7,286.3z"/>
		</g>
		<g class="st0">
			<path class="st3" d="M1076.2,299c25,15.3,44.3,36.6,58.1,63.7c13.8,27.1,20.7,58,20.7,92.7c0,7.1-2.2,12.8-6.6,17
				s-10.1,6.3-17.1,6.3H866.1c3.5,36.4,17.5,66,42,88.7s55.2,34,91.9,34c15.8,0,31.6-2.8,47.6-8.3c16-5.6,28.8-12.6,38.4-21
				c5.7-4.4,11.6-6.7,17.7-6.7c4.8,0,9.6,1.8,14.4,5.3c5.7,5.3,8.5,11.3,8.5,18c0,5.8-2.4,10.9-7.2,15.3
				c-14.4,12.4-32.8,22.8-55.2,31c-22.3,8.2-43.8,12.3-64.3,12.3c-35,0-66.3-7.9-93.9-23.7c-27.6-15.8-49.1-37.8-64.7-66
				c-15.5-28.2-23.3-60.1-23.3-95.7c0-36,7.3-68.1,22-96.3c14.7-28.2,35-50.2,61.1-66c26-15.8,55.7-23.7,89-23.7
				C1022.6,276,1051.2,283.6,1076.2,299z M907.4,353.3c-21.9,20.9-35.2,48.4-40.1,82.7h240.3c-3.5-34.2-15.8-61.8-36.8-82.7
				c-21-20.9-47.9-31.3-80.8-31.3C956.9,322,929.3,332.4,907.4,353.3z"/>
		</g>
		<g class="st0">
			<path class="st3" d="M1484.6,299.6c27.6,15.8,49.2,37.8,65,66s23.6,60.3,23.6,96.3v136c0,35.6-7.8,67.8-23.3,96.7
				s-37.1,51.7-64.7,68.3s-58.7,25-93.2,25c-33.7,0-63.7-6.4-90-19.3c-26.3-12.9-48.4-30.9-66.3-54c-3.9-4.4-5.9-9.6-5.9-15.3
				c0-6.7,3.1-12.4,9.2-17.3c4.4-3.1,9.2-4.7,14.4-4.7c3.9,0,7.9,1,11.8,3s7,4.6,9.2,7.7c13.1,16.9,29.8,30,49.9,39.3
				s42.9,14,68.3,14c24.5,0,46.7-6.1,66.6-18.3s35.6-29.3,46.9-51.3c11.4-22,17.1-47.2,17.1-75.7v-30
				c-13.1,25.3-31.7,45.2-55.8,59.7c-24.1,14.4-51.4,21.7-82.1,21.7c-34.1,0-64.7-7.9-91.6-23.7s-47.9-37.8-63-66
				S1208,497.6,1208,462c0-36,7.9-68.1,23.6-96.3c15.8-28.2,37.5-50.2,65.3-66s59-23.7,93.6-23.7
				C1425.7,276,1457,283.9,1484.6,299.6z M1459,583c20.1-11.8,35.9-28.2,47.3-49.3s17.1-45,17.1-71.7s-5.7-50.6-17.1-71.7
				s-27.1-37.7-47.3-49.7c-20.1-12-42.9-18-68.3-18c-25.8,0-48.8,6-68.9,18s-35.9,28.6-47.3,49.7s-17.1,45-17.1,71.7
				s5.7,50.6,17.1,71.7c11.4,21.1,27.1,37.6,47.3,49.3c20.1,11.8,43.1,17.7,68.9,17.7C1416.1,600.6,1438.9,594.8,1459,583z"/>
		</g>
		<g class="st0">
			<path class="st3" d="M1740,623c-27.1-16.2-48.5-38.4-64-66.7c-15.5-28.2-23.3-59.7-23.3-94.3c0-35.6,7.4-67.4,22.3-95.7
				c14.9-28.2,35.5-50.3,61.7-66.3c26.3-16,55.8-24,88.6-24c54.7,0,99.1,21.3,133.3,64c3.5,4,5.3,8.7,5.3,14
				c0,7.1-3.7,13.3-11.2,18.7c-3.9,2.7-8.1,4-12.5,4c-6.6,0-12.9-3.3-19-10c-13.1-14.7-27.6-25.7-43.3-33s-33.3-11-52.5-11
				c-24.1,0-45.5,5.9-64.3,17.7c-18.8,11.8-33.4,28.3-43.7,49.7c-10.3,21.3-15.4,45.3-15.4,72c0,26.2,5.5,49.9,16.4,71
				s26.3,37.7,46,49.7s42.2,18,67.6,18c35,0,63.2-9.6,84.7-28.7c5.7-4.9,11.6-7.3,17.7-7.3c5.3,0,10.1,1.8,14.4,5.3
				c6.1,5.3,9.2,11.3,9.2,18c0,5.8-2.2,10.7-6.6,14.7c-31.5,29.8-71.4,44.7-119.5,44.7C1797.8,647.3,1767.2,639.2,1740,623z"/>
		</g>
		<g class="st0">
			<path class="st4" d="M291.7,469.4c11.4,15.6,17.1,33.6,17.1,54c0,20-5,37.9-15.1,53.7s-24,28.1-41.7,37s-37.8,13.3-60.1,13.3
				H28.4c-7.4,0-13.6-2.4-18.4-7.3c-4.8-4.9-7.2-11.1-7.2-18.7V288.1c0.4-7.6,3.1-13.7,7.9-18.3c4.8-4.7,10.7-7,17.7-7H29h160.2
				c30.2,0,55,8.9,74.5,26.7c19.5,17.8,29.2,40.7,29.2,68.7c0,18.7-4.2,34.3-12.5,47s-20.1,22.3-35.5,29
				C264.8,442.1,280.3,453.9,291.7,469.4z M228.3,324.1c-10.3-9.8-23.3-14.7-39.1-14.7H53.3v106h138.5c15.3,0,27.8-5.1,37.4-15.3
				c9.6-10.2,14.4-23.3,14.4-39.3C243.7,346.1,238.6,333.9,228.3,324.1z M240.8,564.4c12.5-10.4,18.7-25,18.7-43.7
				c0-19.6-6.2-34.7-18.7-45.3c-12.5-10.7-28.8-16-48.9-16H53.3v120.7h138.5C212,580.1,228.3,574.9,240.8,564.4z"/>
		</g>
		<g class="st0">
			<path class="st4" d="M713.9,269.8c4.8,4.7,7.2,10.8,7.2,18.3v313.3c0,7.6-2.4,13.8-7.2,18.7s-10.9,7.3-18.4,7.3
				c-7.4,0-13.5-2.4-18.1-7.3c-4.6-4.9-6.9-11.1-6.9-18.7v-22.7c-14.4,16.4-32,29.3-52.5,38.7c-20.6,9.3-42.9,14-67,14
				c-31.1,0-59-6.7-83.7-20s-44.1-32.8-58.1-58.3c-14-25.6-21-56.1-21-91.7V288.1c0-7.1,2.4-13.1,7.2-18c4.8-4.9,10.7-7.3,17.7-7.3
				c7.4,0,13.6,2.4,18.4,7.3s7.2,10.9,7.2,18v173.3c0,39.6,10.8,69.7,32.5,90.3c21.7,20.7,50,31,85,31c21.4,0,40.8-4.2,58.1-12.7
				c17.3-8.4,31-20.1,41-35c10.1-14.9,15.1-31.4,15.1-49.7V288.1c0-7.6,2.3-13.7,6.9-18.3s10.6-7,18.1-7
				C702.9,262.8,709,265.1,713.9,269.8z"/>
		</g>
		<g class="st0">
			<path class="st4" d="M1077.4,282.4c25,15.3,44.3,36.6,58.1,63.7c13.8,27.1,20.7,58,20.7,92.7c0,7.1-2.2,12.8-6.6,17
				s-10.1,6.3-17.1,6.3H867.2c3.5,36.4,17.5,66,42,88.7s55.2,34,91.9,34c15.8,0,31.6-2.8,47.6-8.3c16-5.6,28.8-12.6,38.4-21
				c5.7-4.4,11.6-6.7,17.7-6.7c4.8,0,9.6,1.8,14.4,5.3c5.7,5.3,8.5,11.3,8.5,18c0,5.8-2.4,10.9-7.2,15.3
				c-14.4,12.4-32.8,22.8-55.2,31c-22.3,8.2-43.8,12.3-64.3,12.3c-35,0-66.3-7.9-93.9-23.7c-27.6-15.8-49.1-37.8-64.7-66
				c-15.5-28.2-23.3-60.1-23.3-95.7c0-36,7.3-68.1,22-96.3c14.7-28.2,35-50.2,61.1-66c26-15.8,55.7-23.7,89-23.7
				C1023.7,259.4,1052.4,267.1,1077.4,282.4z M908.6,336.8c-21.9,20.9-35.2,48.4-40.1,82.7h240.3c-3.5-34.2-15.8-61.8-36.8-82.7
				c-21-20.9-47.9-31.3-80.8-31.3C958.1,305.4,930.5,315.9,908.6,336.8z"/>
		</g>
		<g class="st0">
			<path class="st4" d="M1485.8,283.1c27.6,15.8,49.2,37.8,65,66s23.6,60.3,23.6,96.3v136c0,35.6-7.8,67.8-23.3,96.7
				s-37.1,51.7-64.7,68.3s-58.7,25-93.2,25c-33.7,0-63.7-6.4-90-19.3c-26.3-12.9-48.4-30.9-66.3-54c-3.9-4.4-5.9-9.6-5.9-15.3
				c0-6.7,3.1-12.4,9.2-17.3c4.4-3.1,9.2-4.7,14.4-4.7c3.9,0,7.9,1,11.8,3s7,4.6,9.2,7.7c13.1,16.9,29.8,30,49.9,39.3
				s42.9,14,68.3,14c24.5,0,46.7-6.1,66.6-18.3s35.6-29.3,46.9-51.3c11.4-22,17.1-47.2,17.1-75.7v-30
				c-13.1,25.3-31.7,45.2-55.8,59.7c-24.1,14.4-51.4,21.7-82.1,21.7c-34.1,0-64.7-7.9-91.6-23.7s-47.9-37.8-63-66
				s-22.7-60.1-22.7-95.7c0-36,7.9-68.1,23.6-96.3c15.8-28.2,37.5-50.2,65.3-66s59-23.7,93.6-23.7
				C1426.9,259.4,1458.2,267.3,1485.8,283.1z M1460.2,566.4c20.1-11.8,35.9-28.2,47.3-49.3c11.4-21.1,17.1-45,17.1-71.7
				s-5.7-50.6-17.1-71.7s-27.1-37.7-47.3-49.7c-20.1-12-42.9-18-68.3-18c-25.8,0-48.8,6-68.9,18s-35.9,28.6-47.3,49.7
				s-17.1,45-17.1,71.7s5.7,50.6,17.1,71.7c11.4,21.1,27.1,37.6,47.3,49.3c20.1,11.8,43.1,17.7,68.9,17.7
				C1417.3,584.1,1440,578.2,1460.2,566.4z"/>
		</g>
		<g class="st0">
			<path class="st4" d="M1741.2,606.4c-27.1-16.2-48.5-38.4-64-66.7c-15.5-28.2-23.3-59.7-23.3-94.3c0-35.6,7.4-67.4,22.3-95.7
				c14.9-28.2,35.5-50.3,61.7-66.3c26.3-16,55.8-24,88.6-24c54.7,0,99.1,21.3,133.3,64c3.5,4,5.3,8.7,5.3,14
				c0,7.1-3.7,13.3-11.2,18.7c-3.9,2.7-8.1,4-12.5,4c-6.6,0-12.9-3.3-19-10c-13.1-14.7-27.6-25.7-43.3-33s-33.3-11-52.5-11
				c-24.1,0-45.5,5.9-64.3,17.7c-18.8,11.8-33.4,28.3-43.7,49.7c-10.3,21.3-15.4,45.3-15.4,72c0,26.2,5.5,49.9,16.4,71
				c10.9,21.1,26.3,37.7,46,49.7s42.2,18,67.6,18c35,0,63.2-9.6,84.7-28.7c5.7-4.9,11.6-7.3,17.7-7.3c5.3,0,10.1,1.8,14.4,5.3
				c6.1,5.3,9.2,11.3,9.2,18c0,5.8-2.2,10.7-6.6,14.7c-31.5,29.8-71.4,44.7-119.5,44.7C1799,630.8,1768.3,622.7,1741.2,606.4z"/>
		</g>
		<g class="st0">
			<path class="st5" d="M291.5,448c11.4,15.6,17.1,33.6,17.1,54c0,20-5,37.9-15.1,53.7s-24,28.1-41.7,37S214,606,191.7,606H28.3
				c-7.4,0-13.6-2.4-18.4-7.3C5,593.8,2.6,587.6,2.6,580V266.7c0.4-7.6,3.1-13.7,7.9-18.3c4.8-4.7,10.7-7,17.7-7h0.7h160.2
				c30.2,0,55,8.9,74.5,26.7s29.2,40.7,29.2,68.7c0,18.7-4.2,34.3-12.5,47s-20.1,22.3-35.5,29C264.6,420.7,280.2,432.5,291.5,448z
				 M228.2,302.7c-10.3-9.8-23.3-14.7-39.1-14.7H53.2v106h138.5c15.3,0,27.8-5.1,37.4-15.3c9.6-10.2,14.4-23.3,14.4-39.3
				C243.6,324.7,238.5,312.5,228.2,302.7z M240.7,543c12.5-10.4,18.7-25,18.7-43.7c0-19.6-6.2-34.7-18.7-45.3
				c-12.5-10.7-28.8-16-48.9-16H53.2v120.7h138.5C211.9,558.7,228.2,553.5,240.7,543z"/>
		</g>
		<g class="st0">
			<path class="st5" d="M713.7,248.4c4.8,4.7,7.2,10.8,7.2,18.3V580c0,7.6-2.4,13.8-7.2,18.7s-10.9,7.3-18.4,7.3
				c-7.4,0-13.5-2.4-18.1-7.3c-4.6-4.9-6.9-11.1-6.9-18.7v-22.7c-14.4,16.4-32,29.3-52.5,38.7c-20.6,9.3-42.9,14-67,14
				c-31.1,0-59-6.7-83.7-20S423,557.2,409,531.7c-14-25.6-21-56.1-21-91.7V266.7c0-7.1,2.4-13.1,7.2-18c4.8-4.9,10.7-7.3,17.7-7.3
				c7.4,0,13.6,2.4,18.4,7.3c4.8,4.9,7.2,10.9,7.2,18V440c0,39.6,10.8,69.7,32.5,90.3c21.7,20.7,50,31,85,31
				c21.4,0,40.8-4.2,58.1-12.7c17.3-8.4,31-20.1,41-35c10.1-14.9,15.1-31.4,15.1-49.7V266.7c0-7.6,2.3-13.7,6.9-18.3s10.6-7,18.1-7
				C702.8,241.4,708.9,243.7,713.7,248.4z"/>
		</g>
		<g class="st0">
			<path class="st5" d="M1077.2,261c25,15.3,44.3,36.6,58.1,63.7c13.8,27.1,20.7,58,20.7,92.7c0,7.1-2.2,12.8-6.6,17
				s-10.1,6.3-17.1,6.3H867.1c3.5,36.4,17.5,66,42,88.7s55.2,34,91.9,34c15.8,0,31.6-2.8,47.6-8.3c16-5.6,28.8-12.6,38.4-21
				c5.7-4.4,11.6-6.7,17.7-6.7c4.8,0,9.6,1.8,14.4,5.3c5.7,5.3,8.5,11.3,8.5,18c0,5.8-2.4,10.9-7.2,15.3
				c-14.4,12.4-32.8,22.8-55.2,31c-22.3,8.2-43.8,12.3-64.3,12.3c-35,0-66.3-7.9-93.9-23.7c-27.6-15.8-49.1-37.8-64.7-66
				c-15.5-28.2-23.3-60.1-23.3-95.7c0-36,7.3-68.1,22-96.3c14.7-28.2,35-50.2,61.1-66c26-15.8,55.7-23.7,89-23.7
				C1023.6,238,1052.3,245.7,1077.2,261z M908.5,315.4c-21.9,20.9-35.2,48.4-40.1,82.7h240.3c-3.5-34.2-15.8-61.8-36.8-82.7
				c-21-20.9-47.9-31.3-80.8-31.3C957.9,284,930.4,294.5,908.5,315.4z"/>
		</g>
		<g class="st0">
			<path class="st5" d="M1485.7,261.7c27.6,15.8,49.2,37.8,65,66s23.6,60.3,23.6,96.3v136c0,35.6-7.8,67.8-23.3,96.7
				s-37.1,51.7-64.7,68.3s-58.7,25-93.2,25c-33.7,0-63.7-6.4-90-19.3c-26.3-12.9-48.4-30.9-66.3-54c-3.9-4.4-5.9-9.6-5.9-15.3
				c0-6.7,3.1-12.4,9.2-17.3c4.4-3.1,9.2-4.7,14.4-4.7c3.9,0,7.9,1,11.8,3s7,4.6,9.2,7.7c13.1,16.9,29.8,30,49.9,39.3
				s42.9,14,68.3,14c24.5,0,46.7-6.1,66.6-18.3s35.6-29.3,46.9-51.3c11.4-22,17.1-47.2,17.1-75.7v-30
				c-13.1,25.3-31.7,45.2-55.8,59.7c-24.1,14.4-51.4,21.7-82.1,21.7c-34.1,0-64.7-7.9-91.6-23.7s-47.9-37.8-63-66
				s-22.7-60.1-22.7-95.7c0-36,7.9-68.1,23.6-96.3c15.8-28.2,37.5-50.2,65.3-66s59-23.7,93.6-23.7
				C1426.8,238,1458.1,245.9,1485.7,261.7z M1460,545c20.1-11.8,35.9-28.2,47.3-49.3c11.4-21.1,17.1-45,17.1-71.7
				s-5.7-50.6-17.1-71.7s-27.1-37.7-47.3-49.7c-20.1-12-42.9-18-68.3-18c-25.8,0-48.8,6-68.9,18s-35.9,28.6-47.3,49.7
				s-17.1,45-17.1,71.7s5.7,50.6,17.1,71.7c11.4,21.1,27.1,37.6,47.3,49.3c20.1,11.8,43.1,17.7,68.9,17.7
				C1417.1,562.7,1439.9,556.8,1460,545z"/>
		</g>
		<g class="st0">
			<path class="st5" d="M1741.1,585c-27.1-16.2-48.5-38.4-64-66.7c-15.5-28.2-23.3-59.7-23.3-94.3c0-35.6,7.4-67.4,22.3-95.7
				c14.9-28.2,35.5-50.3,61.7-66.3c26.3-16,55.8-24,88.6-24c54.7,0,99.1,21.3,133.3,64c3.5,4,5.3,8.7,5.3,14
				c0,7.1-3.7,13.3-11.2,18.7c-3.9,2.7-8.1,4-12.5,4c-6.6,0-12.9-3.3-19-10c-13.1-14.7-27.6-25.7-43.3-33s-33.3-11-52.5-11
				c-24.1,0-45.5,5.9-64.3,17.7c-18.8,11.8-33.4,28.3-43.7,49.7c-10.3,21.3-15.4,45.3-15.4,72c0,26.2,5.5,49.9,16.4,71
				c10.9,21.1,26.3,37.7,46,49.7s42.2,18,67.6,18c35,0,63.2-9.6,84.7-28.7c5.7-4.9,11.6-7.3,17.7-7.3c5.3,0,10.1,1.8,14.4,5.3
				c6.1,5.3,9.2,11.3,9.2,18c0,5.8-2.2,10.7-6.6,14.7c-31.5,29.8-71.4,44.7-119.5,44.7C1798.8,609.4,1768.2,601.3,1741.1,585z"/>
		</g>
		<g class="st0">
			<path class="st6" d="M291.7,427c11.4,15.6,17.1,33.6,17.1,54c0,20-5,37.9-15.1,53.7s-24,28.1-41.7,37S214.2,585,191.9,585H28.4
				c-7.4,0-13.6-2.4-18.4-7.3c-4.8-4.9-7.2-11.1-7.2-18.7V245.7c0.4-7.6,3.1-13.7,7.9-18.3c4.8-4.7,10.7-7,17.7-7H29h160.2
				c30.2,0,55,8.9,74.5,26.7s29.2,40.7,29.2,68.7c0,18.7-4.2,34.3-12.5,47s-20.1,22.3-35.5,29C264.8,399.7,280.3,411.5,291.7,427z
				 M228.3,281.7C218,271.9,205,267,189.2,267H53.3v106h138.5c15.3,0,27.8-5.1,37.4-15.3c9.6-10.2,14.4-23.3,14.4-39.3
				C243.7,303.7,238.6,291.5,228.3,281.7z M240.8,522c12.5-10.4,18.7-25,18.7-43.7c0-19.6-6.2-34.7-18.7-45.3
				c-12.5-10.7-28.8-16-48.9-16H53.3v120.7h138.5C212,537.7,228.3,532.5,240.8,522z"/>
		</g>
		<g class="st0">
			<path class="st6" d="M713.9,227.4c4.8,4.7,7.2,10.8,7.2,18.3V559c0,7.6-2.4,13.8-7.2,18.7S703,585,695.5,585
				c-7.4,0-13.5-2.4-18.1-7.3c-4.6-4.9-6.9-11.1-6.9-18.7v-22.7c-14.4,16.4-32,29.3-52.5,38.7c-20.6,9.3-42.9,14-67,14
				c-31.1,0-59-6.7-83.7-20s-44.1-32.8-58.1-58.3c-14-25.6-21-56.1-21-91.7V245.7c0-7.1,2.4-13.1,7.2-18c4.8-4.9,10.7-7.3,17.7-7.3
				c7.4,0,13.6,2.4,18.4,7.3c4.8,4.9,7.2,10.9,7.2,18V419c0,39.6,10.8,69.7,32.5,90.3c21.7,20.7,50,31,85,31
				c21.4,0,40.8-4.2,58.1-12.7c17.3-8.4,31-20.1,41-35c10.1-14.9,15.1-31.4,15.1-49.7V245.7c0-7.6,2.3-13.7,6.9-18.3s10.6-7,18.1-7
				C702.9,220.4,709,222.7,713.9,227.4z"/>
		</g>
		<g class="st0">
			<path class="st6" d="M1077.4,240c25,15.3,44.3,36.6,58.1,63.7c13.8,27.1,20.7,58,20.7,92.7c0,7.1-2.2,12.8-6.6,17
				s-10.1,6.3-17.1,6.3H867.2c3.5,36.4,17.5,66,42,88.7s55.2,34,91.9,34c15.8,0,31.6-2.8,47.6-8.3c16-5.6,28.8-12.6,38.4-21
				c5.7-4.4,11.6-6.7,17.7-6.7c4.8,0,9.6,1.8,14.4,5.3c5.7,5.3,8.5,11.3,8.5,18c0,5.8-2.4,10.9-7.2,15.3
				c-14.4,12.4-32.8,22.8-55.2,31c-22.3,8.2-43.8,12.3-64.3,12.3c-35,0-66.3-7.9-93.9-23.7c-27.6-15.8-49.1-37.8-64.7-66
				c-15.5-28.2-23.3-60.1-23.3-95.7c0-36,7.3-68.1,22-96.3c14.7-28.2,35-50.2,61.1-66c26-15.8,55.7-23.7,89-23.7
				C1023.7,217,1052.4,224.7,1077.4,240z M908.6,294.4c-21.9,20.9-35.2,48.4-40.1,82.7h240.3c-3.5-34.2-15.8-61.8-36.8-82.7
				c-21-20.9-47.9-31.3-80.8-31.3C958.1,263,930.5,273.5,908.6,294.4z"/>
		</g>
		<g class="st0">
			<path class="st6" d="M1485.8,240.7c27.6,15.8,49.2,37.8,65,66s23.6,60.3,23.6,96.3v136c0,35.6-7.8,67.8-23.3,96.7
				s-37.1,51.7-64.7,68.3s-58.7,25-93.2,25c-33.7,0-63.7-6.4-90-19.3c-26.3-12.9-48.4-30.9-66.3-54c-3.9-4.4-5.9-9.6-5.9-15.3
				c0-6.7,3.1-12.4,9.2-17.3c4.4-3.1,9.2-4.7,14.4-4.7c3.9,0,7.9,1,11.8,3s7,4.6,9.2,7.7c13.1,16.9,29.8,30,49.9,39.3
				s42.9,14,68.3,14c24.5,0,46.7-6.1,66.6-18.3s35.6-29.3,46.9-51.3c11.4-22,17.1-47.2,17.1-75.7v-30
				c-13.1,25.3-31.7,45.2-55.8,59.7c-24.1,14.4-51.4,21.7-82.1,21.7c-34.1,0-64.7-7.9-91.6-23.7s-47.9-37.8-63-66
				s-22.7-60.1-22.7-95.7c0-36,7.9-68.1,23.6-96.3c15.8-28.2,37.5-50.2,65.3-66s59-23.7,93.6-23.7
				C1426.9,217,1458.2,224.9,1485.8,240.7z M1460.2,524c20.1-11.8,35.9-28.2,47.3-49.3c11.4-21.1,17.1-45,17.1-71.7
				s-5.7-50.6-17.1-71.7s-27.1-37.7-47.3-49.7c-20.1-12-42.9-18-68.3-18c-25.8,0-48.8,6-68.9,18s-35.9,28.6-47.3,49.7
				s-17.1,45-17.1,71.7s5.7,50.6,17.1,71.7s27.1,37.6,47.3,49.3c20.1,11.8,43.1,17.7,68.9,17.7C1417.3,541.7,1440,535.8,1460.2,524z
				"/>
		</g>
		<g class="st0">
			<path class="st6" d="M1741.2,564c-27.1-16.2-48.5-38.4-64-66.7c-15.5-28.2-23.3-59.7-23.3-94.3c0-35.6,7.4-67.4,22.3-95.7
				c14.9-28.2,35.5-50.3,61.7-66.3c26.3-16,55.8-24,88.6-24c54.7,0,99.1,21.3,133.3,64c3.5,4,5.3,8.7,5.3,14
				c0,7.1-3.7,13.3-11.2,18.7c-3.9,2.7-8.1,4-12.5,4c-6.6,0-12.9-3.3-19-10c-13.1-14.7-27.6-25.7-43.3-33s-33.3-11-52.5-11
				c-24.1,0-45.5,5.9-64.3,17.7c-18.8,11.8-33.4,28.3-43.7,49.7c-10.3,21.3-15.4,45.3-15.4,72c0,26.2,5.5,49.9,16.4,71
				s26.3,37.7,46,49.7s42.2,18,67.6,18c35,0,63.2-9.6,84.7-28.7c5.7-4.9,11.6-7.3,17.7-7.3c5.3,0,10.1,1.8,14.4,5.3
				c6.1,5.3,9.2,11.3,9.2,18c0,5.8-2.2,10.7-6.6,14.7c-31.5,29.8-71.4,44.7-119.5,44.7C1799,588.4,1768.3,580.3,1741.2,564z"/>
		</g>
		<g class="st0">
			<path class="st7" d="M291.7,405.8c11.4,15.6,17.1,33.6,17.1,54c0,20-5,37.9-15.1,53.7c-10.1,15.8-24,28.1-41.7,37
				s-37.8,13.3-60.1,13.3H28.4c-7.4,0-13.6-2.4-18.4-7.3c-4.8-4.9-7.2-11.1-7.2-18.7V224.5c0.4-7.6,3.1-13.7,7.9-18.3
				c4.8-4.7,10.7-7,17.7-7H29h160.2c30.2,0,55,8.9,74.5,26.7s29.2,40.7,29.2,68.7c0,18.7-4.2,34.3-12.5,47s-20.1,22.3-35.5,29
				C264.8,378.5,280.3,390.2,291.7,405.8z M228.3,260.5c-10.3-9.8-23.3-14.7-39.1-14.7H53.3v106h138.5c15.3,0,27.8-5.1,37.4-15.3
				c9.6-10.2,14.4-23.3,14.4-39.3C243.7,282.5,238.6,270.2,228.3,260.5z M240.8,500.8c12.5-10.4,18.7-25,18.7-43.7
				c0-19.6-6.2-34.7-18.7-45.3c-12.5-10.7-28.8-16-48.9-16H53.3v120.7h138.5C212,516.5,228.3,511.2,240.8,500.8z"/>
		</g>
		<g class="st0">
			<path class="st7" d="M713.9,206.1c4.8,4.7,7.2,10.8,7.2,18.3v313.3c0,7.6-2.4,13.8-7.2,18.7s-10.9,7.3-18.4,7.3
				c-7.4,0-13.5-2.4-18.1-7.3c-4.6-4.9-6.9-11.1-6.9-18.7V515c-14.4,16.4-32,29.3-52.5,38.7c-20.6,9.3-42.9,14-67,14
				c-31.1,0-59-6.7-83.7-20s-44.1-32.8-58.1-58.3c-14-25.6-21-56.1-21-91.7V224.5c0-7.1,2.4-13.1,7.2-18c4.8-4.9,10.7-7.3,17.7-7.3
				c7.4,0,13.6,2.4,18.4,7.3c4.8,4.9,7.2,10.9,7.2,18v173.3c0,39.6,10.8,69.7,32.5,90.3c21.7,20.7,50,31,85,31
				c21.4,0,40.8-4.2,58.1-12.7c17.3-8.4,31-20.1,41-35c10.1-14.9,15.1-31.4,15.1-49.7V224.5c0-7.6,2.3-13.7,6.9-18.3s10.6-7,18.1-7
				C702.9,199.1,709,201.5,713.9,206.1z"/>
		</g>
		<g class="st0">
			<path class="st7" d="M1077.4,218.8c25,15.3,44.3,36.6,58.1,63.7c13.8,27.1,20.7,58,20.7,92.7c0,7.1-2.2,12.8-6.6,17
				s-10.1,6.3-17.1,6.3H867.2c3.5,36.4,17.5,66,42,88.7s55.2,34,91.9,34c15.8,0,31.6-2.8,47.6-8.3c16-5.6,28.8-12.6,38.4-21
				c5.7-4.4,11.6-6.7,17.7-6.7c4.8,0,9.6,1.8,14.4,5.3c5.7,5.3,8.5,11.3,8.5,18c0,5.8-2.4,10.9-7.2,15.3
				c-14.4,12.4-32.8,22.8-55.2,31c-22.3,8.2-43.8,12.3-64.3,12.3c-35,0-66.3-7.9-93.9-23.7c-27.6-15.8-49.1-37.8-64.7-66
				c-15.5-28.2-23.3-60.1-23.3-95.7c0-36,7.3-68.1,22-96.3c14.7-28.2,35-50.2,61.1-66c26-15.8,55.7-23.7,89-23.7
				C1023.7,195.8,1052.4,203.5,1077.4,218.8z M908.6,273.1c-21.9,20.9-35.2,48.4-40.1,82.7h240.3c-3.5-34.2-15.8-61.8-36.8-82.7
				c-21-20.9-47.9-31.3-80.8-31.3C958.1,241.8,930.5,252.2,908.6,273.1z"/>
		</g>
		<g class="st0">
			<path class="st7" d="M1485.8,219.5c27.6,15.8,49.2,37.8,65,66s23.6,60.3,23.6,96.3v136c0,35.6-7.8,67.8-23.3,96.7
				s-37.1,51.7-64.7,68.3s-58.7,25-93.2,25c-33.7,0-63.7-6.4-90-19.3c-26.3-12.9-48.4-30.9-66.3-54c-3.9-4.4-5.9-9.6-5.9-15.3
				c0-6.7,3.1-12.4,9.2-17.3c4.4-3.1,9.2-4.7,14.4-4.7c3.9,0,7.9,1,11.8,3s7,4.6,9.2,7.7c13.1,16.9,29.8,30,49.9,39.3
				s42.9,14,68.3,14c24.5,0,46.7-6.1,66.6-18.3s35.6-29.3,46.9-51.3c11.4-22,17.1-47.2,17.1-75.7v-30
				c-13.1,25.3-31.7,45.2-55.8,59.7c-24.1,14.4-51.4,21.7-82.1,21.7c-34.1,0-64.7-7.9-91.6-23.7s-47.9-37.8-63-66
				s-22.7-60.1-22.7-95.7c0-36,7.9-68.1,23.6-96.3c15.8-28.2,37.5-50.2,65.3-66s59-23.7,93.6-23.7
				C1426.9,195.8,1458.2,203.7,1485.8,219.5z M1460.2,502.8c20.1-11.8,35.9-28.2,47.3-49.3c11.4-21.1,17.1-45,17.1-71.7
				s-5.7-50.6-17.1-71.7s-27.1-37.7-47.3-49.7c-20.1-12-42.9-18-68.3-18c-25.8,0-48.8,6-68.9,18s-35.9,28.6-47.3,49.7
				s-17.1,45-17.1,71.7s5.7,50.6,17.1,71.7s27.1,37.6,47.3,49.3c20.1,11.8,43.1,17.7,68.9,17.7
				C1417.3,520.5,1440,514.6,1460.2,502.8z"/>
		</g>
		<g class="st0">
			<path class="st7" d="M1741.2,542.8c-27.1-16.2-48.5-38.4-64-66.7c-15.5-28.2-23.3-59.7-23.3-94.3c0-35.6,7.4-67.4,22.3-95.7
				c14.9-28.2,35.5-50.3,61.7-66.3c26.3-16,55.8-24,88.6-24c54.7,0,99.1,21.3,133.3,64c3.5,4,5.3,8.7,5.3,14
				c0,7.1-3.7,13.3-11.2,18.7c-3.9,2.7-8.1,4-12.5,4c-6.6,0-12.9-3.3-19-10c-13.1-14.7-27.6-25.7-43.3-33s-33.3-11-52.5-11
				c-24.1,0-45.5,5.9-64.3,17.7c-18.8,11.8-33.4,28.3-43.7,49.7c-10.3,21.3-15.4,45.3-15.4,72c0,26.2,5.5,49.9,16.4,71
				s26.3,37.7,46,49.7s42.2,18,67.6,18c35,0,63.2-9.6,84.7-28.7c5.7-4.9,11.6-7.3,17.7-7.3c5.3,0,10.1,1.8,14.4,5.3
				c6.1,5.3,9.2,11.3,9.2,18c0,5.8-2.2,10.7-6.6,14.7c-31.5,29.8-71.4,44.7-119.5,44.7C1799,567.1,1768.3,559,1741.2,542.8z"/>
		</g>
		<g class="st0">
			<path class="st8" d="M291.8,382.2c11.4,15.6,17.1,33.6,17.1,54c0,20-5,37.9-15.1,53.7c-10.1,15.8-24,28.1-41.7,37
				s-37.8,13.3-60.1,13.3H28.5c-7.4,0-13.6-2.4-18.4-7.3c-4.8-4.9-7.2-11.1-7.2-18.7V200.8c0.4-7.6,3.1-13.7,7.9-18.3
				c4.8-4.7,10.7-7,17.7-7h0.7h160.2c30.2,0,55,8.9,74.5,26.7s29.2,40.7,29.2,68.7c0,18.7-4.2,34.3-12.5,47s-20.1,22.3-35.5,29
				C264.9,354.8,280.4,366.6,291.8,382.2z M228.4,236.8c-10.3-9.8-23.3-14.7-39.1-14.7H53.5v106H192c15.3,0,27.8-5.1,37.4-15.3
				c9.6-10.2,14.4-23.3,14.4-39.3C243.9,258.8,238.7,246.6,228.4,236.8z M240.9,477.2c12.5-10.4,18.7-25,18.7-43.7
				c0-19.6-6.2-34.7-18.7-45.3c-12.5-10.7-28.8-16-48.9-16H53.5v120.7H192C212.1,492.8,228.4,487.6,240.9,477.2z"/>
		</g>
		<g class="st0">
			<path class="st8" d="M714,182.5c4.8,4.7,7.2,10.8,7.2,18.3v313.3c0,7.6-2.4,13.8-7.2,18.7s-10.9,7.3-18.4,7.3
				c-7.4,0-13.5-2.4-18.1-7.3c-4.6-4.9-6.9-11.1-6.9-18.7v-22.7c-14.4,16.4-32,29.3-52.5,38.7c-20.6,9.3-42.9,14-67,14
				c-31.1,0-59-6.7-83.7-20s-44.1-32.8-58.1-58.3c-14-25.6-21-56.1-21-91.7V200.8c0-7.1,2.4-13.1,7.2-18c4.8-4.9,10.7-7.3,17.7-7.3
				c7.4,0,13.6,2.4,18.4,7.3c4.8,4.9,7.2,10.9,7.2,18v173.3c0,39.6,10.8,69.7,32.5,90.3c21.7,20.7,50,31,85,31
				c21.4,0,40.8-4.2,58.1-12.7c17.3-8.4,31-20.1,41-35c10.1-14.9,15.1-31.4,15.1-49.7V200.8c0-7.6,2.3-13.7,6.9-18.3s10.6-7,18.1-7
				C703,175.5,709.2,177.8,714,182.5z"/>
		</g>
		<g class="st0">
			<path class="st8" d="M1077.5,195.2c25,15.3,44.3,36.6,58.1,63.7c13.8,27.1,20.7,58,20.7,92.7c0,7.1-2.2,12.8-6.6,17
				s-10.1,6.3-17.1,6.3H867.4c3.5,36.4,17.5,66,42,88.7s55.2,34,91.9,34c15.8,0,31.6-2.8,47.6-8.3c16-5.6,28.8-12.6,38.4-21
				c5.7-4.4,11.6-6.7,17.7-6.7c4.8,0,9.6,1.8,14.4,5.3c5.7,5.3,8.5,11.3,8.5,18c0,5.8-2.4,10.9-7.2,15.3
				c-14.4,12.4-32.8,22.8-55.2,31c-22.3,8.2-43.8,12.3-64.3,12.3c-35,0-66.3-7.9-93.9-23.7c-27.6-15.8-49.1-37.8-64.7-66
				c-15.5-28.2-23.3-60.1-23.3-95.7c0-36,7.3-68.1,22-96.3s35-50.2,61.1-66c26-15.8,55.7-23.7,89-23.7
				C1023.9,172.2,1052.5,179.8,1077.5,195.2z M908.7,249.5c-21.9,20.9-35.2,48.4-40.1,82.7H1109c-3.5-34.2-15.8-61.8-36.8-82.7
				s-47.9-31.3-80.8-31.3C958.2,218.2,930.6,228.6,908.7,249.5z"/>
		</g>
		<g class="st0">
			<path class="st8" d="M1485.9,195.8c27.6,15.8,49.2,37.8,65,66c15.8,28.2,23.6,60.3,23.6,96.3v136c0,35.6-7.8,67.8-23.3,96.7
				s-37.1,51.7-64.7,68.3s-58.7,25-93.2,25c-33.7,0-63.7-6.4-90-19.3c-26.3-12.9-48.4-30.9-66.3-54c-3.9-4.4-5.9-9.6-5.9-15.3
				c0-6.7,3.1-12.4,9.2-17.3c4.4-3.1,9.2-4.7,14.4-4.7c3.9,0,7.9,1,11.8,3s7,4.6,9.2,7.7c13.1,16.9,29.8,30,49.9,39.3
				s42.9,14,68.3,14c24.5,0,46.7-6.1,66.6-18.3s35.6-29.3,46.9-51.3c11.4-22,17.1-47.2,17.1-75.7v-30
				c-13.1,25.3-31.7,45.2-55.8,59.7c-24.1,14.4-51.4,21.7-82.1,21.7c-34.1,0-64.7-7.9-91.6-23.7s-47.9-37.8-63-66
				s-22.7-60.1-22.7-95.7c0-36,7.9-68.1,23.6-96.3c15.8-28.2,37.5-50.2,65.3-66s59-23.7,93.6-23.7
				C1427,172.2,1458.3,180.1,1485.9,195.8z M1460.3,479.2c20.1-11.8,35.9-28.2,47.3-49.3c11.4-21.1,17.1-45,17.1-71.7
				s-5.7-50.6-17.1-71.7s-27.1-37.7-47.3-49.7c-20.1-12-42.9-18-68.3-18c-25.8,0-48.8,6-68.9,18s-35.9,28.6-47.3,49.7
				s-17.1,45-17.1,71.7s5.7,50.6,17.1,71.7s27.1,37.6,47.3,49.3c20.1,11.8,43.1,17.7,68.9,17.7
				C1417.4,496.8,1440.2,490.9,1460.3,479.2z"/>
		</g>
		<g class="st0">
			<path class="st8" d="M1741.3,519.2c-27.1-16.2-48.5-38.4-64-66.7c-15.5-28.2-23.3-59.7-23.3-94.3c0-35.6,7.4-67.4,22.3-95.7
				c14.9-28.2,35.5-50.3,61.7-66.3c26.3-16,55.8-24,88.6-24c54.7,0,99.1,21.3,133.3,64c3.5,4,5.3,8.7,5.3,14
				c0,7.1-3.7,13.3-11.2,18.7c-3.9,2.7-8.1,4-12.5,4c-6.6,0-12.9-3.3-19-10c-13.1-14.7-27.6-25.7-43.3-33s-33.3-11-52.5-11
				c-24.1,0-45.5,5.9-64.3,17.7s-33.4,28.3-43.7,49.7c-10.3,21.3-15.4,45.3-15.4,72c0,26.2,5.5,49.9,16.4,71s26.3,37.7,46,49.7
				s42.2,18,67.6,18c35,0,63.2-9.6,84.7-28.7c5.7-4.9,11.6-7.3,17.7-7.3c5.3,0,10.1,1.8,14.4,5.3c6.1,5.3,9.2,11.3,9.2,18
				c0,5.8-2.2,10.7-6.6,14.7c-31.5,29.8-71.4,44.7-119.5,44.7C1799.1,543.5,1768.5,535.4,1741.3,519.2z"/>
		</g>
		<g class="st0">
			<path class="st9" d="M291.7,356.9c11.4,15.6,17.1,33.6,17.1,54c0,20-5,37.9-15.1,53.7c-10.1,15.8-24,28.1-41.7,37
				s-37.8,13.3-60.1,13.3H28.4c-7.4,0-13.6-2.4-18.4-7.3c-4.8-4.9-7.2-11.1-7.2-18.7V175.6c0.4-7.6,3.1-13.7,7.9-18.3
				c4.8-4.7,10.7-7,17.7-7H29h160.2c30.2,0,55,8.9,74.5,26.7s29.2,40.7,29.2,68.7c0,18.7-4.2,34.3-12.5,47s-20.1,22.3-35.5,29
				C264.8,329.6,280.3,341.4,291.7,356.9z M228.3,211.6c-10.3-9.8-23.3-14.7-39.1-14.7H53.3v106h138.5c15.3,0,27.8-5.1,37.4-15.3
				c9.6-10.2,14.4-23.3,14.4-39.3C243.7,233.6,238.6,221.4,228.3,211.6z M240.8,451.9c12.5-10.4,18.7-25,18.7-43.7
				c0-19.6-6.2-34.7-18.7-45.3c-12.5-10.7-28.8-16-48.9-16H53.3v120.7h138.5C212,467.6,228.3,462.4,240.8,451.9z"/>
		</g>
		<g class="st0">
			<path class="st9" d="M713.9,157.2c4.8,4.7,7.2,10.8,7.2,18.3v313.3c0,7.6-2.4,13.8-7.2,18.7s-10.9,7.3-18.4,7.3
				c-7.4,0-13.5-2.4-18.1-7.3c-4.6-4.9-6.9-11.1-6.9-18.7v-22.7c-14.4,16.4-32,29.3-52.5,38.7c-20.6,9.3-42.9,14-67,14
				c-31.1,0-59-6.7-83.7-20s-44.1-32.8-58.1-58.3c-14-25.6-21-56.1-21-91.7V175.6c0-7.1,2.4-13.1,7.2-18c4.8-4.9,10.7-7.3,17.7-7.3
				c7.4,0,13.6,2.4,18.4,7.3c4.8,4.9,7.2,10.9,7.2,18v173.3c0,39.6,10.8,69.7,32.5,90.3c21.7,20.7,50,31,85,31
				c21.4,0,40.8-4.2,58.1-12.7c17.3-8.4,31-20.1,41-35c10.1-14.9,15.1-31.4,15.1-49.7V175.6c0-7.6,2.3-13.7,6.9-18.3s10.6-7,18.1-7
				C702.9,150.2,709,152.6,713.9,157.2z"/>
		</g>
		<g class="st0">
			<path class="st9" d="M1077.4,169.9c25,15.3,44.3,36.6,58.1,63.7c13.8,27.1,20.7,58,20.7,92.7c0,7.1-2.2,12.8-6.6,17
				s-10.1,6.3-17.1,6.3H867.2c3.5,36.4,17.5,66,42,88.7s55.2,34,91.9,34c15.8,0,31.6-2.8,47.6-8.3c16-5.6,28.8-12.6,38.4-21
				c5.7-4.4,11.6-6.7,17.7-6.7c4.8,0,9.6,1.8,14.4,5.3c5.7,5.3,8.5,11.3,8.5,18c0,5.8-2.4,10.9-7.2,15.3
				c-14.4,12.4-32.8,22.8-55.2,31c-22.3,8.2-43.8,12.3-64.3,12.3c-35,0-66.3-7.9-93.9-23.7c-27.6-15.8-49.1-37.8-64.7-66
				c-15.5-28.2-23.3-60.1-23.3-95.7c0-36,7.3-68.1,22-96.3s35-50.2,61.1-66c26-15.8,55.7-23.7,89-23.7
				C1023.7,146.9,1052.4,154.6,1077.4,169.9z M908.6,224.2c-21.9,20.9-35.2,48.4-40.1,82.7h240.3c-3.5-34.2-15.8-61.8-36.8-82.7
				s-47.9-31.3-80.8-31.3C958.1,192.9,930.5,203.4,908.6,224.2z"/>
		</g>
		<g class="st0">
			<path class="st9" d="M1485.8,170.6c27.6,15.8,49.2,37.8,65,66s23.6,60.3,23.6,96.3v136c0,35.6-7.8,67.8-23.3,96.7
				s-37.1,51.7-64.7,68.3s-58.7,25-93.2,25c-33.7,0-63.7-6.4-90-19.3c-26.3-12.9-48.4-30.9-66.3-54c-3.9-4.4-5.9-9.6-5.9-15.3
				c0-6.7,3.1-12.4,9.2-17.3c4.4-3.1,9.2-4.7,14.4-4.7c3.9,0,7.9,1,11.8,3s7,4.6,9.2,7.7c13.1,16.9,29.8,30,49.9,39.3
				s42.9,14,68.3,14c24.5,0,46.7-6.1,66.6-18.3s35.6-29.3,46.9-51.3c11.4-22,17.1-47.2,17.1-75.7v-30
				c-13.1,25.3-31.7,45.2-55.8,59.7c-24.1,14.4-51.4,21.7-82.1,21.7c-34.1,0-64.7-7.9-91.6-23.7c-26.9-15.8-47.9-37.8-63-66
				s-22.7-60.1-22.7-95.7c0-36,7.9-68.1,23.6-96.3c15.8-28.2,37.5-50.2,65.3-66s59-23.7,93.6-23.7
				C1426.9,146.9,1458.2,154.8,1485.8,170.6z M1460.2,453.9c20.1-11.8,35.9-28.2,47.3-49.3c11.4-21.1,17.1-45,17.1-71.7
				c0-26.7-5.7-50.6-17.1-71.7s-27.1-37.7-47.3-49.7c-20.1-12-42.9-18-68.3-18c-25.8,0-48.8,6-68.9,18s-35.9,28.6-47.3,49.7
				s-17.1,45-17.1,71.7s5.7,50.6,17.1,71.7s27.1,37.6,47.3,49.3c20.1,11.8,43.1,17.7,68.9,17.7
				C1417.3,471.6,1440,465.7,1460.2,453.9z"/>
		</g>
		<g class="st0">
			<path class="st9" d="M1741.2,493.9c-27.1-16.2-48.5-38.4-64-66.7c-15.5-28.2-23.3-59.7-23.3-94.3c0-35.6,7.4-67.4,22.3-95.7
				c14.9-28.2,35.5-50.3,61.7-66.3c26.3-16,55.8-24,88.6-24c54.7,0,99.1,21.3,133.3,64c3.5,4,5.3,8.7,5.3,14
				c0,7.1-3.7,13.3-11.2,18.7c-3.9,2.7-8.1,4-12.5,4c-6.6,0-12.9-3.3-19-10c-13.1-14.7-27.6-25.7-43.3-33s-33.3-11-52.5-11
				c-24.1,0-45.5,5.9-64.3,17.7s-33.4,28.3-43.7,49.7c-10.3,21.3-15.4,45.3-15.4,72c0,26.2,5.5,49.9,16.4,71s26.3,37.7,46,49.7
				s42.2,18,67.6,18c35,0,63.2-9.6,84.7-28.7c5.7-4.9,11.6-7.3,17.7-7.3c5.3,0,10.1,1.8,14.4,5.3c6.1,5.3,9.2,11.3,9.2,18
				c0,5.8-2.2,10.7-6.6,14.7c-31.5,29.8-71.4,44.7-119.5,44.7C1799,518.2,1768.3,510.1,1741.2,493.9z"/>
		</g>
		<g class="st0">
			<path class="st10" d="M291.8,331.4c11.4,15.6,17.1,33.6,17.1,54c0,20-5,37.9-15.1,53.7c-10.1,15.8-24,28.1-41.7,37
				s-37.8,13.3-60.1,13.3H28.5c-7.4,0-13.6-2.4-18.4-7.3S2.9,471,2.9,463.4V150.1c0.4-7.6,3.1-13.7,7.9-18.3c4.8-4.7,10.7-7,17.7-7
				h0.7h160.2c30.2,0,55,8.9,74.5,26.7s29.2,40.7,29.2,68.7c0,18.7-4.2,34.3-12.5,47s-20.1,22.3-35.5,29
				C264.9,304.1,280.4,315.9,291.8,331.4z M228.4,186.1c-10.3-9.8-23.3-14.7-39.1-14.7H53.5v106H192c15.3,0,27.8-5.1,37.4-15.3
				c9.6-10.2,14.4-23.3,14.4-39.3C243.9,208.1,238.7,195.9,228.4,186.1z M240.9,426.4c12.5-10.4,18.7-25,18.7-43.7
				c0-19.6-6.2-34.7-18.7-45.3c-12.5-10.7-28.8-16-48.9-16H53.5v120.7H192C212.1,442.1,228.4,436.9,240.9,426.4z"/>
		</g>
		<g class="st0">
			<path class="st10" d="M714,131.7c4.8,4.7,7.2,10.8,7.2,18.3v313.3c0,7.6-2.4,13.8-7.2,18.7c-4.8,4.9-10.9,7.3-18.4,7.3
				c-7.4,0-13.5-2.4-18.1-7.3s-6.9-11.1-6.9-18.7v-22.7c-14.4,16.4-32,29.3-52.5,38.7c-20.6,9.3-42.9,14-67,14
				c-31.1,0-59-6.7-83.7-20s-44.1-32.8-58.1-58.3c-14-25.6-21-56.1-21-91.7V150.1c0-7.1,2.4-13.1,7.2-18c4.8-4.9,10.7-7.3,17.7-7.3
				c7.4,0,13.6,2.4,18.4,7.3c4.8,4.9,7.2,10.9,7.2,18v173.3c0,39.6,10.8,69.7,32.5,90.3c21.7,20.7,50,31,85,31
				c21.4,0,40.8-4.2,58.1-12.7c17.3-8.4,31-20.1,41-35c10.1-14.9,15.1-31.4,15.1-49.7V150.1c0-7.6,2.3-13.7,6.9-18.3s10.6-7,18.1-7
				C703,124.7,709.2,127.1,714,131.7z"/>
		</g>
		<g class="st0">
			<path class="st10" d="M1077.5,144.4c25,15.3,44.3,36.6,58.1,63.7c13.8,27.1,20.7,58,20.7,92.7c0,7.1-2.2,12.8-6.6,17
				s-10.1,6.3-17.1,6.3H867.4c3.5,36.4,17.5,66,42,88.7s55.2,34,91.9,34c15.8,0,31.6-2.8,47.6-8.3c16-5.6,28.8-12.6,38.4-21
				c5.7-4.4,11.6-6.7,17.7-6.7c4.8,0,9.6,1.8,14.4,5.3c5.7,5.3,8.5,11.3,8.5,18c0,5.8-2.4,10.9-7.2,15.3
				c-14.4,12.4-32.8,22.8-55.2,31c-22.3,8.2-43.8,12.3-64.3,12.3c-35,0-66.3-7.9-93.9-23.7c-27.6-15.8-49.1-37.8-64.7-66
				c-15.5-28.2-23.3-60.1-23.3-95.7c0-36,7.3-68.1,22-96.3s35-50.2,61.1-66c26-15.8,55.7-23.7,89-23.7
				C1023.9,121.4,1052.5,129.1,1077.5,144.4z M908.7,198.7c-21.9,20.9-35.2,48.4-40.1,82.7H1109c-3.5-34.2-15.8-61.8-36.8-82.7
				s-47.9-31.3-80.8-31.3C958.2,167.4,930.6,177.9,908.7,198.7z"/>
		</g>
		<g class="st0">
			<path class="st10" d="M1485.9,145.1c27.6,15.8,49.2,37.8,65,66s23.6,60.3,23.6,96.3v136c0,35.6-7.8,67.8-23.3,96.7
				s-37.1,51.7-64.7,68.3c-27.6,16.7-58.7,25-93.2,25c-33.7,0-63.7-6.4-90-19.3c-26.3-12.9-48.4-30.9-66.3-54
				c-3.9-4.4-5.9-9.6-5.9-15.3c0-6.7,3.1-12.4,9.2-17.3c4.4-3.1,9.2-4.7,14.4-4.7c3.9,0,7.9,1,11.8,3s7,4.6,9.2,7.7
				c13.1,16.9,29.8,30,49.9,39.3s42.9,14,68.3,14c24.5,0,46.7-6.1,66.6-18.3s35.6-29.3,46.9-51.3c11.4-22,17.1-47.2,17.1-75.7v-30
				c-13.1,25.3-31.7,45.2-55.8,59.7c-24.1,14.4-51.4,21.7-82.1,21.7c-34.1,0-64.7-7.9-91.6-23.7c-26.9-15.8-47.9-37.8-63-66
				s-22.7-60.1-22.7-95.7c0-36,7.9-68.1,23.6-96.3c15.8-28.2,37.5-50.2,65.3-66s59-23.7,93.6-23.7
				C1427,121.4,1458.3,129.3,1485.9,145.1z M1460.3,428.4c20.1-11.8,35.9-28.2,47.3-49.3c11.4-21.1,17.1-45,17.1-71.7
				c0-26.7-5.7-50.6-17.1-71.7s-27.1-37.7-47.3-49.7c-20.1-12-42.9-18-68.3-18c-25.8,0-48.8,6-68.9,18s-35.9,28.6-47.3,49.7
				s-17.1,45-17.1,71.7s5.7,50.6,17.1,71.7s27.1,37.6,47.3,49.3c20.1,11.8,43.1,17.7,68.9,17.7
				C1417.4,446.1,1440.2,440.2,1460.3,428.4z"/>
		</g>
		<g class="st0">
			<path class="st10" d="M1741.3,468.4c-27.1-16.2-48.5-38.4-64-66.7c-15.5-28.2-23.3-59.7-23.3-94.3c0-35.6,7.4-67.4,22.3-95.7
				c14.9-28.2,35.5-50.3,61.7-66.3c26.3-16,55.8-24,88.6-24c54.7,0,99.1,21.3,133.3,64c3.5,4,5.3,8.7,5.3,14
				c0,7.1-3.7,13.3-11.2,18.7c-3.9,2.7-8.1,4-12.5,4c-6.6,0-12.9-3.3-19-10c-13.1-14.7-27.6-25.7-43.3-33s-33.3-11-52.5-11
				c-24.1,0-45.5,5.9-64.3,17.7s-33.4,28.3-43.7,49.7c-10.3,21.3-15.4,45.3-15.4,72c0,26.2,5.5,49.9,16.4,71s26.3,37.7,46,49.7
				s42.2,18,67.6,18c35,0,63.2-9.6,84.7-28.7c5.7-4.9,11.6-7.3,17.7-7.3c5.3,0,10.1,1.8,14.4,5.3c6.1,5.3,9.2,11.3,9.2,18
				c0,5.8-2.2,10.7-6.6,14.7c-31.5,29.8-71.4,44.7-119.5,44.7C1799.1,492.7,1768.5,484.6,1741.3,468.4z"/>
		</g>
		<g class="st0">
			<path class="st11" d="M291.7,305.4c11.4,15.6,17.1,33.6,17.1,54c0,20-5,37.9-15.1,53.7c-10.1,15.8-24,28.1-41.7,37
				s-37.8,13.3-60.1,13.3H28.4c-7.4,0-13.6-2.4-18.4-7.3S2.8,445,2.8,437.4V124.1c0.4-7.6,3.1-13.7,7.9-18.3c4.8-4.7,10.7-7,17.7-7
				H29h160.2c30.2,0,55,8.9,74.5,26.7s29.2,40.7,29.2,68.7c0,18.7-4.2,34.3-12.5,47s-20.1,22.3-35.5,29
				C264.8,278.1,280.3,289.9,291.7,305.4z M228.3,160.1c-10.3-9.8-23.3-14.7-39.1-14.7H53.3v106h138.5c15.3,0,27.8-5.1,37.4-15.3
				s14.4-23.3,14.4-39.3C243.7,182.1,238.6,169.9,228.3,160.1z M240.8,400.4c12.5-10.4,18.7-25,18.7-43.7c0-19.6-6.2-34.7-18.7-45.3
				c-12.5-10.7-28.8-16-48.9-16H53.3v120.7h138.5C212,416.1,228.3,410.9,240.8,400.4z"/>
		</g>
		<g class="st0">
			<path class="st11" d="M713.9,105.7c4.8,4.7,7.2,10.8,7.2,18.3v313.3c0,7.6-2.4,13.8-7.2,18.7c-4.8,4.9-10.9,7.3-18.4,7.3
				c-7.4,0-13.5-2.4-18.1-7.3s-6.9-11.1-6.9-18.7v-22.7c-14.4,16.4-32,29.3-52.5,38.7c-20.6,9.3-42.9,14-67,14
				c-31.1,0-59-6.7-83.7-20s-44.1-32.8-58.1-58.3c-14-25.6-21-56.1-21-91.7V124.1c0-7.1,2.4-13.1,7.2-18c4.8-4.9,10.7-7.3,17.7-7.3
				c7.4,0,13.6,2.4,18.4,7.3s7.2,10.9,7.2,18v173.3c0,39.6,10.8,69.7,32.5,90.3c21.7,20.7,50,31,85,31c21.4,0,40.8-4.2,58.1-12.7
				c17.3-8.4,31-20.1,41-35c10.1-14.9,15.1-31.4,15.1-49.7V124.1c0-7.6,2.3-13.7,6.9-18.3s10.6-7,18.1-7
				C702.9,98.7,709,101.1,713.9,105.7z"/>
		</g>
		<g class="st0">
			<path class="st11" d="M1077.4,118.4c25,15.3,44.3,36.6,58.1,63.7c13.8,27.1,20.7,58,20.7,92.7c0,7.1-2.2,12.8-6.6,17
				s-10.1,6.3-17.1,6.3H867.2c3.5,36.4,17.5,66,42,88.7s55.2,34,91.9,34c15.8,0,31.6-2.8,47.6-8.3c16-5.6,28.8-12.6,38.4-21
				c5.7-4.4,11.6-6.7,17.7-6.7c4.8,0,9.6,1.8,14.4,5.3c5.7,5.3,8.5,11.3,8.5,18c0,5.8-2.4,10.9-7.2,15.3
				c-14.4,12.4-32.8,22.8-55.2,31c-22.3,8.2-43.8,12.3-64.3,12.3c-35,0-66.3-7.9-93.9-23.7c-27.6-15.8-49.1-37.8-64.7-66
				c-15.5-28.2-23.3-60.1-23.3-95.7c0-36,7.3-68.1,22-96.3s35-50.2,61.1-66c26-15.8,55.7-23.7,89-23.7
				C1023.7,95.4,1052.4,103.1,1077.4,118.4z M908.6,172.7c-21.9,20.9-35.2,48.4-40.1,82.7h240.3c-3.5-34.2-15.8-61.8-36.8-82.7
				s-47.9-31.3-80.8-31.3C958.1,141.4,930.5,151.9,908.6,172.7z"/>
		</g>
		<g class="st0">
			<path class="st11" d="M1485.8,119.1c27.6,15.8,49.2,37.8,65,66s23.6,60.3,23.6,96.3v136c0,35.6-7.8,67.8-23.3,96.7
				s-37.1,51.7-64.7,68.3s-58.7,25-93.2,25c-33.7,0-63.7-6.4-90-19.3c-26.3-12.9-48.4-30.9-66.3-54c-3.9-4.4-5.9-9.6-5.9-15.3
				c0-6.7,3.1-12.4,9.2-17.3c4.4-3.1,9.2-4.7,14.4-4.7c3.9,0,7.9,1,11.8,3s7,4.6,9.2,7.7c13.1,16.9,29.8,30,49.9,39.3
				s42.9,14,68.3,14c24.5,0,46.7-6.1,66.6-18.3s35.6-29.3,46.9-51.3c11.4-22,17.1-47.2,17.1-75.7v-30
				c-13.1,25.3-31.7,45.2-55.8,59.7c-24.1,14.4-51.4,21.7-82.1,21.7c-34.1,0-64.7-7.9-91.6-23.7c-26.9-15.8-47.9-37.8-63-66
				s-22.7-60.1-22.7-95.7c0-36,7.9-68.1,23.6-96.3c15.8-28.2,37.5-50.2,65.3-66s59-23.7,93.6-23.7
				C1426.9,95.4,1458.2,103.3,1485.8,119.1z M1460.2,402.4c20.1-11.8,35.9-28.2,47.3-49.3c11.4-21.1,17.1-45,17.1-71.7
				s-5.7-50.6-17.1-71.7s-27.1-37.7-47.3-49.7c-20.1-12-42.9-18-68.3-18c-25.8,0-48.8,6-68.9,18s-35.9,28.6-47.3,49.7
				s-17.1,45-17.1,71.7s5.7,50.6,17.1,71.7s27.1,37.6,47.3,49.3c20.1,11.8,43.1,17.7,68.9,17.7
				C1417.3,420.1,1440,414.2,1460.2,402.4z"/>
		</g>
		<g class="st0">
			<path class="st11" d="M1741.2,442.4c-27.1-16.2-48.5-38.4-64-66.7c-15.5-28.2-23.3-59.7-23.3-94.3c0-35.6,7.4-67.4,22.3-95.7
				c14.9-28.2,35.5-50.3,61.7-66.3c26.3-16,55.8-24,88.6-24c54.7,0,99.1,21.3,133.3,64c3.5,4,5.3,8.7,5.3,14
				c0,7.1-3.7,13.3-11.2,18.7c-3.9,2.7-8.1,4-12.5,4c-6.6,0-12.9-3.3-19-10c-13.1-14.7-27.6-25.7-43.3-33s-33.3-11-52.5-11
				c-24.1,0-45.5,5.9-64.3,17.7s-33.4,28.3-43.7,49.7c-10.3,21.3-15.4,45.3-15.4,72c0,26.2,5.5,49.9,16.4,71s26.3,37.7,46,49.7
				s42.2,18,67.6,18c35,0,63.2-9.6,84.7-28.7c5.7-4.9,11.6-7.3,17.7-7.3c5.3,0,10.1,1.8,14.4,5.3c6.1,5.3,9.2,11.3,9.2,18
				c0,5.8-2.2,10.7-6.6,14.7c-31.5,29.8-71.4,44.7-119.5,44.7C1799,466.7,1768.3,458.6,1741.2,442.4z"/>
		</g>
		<g class="st0">
			<path class="st12" d="M292,284.5c11.4,15.6,17.1,33.6,17.1,54c0,20-5,37.9-15.1,53.7c-10.1,15.8-24,28.1-41.7,37
				s-37.8,13.3-60.1,13.3H28.8c-7.4,0-13.6-2.4-18.4-7.3s-7.2-11.1-7.2-18.7V103.2c0.4-7.6,3.1-13.7,7.9-18.3c4.8-4.7,10.7-7,17.7-7
				h0.7h160.2c30.2,0,55,8.9,74.5,26.7s29.2,40.7,29.2,68.7c0,18.7-4.2,34.3-12.5,47s-20.1,22.3-35.5,29
				C265.1,257.2,280.7,269,292,284.5z M228.7,139.2c-10.3-9.8-23.3-14.7-39.1-14.7H53.7v106h138.5c15.3,0,27.8-5.1,37.4-15.3
				s14.4-23.3,14.4-39.3C244.1,161.2,239,149,228.7,139.2z M241.2,379.5c12.5-10.4,18.7-25,18.7-43.7c0-19.6-6.2-34.7-18.7-45.3
				c-12.5-10.7-28.8-16-48.9-16H53.7v120.7h138.5C212.4,395.2,228.7,390,241.2,379.5z"/>
		</g>
		<g class="st0">
			<path class="st12" d="M714.2,84.9c4.8,4.7,7.2,10.8,7.2,18.3v313.3c0,7.6-2.4,13.8-7.2,18.7c-4.8,4.9-10.9,7.3-18.4,7.3
				c-7.4,0-13.5-2.4-18.1-7.3s-6.9-11.1-6.9-18.7v-22.7c-14.4,16.4-32,29.3-52.5,38.7c-20.6,9.3-42.9,14-67,14
				c-31.1,0-59-6.7-83.7-20s-44.1-32.8-58.1-58.3c-14-25.6-21-56.1-21-91.7V103.2c0-7.1,2.4-13.1,7.2-18c4.8-4.9,10.7-7.3,17.7-7.3
				c7.4,0,13.6,2.4,18.4,7.3s7.2,10.9,7.2,18v173.3c0,39.6,10.8,69.7,32.5,90.3c21.7,20.7,50,31,85,31c21.4,0,40.8-4.2,58.1-12.7
				c17.3-8.4,31-20.1,41-35c10.1-14.9,15.1-31.4,15.1-49.7V103.2c0-7.6,2.3-13.7,6.9-18.3s10.6-7,18.1-7
				C703.3,77.9,709.4,80.2,714.2,84.9z"/>
		</g>
		<g class="st0">
			<path class="st12" d="M1077.7,97.5c25,15.3,44.3,36.6,58.1,63.7c13.8,27.1,20.7,58,20.7,92.7c0,7.1-2.2,12.8-6.6,17
				s-10.1,6.3-17.1,6.3H867.6c3.5,36.4,17.5,66,42,88.7c24.5,22.7,55.2,34,91.9,34c15.8,0,31.6-2.8,47.6-8.3
				c16-5.6,28.8-12.6,38.4-21c5.7-4.4,11.6-6.7,17.7-6.7c4.8,0,9.6,1.8,14.4,5.3c5.7,5.3,8.5,11.3,8.5,18c0,5.8-2.4,10.9-7.2,15.3
				c-14.4,12.4-32.8,22.8-55.2,31c-22.3,8.2-43.8,12.3-64.3,12.3c-35,0-66.3-7.9-93.9-23.7c-27.6-15.8-49.1-37.8-64.7-66
				c-15.5-28.2-23.3-60.1-23.3-95.7c0-36,7.3-68.1,22-96.3s35-50.2,61.1-66c26-15.8,55.7-23.7,89-23.7
				C1024.1,74.5,1052.8,82.2,1077.7,97.5z M909,151.9c-21.9,20.9-35.2,48.4-40.1,82.7h240.3c-3.5-34.2-15.8-61.8-36.8-82.7
				s-47.9-31.3-80.8-31.3C958.4,120.5,930.9,131,909,151.9z"/>
		</g>
		<g class="st0">
			<path class="st12" d="M1486.2,98.2c27.6,15.8,49.2,37.8,65,66s23.6,60.3,23.6,96.3v136c0,35.6-7.8,67.8-23.3,96.7
				s-37.1,51.7-64.7,68.3s-58.7,25-93.2,25c-33.7,0-63.7-6.4-90-19.3c-26.3-12.9-48.4-30.9-66.3-54c-3.9-4.4-5.9-9.6-5.9-15.3
				c0-6.7,3.1-12.4,9.2-17.3c4.4-3.1,9.2-4.7,14.4-4.7c3.9,0,7.9,1,11.8,3s7,4.6,9.2,7.7c13.1,16.9,29.8,30,49.9,39.3
				s42.9,14,68.3,14c24.5,0,46.7-6.1,66.6-18.3s35.6-29.3,46.9-51.3c11.4-22,17.1-47.2,17.1-75.7v-30
				c-13.1,25.3-31.7,45.2-55.8,59.7c-24.1,14.4-51.4,21.7-82.1,21.7c-34.1,0-64.7-7.9-91.6-23.7c-26.9-15.8-47.9-37.8-63-66
				s-22.7-60.1-22.7-95.7c0-36,7.9-68.1,23.6-96.3c15.8-28.2,37.5-50.2,65.3-66s59-23.7,93.6-23.7
				C1427.3,74.5,1458.6,82.4,1486.2,98.2z M1460.5,381.5c20.1-11.8,35.9-28.2,47.3-49.3c11.4-21.1,17.1-45,17.1-71.7
				s-5.7-50.6-17.1-71.7s-27.1-37.7-47.3-49.7c-20.1-12-42.9-18-68.3-18c-25.8,0-48.8,6-68.9,18s-35.9,28.6-47.3,49.7
				s-17.1,45-17.1,71.7s5.7,50.6,17.1,71.7s27.1,37.6,47.3,49.3c20.1,11.8,43.1,17.7,68.9,17.7
				C1417.6,399.2,1440.4,393.3,1460.5,381.5z"/>
		</g>
		<g class="st0">
			<path class="st12" d="M1741.6,421.5c-27.1-16.2-48.5-38.4-64-66.7c-15.5-28.2-23.3-59.7-23.3-94.3c0-35.6,7.4-67.4,22.3-95.7
				c14.9-28.2,35.5-50.3,61.7-66.3c26.3-16,55.8-24,88.6-24c54.7,0,99.1,21.3,133.3,64c3.5,4,5.3,8.7,5.3,14
				c0,7.1-3.7,13.3-11.2,18.7c-3.9,2.7-8.1,4-12.5,4c-6.6,0-12.9-3.3-19-10c-13.1-14.7-27.6-25.7-43.3-33s-33.3-11-52.5-11
				c-24.1,0-45.5,5.9-64.3,17.7s-33.4,28.3-43.7,49.7c-10.3,21.3-15.4,45.3-15.4,72c0,26.2,5.5,49.9,16.4,71s26.3,37.7,46,49.7
				s42.2,18,67.6,18c35,0,63.2-9.6,84.7-28.7c5.7-4.9,11.6-7.3,17.7-7.3c5.3,0,10.1,1.8,14.4,5.3c6.1,5.3,9.2,11.3,9.2,18
				c0,5.8-2.2,10.7-6.6,14.7c-31.5,29.8-71.4,44.7-119.5,44.7C1799.3,445.9,1768.7,437.8,1741.6,421.5z"/>
		</g>
		<g class="st0">
			<path class="st13" d="M291.8,263.7c11.4,15.6,17.1,33.6,17.1,54c0,20-5,37.9-15.1,53.7c-10.1,15.8-24,28.1-41.7,37
				s-37.8,13.3-60.1,13.3H28.5c-7.4,0-13.6-2.4-18.4-7.3s-7.2-11.1-7.2-18.7V82.3C3.3,74.8,6,68.7,10.8,64s10.7-7,17.7-7h0.7h160.2
				c30.2,0,55,8.9,74.5,26.7s29.2,40.7,29.2,68.7c0,18.7-4.2,34.3-12.5,47s-20.1,22.3-35.5,29C264.9,236.3,280.4,248.1,291.8,263.7z
				 M228.4,118.3c-10.3-9.8-23.3-14.7-39.1-14.7H53.5v106H192c15.3,0,27.8-5.1,37.4-15.3c9.6-10.2,14.4-23.3,14.4-39.3
				C243.9,140.3,238.7,128.1,228.4,118.3z M240.9,358.7c12.5-10.4,18.7-25,18.7-43.7c0-19.6-6.2-34.7-18.7-45.3
				c-12.5-10.7-28.8-16-48.9-16H53.5v120.7H192C212.1,374.3,228.4,369.1,240.9,358.7z"/>
		</g>
		<g class="st0">
			<path class="st13" d="M714,64c4.8,4.7,7.2,10.8,7.2,18.3v313.3c0,7.6-2.4,13.8-7.2,18.7c-4.8,4.9-10.9,7.3-18.4,7.3
				c-7.4,0-13.5-2.4-18.1-7.3s-6.9-11.1-6.9-18.7V373c-14.4,16.4-32,29.3-52.5,38.7c-20.6,9.3-42.9,14-67,14c-31.1,0-59-6.7-83.7-20
				s-44.1-32.8-58.1-58.3c-14-25.6-21-56.1-21-91.7V82.3c0-7.1,2.4-13.1,7.2-18c4.8-4.9,10.7-7.3,17.7-7.3c7.4,0,13.6,2.4,18.4,7.3
				s7.2,10.9,7.2,18v173.3c0,39.6,10.8,69.7,32.5,90.3c21.7,20.7,50,31,85,31c21.4,0,40.8-4.2,58.1-12.7c17.3-8.4,31-20.1,41-35
				c10.1-14.9,15.1-31.4,15.1-49.7V82.3c0-7.6,2.3-13.7,6.9-18.3s10.6-7,18.1-7C703,57,709.2,59.3,714,64z"/>
		</g>
		<g class="st0">
			<path class="st13" d="M1077.5,76.7c25,15.3,44.3,36.6,58.1,63.7c13.8,27.1,20.7,58,20.7,92.7c0,7.1-2.2,12.8-6.6,17
				s-10.1,6.3-17.1,6.3H867.4c3.5,36.4,17.5,66,42,88.7c24.5,22.7,55.2,34,91.9,34c15.8,0,31.6-2.8,47.6-8.3
				c16-5.6,28.8-12.6,38.4-21c5.7-4.4,11.6-6.7,17.7-6.7c4.8,0,9.6,1.8,14.4,5.3c5.7,5.3,8.5,11.3,8.5,18c0,5.8-2.4,10.9-7.2,15.3
				c-14.4,12.4-32.8,22.8-55.2,31c-22.3,8.2-43.8,12.3-64.3,12.3c-35,0-66.3-7.9-93.9-23.7c-27.6-15.8-49.1-37.8-64.7-66
				c-15.5-28.2-23.3-60.1-23.3-95.7c0-36,7.3-68.1,22-96.3s35-50.2,61.1-66c26-15.8,55.7-23.7,89-23.7
				C1023.9,53.7,1052.5,61.3,1077.5,76.7z M908.7,131c-21.9,20.9-35.2,48.4-40.1,82.7H1109c-3.5-34.2-15.8-61.8-36.8-82.7
				s-47.9-31.3-80.8-31.3C958.2,99.7,930.6,110.1,908.7,131z"/>
		</g>
		<g class="st0">
			<path class="st13" d="M1485.9,77.3c27.6,15.8,49.2,37.8,65,66s23.6,60.3,23.6,96.3v136c0,35.6-7.8,67.8-23.3,96.7
				c-15.5,28.9-37.1,51.7-64.7,68.3s-58.7,25-93.2,25c-33.7,0-63.7-6.4-90-19.3c-26.3-12.9-48.4-30.9-66.3-54
				c-3.9-4.4-5.9-9.6-5.9-15.3c0-6.7,3.1-12.4,9.2-17.3c4.4-3.1,9.2-4.7,14.4-4.7c3.9,0,7.9,1,11.8,3s7,4.6,9.2,7.7
				c13.1,16.9,29.8,30,49.9,39.3s42.9,14,68.3,14c24.5,0,46.7-6.1,66.6-18.3s35.6-29.3,46.9-51.3c11.4-22,17.1-47.2,17.1-75.7v-30
				c-13.1,25.3-31.7,45.2-55.8,59.7c-24.1,14.4-51.4,21.7-82.1,21.7c-34.1,0-64.7-7.9-91.6-23.7c-26.9-15.8-47.9-37.8-63-66
				s-22.7-60.1-22.7-95.7c0-36,7.9-68.1,23.6-96.3c15.8-28.2,37.5-50.2,65.3-66s59-23.7,93.6-23.7
				C1427,53.7,1458.3,61.6,1485.9,77.3z M1460.3,360.7c20.1-11.8,35.9-28.2,47.3-49.3c11.4-21.1,17.1-45,17.1-71.7
				s-5.7-50.6-17.1-71.7s-27.1-37.7-47.3-49.7c-20.1-12-42.9-18-68.3-18c-25.8,0-48.8,6-68.9,18s-35.9,28.6-47.3,49.7
				s-17.1,45-17.1,71.7s5.7,50.6,17.1,71.7s27.1,37.6,47.3,49.3c20.1,11.8,43.1,17.7,68.9,17.7
				C1417.4,378.3,1440.2,372.4,1460.3,360.7z"/>
		</g>
		<g class="st0">
			<path class="st13" d="M1741.3,400.7c-27.1-16.2-48.5-38.4-64-66.7c-15.5-28.2-23.3-59.7-23.3-94.3c0-35.6,7.4-67.4,22.3-95.7
				c14.9-28.2,35.5-50.3,61.7-66.3c26.3-16,55.8-24,88.6-24c54.7,0,99.1,21.3,133.3,64c3.5,4,5.3,8.7,5.3,14
				c0,7.1-3.7,13.3-11.2,18.7c-3.9,2.7-8.1,4-12.5,4c-6.6,0-12.9-3.3-19-10c-13.1-14.7-27.6-25.7-43.3-33s-33.3-11-52.5-11
				c-24.1,0-45.5,5.9-64.3,17.7s-33.4,28.3-43.7,49.7c-10.3,21.3-15.4,45.3-15.4,72c0,26.2,5.5,49.9,16.4,71s26.3,37.7,46,49.7
				s42.2,18,67.6,18c35,0,63.2-9.6,84.7-28.7c5.7-4.9,11.6-7.3,17.7-7.3c5.3,0,10.1,1.8,14.4,5.3c6.1,5.3,9.2,11.3,9.2,18
				c0,5.8-2.2,10.7-6.6,14.7c-31.5,29.8-71.4,44.7-119.5,44.7C1799.1,425,1768.5,416.9,1741.3,400.7z"/>
		</g>
		<g class="st0">
			<path class="st14" d="M291,239.9c11.4,15.6,17.1,33.6,17.1,54c0,20-5,37.9-15.1,53.7c-10.1,15.8-24,28.1-41.7,37
				s-37.8,13.3-60.1,13.3H27.8c-7.4,0-13.6-2.4-18.4-7.3s-7.2-11.1-7.2-18.7V58.6c0.4-7.6,3-13.7,7.8-18.4s10.7-7,17.7-7h0.7h160.2
				c30.2,0,55,8.9,74.5,26.7s29.2,40.7,29.2,68.7c0,18.7-4.2,34.3-12.5,47s-20.1,22.3-35.5,29C264.1,212.6,279.7,224.4,291,239.9z
				 M227.7,94.6c-10.3-9.8-23.3-14.7-39.1-14.7H52.7v106h138.5c15.3,0,27.8-5.1,37.4-15.3s14.4-23.3,14.4-39.3
				C243.1,116.6,238,104.4,227.7,94.6z M240.2,334.9c12.5-10.4,18.7-25,18.7-43.7c0-19.6-6.2-34.7-18.7-45.3
				c-12.5-10.7-28.8-16-48.9-16H52.7v120.7h138.5C211.4,350.6,227.7,345.4,240.2,334.9z"/>
		</g>
		<g class="st0">
			<path class="st14" d="M713.2,40.2c4.8,4.7,7.2,10.8,7.2,18.3v313.3c0,7.6-2.4,13.8-7.2,18.7c-4.8,4.9-10.9,7.3-18.4,7.3
				c-7.4,0-13.5-2.4-18.1-7.3s-6.9-11.1-6.9-18.7v-22.7c-14.4,16.4-32,29.3-52.5,38.7c-20.6,9.3-42.9,14-67,14
				c-31.1,0-59-6.7-83.7-20s-44.1-32.8-58.1-58.3c-14-25.6-21-56.1-21-91.7V58.6c0-7.1,2.4-13.1,7.2-18c4.8-4.9,10.7-7.3,17.7-7.3
				c7.4,0,13.6,2.4,18.4,7.3s7.2,10.9,7.2,18v173.3c0,39.6,10.8,69.7,32.5,90.3c21.7,20.7,50,31,85,31c21.4,0,40.8-4.2,58.1-12.7
				c17.3-8.4,31-20.1,41-35c10.1-14.9,15.1-31.4,15.1-49.7V58.6c0-7.6,2.3-13.7,6.9-18.3s10.6-7,18.1-7
				C702.3,33.2,708.4,35.6,713.2,40.2z"/>
		</g>
		<g class="st0">
			<path class="st14" d="M1076.7,52.9c25,15.3,44.3,36.6,58.1,63.7c13.8,27.1,20.7,58,20.7,92.7c0,7.1-2.2,12.8-6.6,17
				s-10.1,6.3-17.1,6.3H866.6c3.5,36.4,17.5,66,42,88.7c24.5,22.7,55.2,34,91.9,34c15.8,0,31.6-2.8,47.6-8.3
				c16-5.6,28.8-12.6,38.4-21c5.7-4.4,11.6-6.7,17.7-6.7c4.8,0,9.6,1.8,14.4,5.3c5.7,5.3,8.5,11.3,8.5,18c0,5.8-2.4,10.9-7.2,15.3
				c-14.4,12.4-32.8,22.8-55.2,31c-22.3,8.2-43.8,12.3-64.3,12.3c-35,0-66.3-7.9-93.9-23.7c-27.6-15.8-49.1-37.8-64.7-66
				c-15.5-28.2-23.3-60.1-23.3-95.7c0-36,7.3-68.1,22-96.3s35-50.2,61.1-66c26-15.8,55.7-23.7,89-23.7
				C1023.1,29.9,1051.8,37.6,1076.7,52.9z M908,107.2c-21.9,20.9-35.2,48.4-40.1,82.7h240.3c-3.5-34.2-15.8-61.8-36.8-82.7
				s-47.9-31.3-80.8-31.3C957.4,75.9,929.9,86.4,908,107.2z"/>
		</g>
		<g class="st0">
			<path class="st14" d="M1485.2,53.6c27.6,15.8,49.2,37.8,65,66s23.6,60.3,23.6,96.3v136c0,35.6-7.8,67.8-23.3,96.7
				c-15.5,28.9-37.1,51.7-64.7,68.3c-27.6,16.7-58.7,25-93.2,25c-33.7,0-63.7-6.4-90-19.3c-26.3-12.9-48.4-30.9-66.3-54
				c-3.9-4.4-5.9-9.6-5.9-15.3c0-6.7,3.1-12.4,9.2-17.3c4.4-3.1,9.2-4.7,14.4-4.7c3.9,0,7.9,1,11.8,3s7,4.6,9.2,7.7
				c13.1,16.9,29.8,30,49.9,39.3s42.9,14,68.3,14c24.5,0,46.7-6.1,66.6-18.3c19.9-12.2,35.6-29.3,46.9-51.3
				c11.4-22,17.1-47.2,17.1-75.7v-30c-13.1,25.3-31.7,45.2-55.8,59.7c-24.1,14.4-51.4,21.7-82.1,21.7c-34.1,0-64.7-7.9-91.6-23.7
				c-26.9-15.8-47.9-37.8-63-66s-22.7-60.1-22.7-95.7c0-36,7.9-68.1,23.6-96.3c15.8-28.2,37.5-50.2,65.3-66s59-23.7,93.6-23.7
				C1426.3,29.9,1457.6,37.8,1485.2,53.6z M1459.5,336.9c20.1-11.8,35.9-28.2,47.3-49.3c11.4-21.1,17.1-45,17.1-71.7
				s-5.7-50.6-17.1-71.7s-27.1-37.7-47.3-49.7c-20.1-12-42.9-18-68.3-18c-25.8,0-48.8,6-68.9,18s-35.9,28.6-47.3,49.7
				s-17.1,45-17.1,71.7s5.7,50.6,17.1,71.7s27.1,37.6,47.3,49.3c20.1,11.8,43.1,17.7,68.9,17.7
				C1416.6,354.6,1439.4,348.7,1459.5,336.9z"/>
		</g>
		<g class="st0">
			<path class="st14" d="M1740.6,376.9c-27.1-16.2-48.5-38.4-64-66.7c-15.5-28.2-23.3-59.7-23.3-94.3c0-35.6,7.4-67.4,22.3-95.7
				c14.9-28.2,35.5-50.3,61.7-66.3c26.3-16,55.8-24,88.6-24c54.7,0,99.1,21.3,133.3,64c3.5,4,5.3,8.7,5.3,14
				c0,7.1-3.7,13.3-11.2,18.7c-3.9,2.7-8.1,4-12.5,4c-6.6,0-12.9-3.3-19-10c-13.1-14.7-27.6-25.7-43.3-33s-33.3-11-52.5-11
				c-24.1,0-45.5,5.9-64.3,17.7s-33.4,28.3-43.7,49.7c-10.3,21.3-15.4,45.3-15.4,72c0,26.2,5.5,49.9,16.4,71s26.3,37.7,46,49.7
				s42.2,18,67.6,18c35,0,63.2-9.6,84.7-28.7c5.7-4.9,11.6-7.3,17.7-7.3c5.3,0,10.1,1.8,14.4,5.3c6.1,5.3,9.2,11.3,9.2,18
				c0,5.8-2.2,10.7-6.6,14.7c-31.5,29.8-71.4,44.7-119.5,44.7C1798.3,401.2,1767.7,393.1,1740.6,376.9z"/>
		</g>
		<g class="st0">
			<linearGradient id="SVGID_1_" gradientUnits="userSpaceOnUse" x1="2.9" y1="190.95" x2="308.9" y2="190.95">
				<stop  offset="0" style="stop-color:#FFFFFF"/>
				<stop  offset="0" style="stop-color:#EBEBEB"/>
			</linearGradient>
			<path class="st15" d="M291.8,215.3c11.4,15.6,17.1,33.6,17.1,54c0,20-5,37.9-15.1,53.7c-10.1,15.8-24,28.1-41.7,37
				s-37.8,13.3-60.1,13.3H28.5c-7.4,0-13.6-2.4-18.4-7.3s-7.2-11.1-7.2-18.7V33.9c0.4-7.6,3.1-13.7,7.9-18.3c4.8-4.7,10.7-7,17.7-7
				h0.7h160.2c30.2,0,55,8.9,74.5,26.7S293.1,76,293.1,104c0,18.7-4.2,34.3-12.5,47s-20.1,22.3-35.5,29
				C264.9,187.9,280.4,199.7,291.8,215.3z M228.4,69.9c-10.3-9.8-23.3-14.7-39.1-14.7H53.5v106H192c15.3,0,27.8-5.1,37.4-15.3
				c9.6-10.2,14.4-23.3,14.4-39.3C243.9,91.9,238.7,79.7,228.4,69.9z M240.9,310.3c12.5-10.4,18.7-25,18.7-43.7
				c0-19.6-6.2-34.7-18.7-45.3c-12.5-10.7-28.8-16-48.9-16H53.5V326H192C212.1,325.9,228.4,320.7,240.9,310.3z"/>
		</g>
		<g class="st0">
			<linearGradient id="SVGID_2_" gradientUnits="userSpaceOnUse" x1="388.3" y1="192.9" x2="721.2" y2="192.9">
				<stop  offset="0" style="stop-color:#FFFFFF"/>
				<stop  offset="0" style="stop-color:#EBEBEB"/>
			</linearGradient>
			<path class="st16" d="M714,15.6c4.8,4.7,7.2,10.8,7.2,18.3v313.3c0,7.6-2.4,13.8-7.2,18.7c-4.8,4.9-10.9,7.3-18.4,7.3
				c-7.4,0-13.5-2.4-18.1-7.3s-6.9-11.1-6.9-18.7v-22.7c-14.4,16.4-32,29.3-52.5,38.7c-20.6,9.3-42.9,14-67,14
				c-31.1,0-59-6.7-83.7-20s-44.1-32.8-58.1-58.3c-14-25.6-21-56.1-21-91.7V33.9c0-7.1,2.4-13.1,7.2-18c4.8-4.9,10.7-7.3,17.7-7.3
				c7.4,0,13.6,2.4,18.4,7.3s7.2,10.9,7.2,18v173.3c0,39.6,10.8,69.7,32.5,90.3c21.7,20.7,50,31,85,31c21.4,0,40.8-4.2,58.1-12.7
				c17.3-8.4,31-20.1,41-35c10.1-14.9,15.1-31.4,15.1-49.7V33.9c0-7.6,2.3-13.7,6.9-18.3s10.6-7,18.1-7C703,8.6,709.2,10.9,714,15.6
				z"/>
		</g>
		<g class="st0">
			<linearGradient id="SVGID_3_" gradientUnits="userSpaceOnUse" x1="819.3001" y1="190.9" x2="1156.2999" y2="190.9">
				<stop  offset="0" style="stop-color:#FFFFFF"/>
				<stop  offset="0" style="stop-color:#EBEBEB"/>
			</linearGradient>
			<path class="st17" d="M1077.5,28.3c25,15.3,44.3,36.6,58.1,63.7c13.8,27.1,20.7,58,20.7,92.7c0,7.1-2.2,12.8-6.6,17
				s-10.1,6.3-17.1,6.3H867.4c3.5,36.4,17.5,66,42,88.7s55.2,34,91.9,34c15.8,0,31.6-2.8,47.6-8.3c16-5.6,28.8-12.6,38.4-21
				c5.7-4.4,11.6-6.7,17.7-6.7c4.8,0,9.6,1.8,14.4,5.3c5.7,5.3,8.5,11.3,8.5,18c0,5.8-2.4,10.9-7.2,15.3
				c-14.4,12.4-32.8,22.8-55.2,31c-22.3,8.2-43.8,12.3-64.3,12.3c-35,0-66.3-7.9-93.9-23.7c-27.6-15.8-49.1-37.8-64.7-66
				c-15.5-28.2-23.3-60.1-23.3-95.7c0-36,7.3-68.1,22-96.3s35-50.2,61.1-66c26-15.8,55.7-23.7,89-23.7
				C1023.9,5.3,1052.5,12.9,1077.5,28.3z M908.7,82.6c-21.9,20.9-35.2,48.4-40.1,82.7H1109c-3.5-34.2-15.8-61.8-36.8-82.7
				s-47.9-31.3-80.8-31.3C958.2,51.3,930.6,61.7,908.7,82.6z"/>
		</g>
		<g class="st0">
			<linearGradient id="SVGID_4_" gradientUnits="userSpaceOnUse" x1="1209.3" y1="261.25" x2="1574.5" y2="261.25">
				<stop  offset="0" style="stop-color:#FFFFFF"/>
				<stop  offset="0" style="stop-color:#EBEBEB"/>
			</linearGradient>
			<path class="st18" d="M1485.9,28.9c27.6,15.8,49.2,37.8,65,66s23.6,60.3,23.6,96.3v136c0,35.6-7.8,67.8-23.3,96.7
				c-15.5,28.9-37.1,51.7-64.7,68.3c-27.6,16.7-58.7,25-93.2,25c-33.7,0-63.7-6.4-90-19.3s-48.4-30.9-66.3-54
				c-3.9-4.4-5.9-9.6-5.9-15.3c0-6.7,3.1-12.4,9.2-17.3c4.4-3.1,9.2-4.7,14.4-4.7c3.9,0,7.9,1,11.8,3s7,4.6,9.2,7.7
				c13.1,16.9,29.8,30,49.9,39.3s42.9,14,68.3,14c24.5,0,46.7-6.1,66.6-18.3c19.9-12.2,35.6-29.3,46.9-51.3
				c11.4-22,17.1-47.2,17.1-75.7v-30c-13.1,25.3-31.7,45.2-55.8,59.7c-24.1,14.4-51.4,21.7-82.1,21.7c-34.1,0-64.7-7.9-91.6-23.7
				c-26.9-15.8-47.9-37.8-63-66s-22.7-60.1-22.7-95.7c0-36,7.9-68.1,23.6-96.3c15.8-28.2,37.5-50.2,65.3-66s59-23.7,93.6-23.7
				C1427,5.3,1458.3,13.2,1485.9,28.9z M1460.3,312.3c20.1-11.8,35.9-28.2,47.3-49.3c11.4-21.1,17.1-45,17.1-71.7
				s-5.7-50.6-17.1-71.7s-27.1-37.7-47.3-49.7c-20.1-12-42.9-18-68.3-18c-25.8,0-48.8,6-68.9,18s-35.9,28.6-47.3,49.7
				s-17.1,45-17.1,71.7s5.7,50.6,17.1,71.7s27.1,37.6,47.3,49.3c20.1,11.8,43.1,17.7,68.9,17.7
				C1417.4,329.9,1440.2,324.1,1460.3,312.3z"/>
		</g>
		<g class="st0">
			<linearGradient id="SVGID_5_" gradientUnits="userSpaceOnUse" x1="1654" y1="191.05" x2="1965.2001" y2="191.05">
				<stop  offset="0" style="stop-color:#FFFFFF"/>
				<stop  offset="0" style="stop-color:#EBEBEB"/>
			</linearGradient>
			<path class="st19" d="M1741.3,352.3c-27.1-16.2-48.5-38.4-64-66.7c-15.5-28.2-23.3-59.7-23.3-94.3c0-35.6,7.4-67.4,22.3-95.7
				c14.9-28.2,35.5-50.3,61.7-66.3c26.3-16,55.8-24,88.6-24c54.7,0,99.1,21.3,133.3,64c3.5,4,5.3,8.7,5.3,14
				c0,7.1-3.7,13.3-11.2,18.7c-3.9,2.7-8.1,4-12.5,4c-6.6,0-12.9-3.3-19-10c-13.1-14.7-27.6-25.7-43.3-33s-33.3-11-52.5-11
				c-24.1,0-45.5,5.9-64.3,17.7s-33.4,28.3-43.7,49.7c-10.3,21.3-15.4,45.3-15.4,72c0,26.2,5.5,49.9,16.4,71s26.3,37.7,46,49.7
				s42.2,18,67.6,18c35,0,63.2-9.6,84.7-28.7c5.7-4.9,11.6-7.3,17.7-7.3c5.3,0,10.1,1.8,14.4,5.3c6.1,5.3,9.2,11.3,9.2,18
				c0,5.8-2.2,10.7-6.6,14.7c-31.5,29.8-71.4,44.7-119.5,44.7C1799.1,376.6,1768.5,368.5,1741.3,352.3z"/>
		</g>
	</g>
</g>
</svg>
