<?xml version="1.0" standalone="no"?>
<!DOCTYPE svg PUBLIC "-//W3C//DTD SVG 20010904//EN"
 "http://www.w3.org/TR/2001/REC-SVG-20010904/DTD/svg10.dtd">
<svg version="1.0" xmlns="http://www.w3.org/2000/svg"
 width="155.000000pt" height="38.000000pt" viewBox="0 0 155.000000 38.000000"
 preserveAspectRatio="xMidYMid meet">

<g transform="translate(0.000000,38.000000) scale(0.100000,-0.100000)"
fill="#000000" stroke="none">
<path d="M370 195 l0 -85 44 0 c64 0 96 29 96 85 0 56 -32 85 -96 85 l-44 0 0
-85z m98 43 c7 -7 12 -27 12 -45 0 -34 -21 -53 -59 -53 -19 0 -21 6 -21 55 0
54 1 55 28 55 15 0 33 -5 40 -12z"/>
<path d="M970 251 c0 -11 -6 -22 -12 -25 -10 -5 -10 -7 0 -12 6 -3 12 -22 12
-43 0 -20 5 -42 12 -49 17 -17 48 -15 48 3 0 8 -7 15 -15 15 -10 0 -15 10 -15
30 0 18 6 33 15 36 8 4 15 10 15 15 0 5 -7 9 -15 9 -8 0 -15 9 -15 20 0 11 -7
20 -15 20 -8 0 -15 -9 -15 -19z"/>
<path d="M853 229 c-33 -12 -28 -27 8 -25 19 0 34 -5 37 -13 3 -9 0 -11 -7 -6
-20 12 -59 -3 -66 -26 -10 -31 11 -48 61 -47 l44 1 0 47 c0 60 -30 87 -77 69z
m45 -77 c5 -17 -27 -27 -41 -13 -9 9 -8 14 3 21 18 11 32 8 38 -8z"/>
<path d="M550 214 c-20 -23 -16 -75 5 -90 26 -20 69 -17 88 4 21 23 22 66 1
86 -20 20 -78 21 -94 0z m73 -26 c15 -23 1 -48 -28 -48 -14 0 -25 2 -25 4 0 2
-3 11 -6 19 -6 16 23 50 39 44 6 -2 15 -10 20 -19z"/>
<path d="M680 168 c0 -52 2 -58 21 -58 18 0 20 4 14 29 -7 33 9 71 29 71 17 0
26 -22 26 -66 0 -24 5 -34 15 -34 11 0 15 11 15 41 0 65 -12 78 -70 77 l-50
-1 0 -59z"/>
<path d="M1067 212 c-52 -57 25 -134 88 -89 24 19 3 32 -26 16 -17 -9 -25 -8
-37 5 -15 15 -12 16 31 16 50 0 58 11 37 51 -14 25 -71 26 -93 1z m68 -12 c4
-6 -5 -10 -19 -10 -14 0 -26 5 -26 10 0 6 9 10 19 10 11 0 23 -4 26 -10z"/>
</g>
</svg>
