<?xml version="1.0" standalone="no"?>
<!DOCTYPE svg PUBLIC "-//W3C//DTD SVG 20010904//EN"
 "http://www.w3.org/TR/2001/REC-SVG-20010904/DTD/svg10.dtd">
<svg version="1.0" xmlns="http://www.w3.org/2000/svg"
 width="256.000000pt" height="256.000000pt" viewBox="0 0 256.000000 256.000000"
 preserveAspectRatio="xMidYMid meet">

<g transform="translate(0.000000,256.000000) scale(0.100000,-0.100000)"
fill="#000000" stroke="none">
<path d="M1143 2409 c-173 -16 -358 -83 -513 -184 -105 -68 -262 -230 -329
-339 -60 -97 -110 -212 -143 -333 -19 -68 -22 -103 -22 -273 0 -180 2 -203 26
-293 117 -429 457 -746 897 -833 127 -25 363 -15 491 20 194 55 368 157 511
300 216 216 329 494 329 806 0 185 -36 343 -116 503 -175 354 -515 588 -910
627 -109 11 -106 11 -221 -1z m356 -205 c359 -91 642 -400 701 -767 16 -96 8
-312 -14 -392 -72 -262 -227 -466 -463 -607 -43 -26 -102 -56 -130 -67 l-53
-21 0 125 c0 137 -10 179 -57 227 l-25 27 38 6 c219 37 340 113 409 256 42 87
59 186 53 304 -5 97 -32 173 -83 241 -21 27 -23 36 -15 65 15 51 12 149 -6
208 l-16 54 -51 -6 c-34 -4 -88 -24 -153 -57 l-101 -51 -88 16 c-112 19 -261
19 -365 -1 l-82 -15 -101 51 c-66 33 -120 53 -154 57 l-51 6 -16 -54 c-18 -59
-21 -174 -6 -214 8 -22 4 -33 -26 -75 -52 -72 -74 -152 -74 -264 0 -307 147
-471 464 -521 l38 -6 -25 -27 c-47 -48 -57 -90 -57 -227 0 -69 -3 -125 -6
-125 -18 0 -200 93 -255 131 -35 23 -98 77 -140 118 -382 380 -378 992 9 1369
237 231 574 319 901 236z"/>
</g>
</svg>
