<?xml version="1.0" standalone="no"?>
<!DOCTYPE svg PUBLIC "-//W3C//DTD SVG 20010904//EN"
 "http://www.w3.org/TR/2001/REC-SVG-20010904/DTD/svg10.dtd">
<svg version="1.0" xmlns="http://www.w3.org/2000/svg"
 width="256.000000pt" height="256.000000pt" viewBox="0 0 256.000000 256.000000"
 preserveAspectRatio="xMidYMid meet">

<g transform="translate(0.000000,256.000000) scale(0.100000,-0.100000)"
fill="#000000" stroke="none">
<path d="M1236 2283 c-4 -4 -28 -6 -55 -4 -105 5 -301 -59 -438 -145 -102 -63
-254 -216 -318 -318 -51 -82 -115 -230 -115 -266 0 -12 -4 -30 -10 -40 -14
-26 -23 -120 -22 -242 3 -317 175 -622 454 -804 70 -46 185 -101 224 -107 11
-1 25 -6 31 -10 52 -33 319 -49 443 -27 408 71 735 398 810 811 22 122 6 389
-27 442 -4 6 -9 20 -10 30 -6 37 -55 144 -100 216 -58 94 -204 242 -301 305
-91 60 -212 112 -317 136 -86 19 -238 33 -249 23z m141 -174 c103 -14 210 -50
303 -102 98 -55 232 -187 290 -285 181 -308 144 -714 -90 -975 -113 -125 -267
-215 -430 -251 -214 -47 -429 -14 -612 94 -98 58 -230 192 -285 290 -189 337
-130 751 144 1012 133 126 273 190 483 222 51 7 121 6 197 -5z"/>
<path d="M855 1666 c-179 -29 -235 -61 -235 -132 0 -40 42 -94 73 -94 12 0 67
9 122 20 313 62 686 20 937 -106 37 -19 75 -34 83 -34 32 0 73 30 89 65 16 34
16 38 -1 73 -15 30 -33 45 -98 77 -98 49 -217 88 -350 116 -129 26 -496 35
-620 15z"/>
<path d="M966 1370 c-44 -5 -113 -17 -155 -26 -124 -28 -165 -91 -101 -156 26
-25 36 -29 63 -25 18 4 68 13 112 21 94 18 292 20 401 5 112 -15 236 -54 336
-105 49 -24 95 -44 102 -44 8 0 28 12 45 26 45 37 44 91 -1 130 -38 31 -143
82 -238 114 -154 52 -401 78 -564 60z"/>
<path d="M1025 1074 c-22 -2 -87 -11 -145 -21 -89 -14 -109 -21 -132 -44 -34
-34 -35 -59 -5 -87 28 -26 48 -27 152 -6 53 11 129 17 225 17 171 0 283 -25
419 -91 86 -42 100 -43 139 -9 48 44 18 86 -102 143 -167 79 -358 113 -551 98z"/>
</g>
</svg>
