<?xml version="1.0" standalone="no"?>
<!DOCTYPE svg PUBLIC "-//W3C//DTD SVG 20010904//EN"
 "http://www.w3.org/TR/2001/REC-SVG-20010904/DTD/svg10.dtd">
<svg version="1.0" xmlns="http://www.w3.org/2000/svg"
 width="256.000000pt" height="256.000000pt" viewBox="0 0 256.000000 256.000000"
 preserveAspectRatio="xMidYMid meet">

<g transform="translate(0.000000,256.000000) scale(0.100000,-0.100000)"
fill="#000000" stroke="none">
<path d="M1785 2057 c-523 -213 -1463 -617 -1486 -639 -25 -23 -29 -33 -29
-82 0 -50 4 -60 33 -91 27 -30 58 -44 216 -98 l184 -62 69 -223 c37 -123 76
-234 84 -248 21 -31 79 -47 123 -34 19 5 74 47 130 99 l98 90 164 -127 164
-127 82 0 c77 0 84 2 112 29 17 16 33 37 36 45 11 37 265 1352 265 1375 0 44
-27 94 -59 110 -45 24 -98 19 -186 -17z m101 -134 c-3 -10 -60 -297 -126 -638
-66 -341 -126 -625 -133 -632 -9 -9 -56 22 -212 142 -110 85 -207 154 -215
154 -8 0 -64 -44 -125 -99 -60 -55 -110 -98 -111 -97 -2 1 7 67 20 145 21 128
26 146 52 173 16 17 167 160 337 317 305 284 345 330 280 320 -16 -2 -211
-117 -434 -256 l-406 -251 -187 62 c-102 34 -186 64 -186 68 0 6 1419 607
1438 608 8 1 11 -6 8 -16z"/>
</g>
</svg>
