<?xml version="1.0" standalone="no"?>
<!DOCTYPE svg PUBLIC "-//W3C//DTD SVG 20010904//EN"
 "http://www.w3.org/TR/2001/REC-SVG-20010904/DTD/svg10.dtd">
<svg version="1.0" xmlns="http://www.w3.org/2000/svg"
 width="351.000000pt" height="164.000000pt" viewBox="0 0 351.000000 164.000000"
 preserveAspectRatio="xMidYMid meet">

<g transform="translate(0.000000,164.000000) scale(0.100000,-0.100000)"
fill="#000000" stroke="none">
<path d="M2640 1468 c0 -150 -7 -196 -23 -154 -3 8 -27 27 -54 43 -42 24 -58
28 -128 28 -67 0 -88 -5 -131 -27 -112 -59 -176 -172 -176 -314 -1 -147 56
-252 171 -311 54 -28 73 -33 134 -33 81 0 137 21 176 64 32 35 41 33 41 -9 l0
-35 75 0 75 0 0 458 0 457 -80 0 -80 0 0 -167z m-89 -254 c89 -44 128 -196 68
-266 -12 -14 -17 -17 -13 -7 8 24 -56 69 -105 76 -22 3 -56 2 -75 -1 -43 -8
-99 -53 -92 -73 12 -30 -17 1 -30 33 -40 95 22 230 114 250 15 3 32 7 37 9 16
4 68 -7 96 -21z m-190 -311 c13 -16 12 -17 -3 -4 -17 13 -22 21 -14 21 2 0 10
-8 17 -17z m137 -40 c-16 -2 -40 -2 -55 0 -16 2 -3 4 27 4 30 0 43 -2 28 -4z"/>
<path d="M956 1510 c-154 -112 -146 -97 -97 -169 l42 -61 52 38 c29 21 58 42
65 46 9 6 12 -17 12 -98 l0 -105 -65 -47 c-36 -25 -67 -45 -69 -43 -2 2 -19
29 -40 59 l-36 55 0 -153 c0 -135 2 -152 17 -152 9 0 13 -3 10 -7 -4 -3 1 -12
11 -20 9 -8 11 -11 3 -7 -10 5 -8 -3 5 -25 25 -42 40 -55 49 -41 4 6 3 10 -2
9 -25 -4 -23 4 7 26 24 18 37 22 46 14 8 -7 14 -6 20 2 4 8 3 9 -4 5 -7 -4
-12 -3 -12 2 0 14 26 33 33 25 4 -3 7 0 8 8 2 41 18 -35 18 -88 l1 -63 85 0
85 0 0 435 0 435 -67 0 -68 -1 -109 -79z m61 -557 c-3 -10 -5 -4 -5 12 0 17 2
24 5 18 2 -7 2 -21 0 -30z"/>
<path d="M1605 1377 c-97 -33 -167 -96 -212 -192 -23 -51 -28 -73 -27 -145 0
-72 4 -94 28 -147 31 -69 88 -128 158 -165 37 -20 57 -23 153 -23 100 0 115 2
161 27 51 27 134 109 134 133 0 7 -27 25 -61 40 l-61 27 -31 -30 c-42 -40 -75
-52 -146 -52 -44 0 -66 6 -92 23 -38 26 -79 81 -79 108 0 18 15 19 243 21
l242 3 -1 76 c-2 127 -62 227 -168 279 -58 27 -182 36 -241 17z m183 -147 c32
-20 72 -74 72 -97 0 -10 -39 -13 -160 -13 -140 0 -160 2 -160 16 0 24 39 73
74 95 43 26 130 26 174 -1z"/>
<path d="M3092 1371 c-91 -31 -142 -95 -142 -176 0 -95 66 -161 193 -195 159
-41 177 -51 177 -94 0 -79 -156 -85 -226 -9 l-32 35 -47 -18 c-40 -15 -48 -15
-56 -3 -7 11 -9 10 -9 -5 0 -10 -7 -24 -15 -30 -37 -28 73 -141 163 -166 63
-17 185 -12 245 10 135 51 186 183 111 291 -33 48 -76 72 -181 99 -113 30
-152 49 -159 77 -19 74 141 96 195 27 l21 -26 65 28 c36 15 68 30 70 34 7 11
-37 66 -73 90 -72 50 -206 64 -300 31z"/>
<path d="M111 1158 c50 -117 112 -264 137 -325 l47 -113 86 0 86 0 136 319
c75 176 137 322 137 326 0 3 -41 4 -92 3 l-92 -3 -85 -215 c-61 -154 -87 -210
-93 -200 -5 8 -45 105 -87 215 l-78 200 -96 3 -95 3 89 -213z"/>
<path d="M732 1130 c-1 -8 -61 -154 -134 -323 l-132 -308 -85 3 -85 3 -48 110
c-26 61 -86 200 -133 310 l-84 200 -1 -143 c0 -78 4 -150 10 -160 5 -9 57
-129 115 -267 58 -137 115 -270 125 -295 11 -25 19 -39 20 -32 0 19 160 17
160 -3 0 -11 -18 -15 -82 -18 l-83 -3 83 0 83 1 75 175 c41 96 100 236 132
310 31 74 60 138 64 141 5 3 7 75 5 160 -1 85 -3 147 -5 139z"/>
<path d="M939 803 c-13 -16 -12 -17 4 -4 9 7 17 15 17 17 0 8 -8 3 -21 -13z"/>
<path d="M1370 586 c0 -132 12 -206 33 -206 4 0 5 -4 2 -10 -3 -5 -1 -10 5
-10 6 0 8 -6 4 -12 -4 -7 -4 -10 1 -6 9 9 35 -9 35 -24 0 -5 -6 -6 -12 -2 -9
5 -9 2 1 -9 15 -18 26 -23 16 -7 -11 17 11 11 28 -8 10 -10 41 -29 70 -43 28
-13 53 -26 55 -29 1 -3 18 -4 37 -2 21 3 35 0 35 -7 0 -6 5 -11 11 -11 5 0 8
4 5 8 -3 5 1 9 9 9 8 0 12 -4 9 -9 -3 -4 -1 -8 5 -8 5 0 13 5 17 11 3 6 19 9
35 7 16 -3 29 -1 29 3 0 10 50 18 56 8 3 -5 0 -9 -7 -9 -7 0 -10 -3 -7 -6 11
-10 47 16 42 30 -3 7 6 21 20 30 30 19 34 12 9 -18 -18 -21 -18 -21 5 -2 12
11 22 27 22 38 0 10 5 18 11 18 5 0 7 -6 3 -13 -6 -9 -3 -8 8 1 9 8 15 19 12
27 -3 7 0 16 7 21 8 5 10 3 4 -6 -5 -9 -4 -11 3 -6 8 5 12 55 12 159 l0 151
-24 -33 c-31 -42 -93 -87 -143 -105 -175 -62 -366 11 -439 167 l-24 52 0 -139z
m505 -346 c3 -5 1 -10 -4 -10 -6 0 -11 5 -11 10 0 6 2 10 4 10 3 0 8 -4 11
-10z"/>
<path d="M2131 583 c-1 -116 2 -149 17 -180 9 -21 22 -41 27 -45 6 -4 7 -8 2
-8 -4 0 11 -16 33 -36 22 -20 40 -41 40 -47 0 -6 -11 0 -25 13 -14 13 -25 21
-25 19 0 -3 14 -18 31 -35 17 -16 30 -24 29 -19 -5 21 1 25 20 15 21 -11 27
-30 9 -30 -5 0 -7 5 -3 12 5 7 3 8 -6 3 -10 -6 -9 -11 5 -22 11 -7 24 -13 29
-12 6 0 5 3 -2 6 -24 10 -1 22 24 13 14 -6 39 -10 55 -10 18 0 28 -4 24 -10
-4 -6 7 -10 24 -10 17 0 31 5 31 11 0 7 10 9 25 7 14 -3 25 -2 25 2 0 12 38
18 48 8 6 -6 12 -5 17 3 6 8 4 10 -5 4 -8 -5 -11 -3 -9 4 3 7 9 13 14 13 6 1
21 15 34 32 13 17 21 23 18 14 -4 -10 -2 -18 3 -18 6 0 10 -18 10 -40 l0 -40
75 0 75 0 0 153 0 152 -77 0 -78 0 -3 38 -3 38 -19 -24 c-54 -68 -203 -92
-302 -49 -80 35 -141 100 -175 187 -10 25 -12 8 -12 -112z m659 -358 c0 -12
-14 -15 -65 -15 -51 0 -65 3 -65 15 0 12 14 15 65 15 51 0 65 -3 65 -15z"/>
<path d="M2922 490 c2 -125 6 -154 17 -152 8 2 11 -3 8 -12 -4 -9 -1 -18 5
-22 7 -5 8 -2 3 7 -5 8 10 -2 32 -21 23 -19 40 -41 38 -47 -5 -14 33 -38 43
-29 3 3 -1 6 -8 6 -9 0 -11 3 -4 10 10 10 54 3 54 -9 0 -4 19 -5 41 -3 29 3
40 1 35 -7 -4 -6 0 -11 9 -11 9 0 14 4 11 8 -3 5 1 9 9 9 8 0 12 -4 9 -9 -3
-4 2 -8 11 -8 9 0 14 4 11 8 -4 7 10 11 64 15 14 1 27 5 30 8 3 4 23 16 45 27
22 12 53 33 69 46 l29 24 0 129 c-1 181 1 171 -26 132 -14 -21 -48 -47 -90
-68 -61 -32 -76 -35 -150 -35 -132 0 -226 44 -279 129 -18 30 -18 29 -16 -125z
m128 -250 c0 -5 -5 -10 -11 -10 -5 0 -7 5 -4 10 3 6 8 10 11 10 2 0 4 -4 4
-10z"/>
<path d="M1040 350 l0 -150 74 0 75 0 3 38 c2 20 2 88 0 150 l-3 112 -75 0
-74 0 0 -150z m107 -137 c-20 -2 -52 -2 -70 0 -17 2 0 4 38 4 39 0 53 -2 32
-4z"/>
<path d="M1470 283 c0 -5 10 -18 23 -29 l22 -19 -20 25 c-11 14 -21 27 -22 29
-2 2 -3 0 -3 -6z"/>
<path d="M2980 265 c13 -14 26 -25 28 -25 3 0 -5 11 -18 25 -13 14 -26 25 -28
25 -3 0 5 -11 18 -25z"/>
<path d="M1545 231 c-6 -11 13 -26 22 -17 4 3 1 6 -6 6 -7 0 -9 5 -6 10 3 6 4
10 1 10 -3 0 -7 -4 -11 -9z"/>
<path d="M2540 210 c-9 -6 -10 -10 -3 -10 6 0 15 5 18 10 8 12 4 12 -15 0z"/>
<path d="M1618 193 c7 -3 16 -2 19 1 4 3 -2 6 -13 5 -11 0 -14 -3 -6 -6z"/>
<path d="M1778 193 c7 -3 16 -2 19 1 4 3 -2 6 -13 5 -11 0 -14 -3 -6 -6z"/>
<path d="M2498 193 c7 -3 16 -2 19 1 4 3 -2 6 -13 5 -11 0 -14 -3 -6 -6z"/>
<path d="M3118 193 c7 -3 16 -2 19 1 4 3 -2 6 -13 5 -11 0 -14 -3 -6 -6z"/>
<path d="M3288 193 c7 -3 16 -2 19 1 4 3 -2 6 -13 5 -11 0 -14 -3 -6 -6z"/>
<path d="M1693 183 c9 -2 23 -2 30 0 6 3 -1 5 -18 5 -16 0 -22 -2 -12 -5z"/>
<path d="M2433 183 c9 -2 25 -2 35 0 9 3 1 5 -18 5 -19 0 -27 -2 -17 -5z"/>
<path d="M3203 183 c9 -2 23 -2 30 0 6 3 -1 5 -18 5 -16 0 -22 -2 -12 -5z"/>
</g>
</svg>
