<?xml version="1.0" standalone="no"?>
<!DOCTYPE svg PUBLIC "-//W3C//DTD SVG 20010904//EN"
 "http://www.w3.org/TR/2001/REC-SVG-20010904/DTD/svg10.dtd">
<svg version="1.0" xmlns="http://www.w3.org/2000/svg"
 width="256.000000pt" height="256.000000pt" viewBox="0 0 256.000000 256.000000"
 preserveAspectRatio="xMidYMid meet">

<g transform="translate(0.000000,256.000000) scale(0.100000,-0.100000)"
fill="#000000" stroke="none">
<path d="M990 1791 c-36 -9 -75 -22 -87 -29 -25 -14 -31 -42 -9 -42 8 0 28
-11 45 -25 57 -49 79 -208 45 -339 -18 -70 -29 -86 -56 -86 -46 0 -180 194
-254 370 -48 114 -40 110 -240 110 -199 0 -205 -3 -185 -71 16 -54 165 -344
227 -443 121 -193 252 -349 348 -415 105 -72 245 -111 402 -111 115 0 134 12
134 88 0 97 35 162 86 162 20 0 52 -26 138 -113 85 -86 121 -115 152 -125 26
-7 105 -12 211 -12 156 0 171 2 191 20 12 12 22 28 22 37 0 44 -53 117 -183
250 -167 172 -165 155 -38 323 159 210 211 296 211 353 0 18 -5 38 -12 45 -9
9 -69 12 -209 12 l-198 0 -20 -26 c-12 -15 -21 -33 -21 -40 0 -28 -123 -251
-178 -324 -64 -83 -101 -105 -130 -77 -15 16 -17 42 -17 237 0 210 -1 220 -21
241 -46 46 -233 62 -354 30z"/>
</g>
</svg>
