<?xml version="1.0" encoding="utf-8"?>
<!-- Generator: Adobe Illustrator 16.0.0, SVG Export Plug-In . SVG Version: 6.00 Build 0)  -->
<!DOCTYPE svg PUBLIC "-//W3C//DTD SVG 1.1//EN" "http://www.w3.org/Graphics/SVG/1.1/DTD/svg11.dtd">
<svg version="1.1" id="Layer_1" xmlns="http://www.w3.org/2000/svg" xmlns:xlink="http://www.w3.org/1999/xlink" x="0px" y="0px"
	 width="91.861px" height="139.396px" viewBox="0 0 91.861 139.396" enable-background="new 0 0 91.861 139.396"
	 xml:space="preserve">
<g>
	<path fill="#EF002F" d="M48.592,4.971c0.444,0.125,0.884,0.296,1.319,0.386c3.455,0.759,6.069,2.749,7.714,5.779
		c1.377,2.556,2.529,5.241,3.535,7.961c8.173,22.255,16.288,44.533,24.408,66.806c0.718,1.962,0.606,2.222-1.371,2.993
		c-4.014,1.557-8.022,3.125-12.031,4.682c-1.524,0.596-1.963,0.41-2.511-1.127c-1.757-4.795-3.506-9.58-5.185-14.39
		c-0.322-0.931-0.732-1.306-1.787-1.296c-10.741,0.041-21.493,0.041-32.235,0c-0.963,0-1.402,0.275-1.719,1.186
		c-1.729,4.846-3.516,9.67-5.283,14.504c-0.548,1.533-0.967,1.715-2.51,1.113c-4.054-1.563-8.086-3.135-12.139-4.711
		c-1.787-0.689-1.963-1.07-1.318-2.856c6.084-16.651,12.167-33.306,18.246-49.965c2.438-6.66,4.858-13.33,7.305-19.985
		c0.986-2.634,2.192-5.144,4.132-7.238c1.821-1.966,4.066-3.159,6.732-3.58c0.21-0.031,0.405-0.175,0.62-0.261
		C45.867,4.971,47.216,4.971,48.592,4.971z M58.446,61.255c-3.955-11.848-7.853-23.523-11.748-35.209
		c-0.103,0.017-0.214,0.021-0.308,0.031c-3.882,11.68-7.783,23.359-11.719,35.178C42.674,61.255,50.448,61.255,58.446,61.255z"/>
	<path fill="#EF002F" d="M46.546,137.553c-13.496,0-27.012,0-40.521,0c-1.753,0-1.982-0.254-1.982-2.006c0-4.561,0-9.112,0-13.668
		c0-1.563,0.322-1.918,1.875-1.918c27.099-0.006,54.188-0.006,81.278,0c1.542,0,1.885,0.36,1.885,1.918
		c0.014,4.6,0.014,9.199,0,13.799c0,1.563-0.322,1.875-1.896,1.875C73.636,137.553,60.091,137.553,46.546,137.553z"/>
</g>
</svg>
