<?xml version="1.0" encoding="utf-8"?>
<!-- Generator: Adobe Illustrator 24.3.0, SVG Export Plug-In . SVG Version: 6.00 Build 0)  -->
<svg version="1.1"
	 id="svg6135" inkscape:version="1.0.1 (3bc2e813f5, 2020-09-07)" sodipodi:docname="home.svg" xmlns:cc="http://creativecommons.org/ns#" xmlns:dc="http://purl.org/dc/elements/1.1/" xmlns:inkscape="http://www.inkscape.org/namespaces/inkscape" xmlns:rdf="http://www.w3.org/1999/02/22-rdf-syntax-ns#" xmlns:sodipodi="http://sodipodi.sourceforge.net/DTD/sodipodi-0.dtd" xmlns:svg="http://www.w3.org/2000/svg"
	 xmlns="http://www.w3.org/2000/svg" xmlns:xlink="http://www.w3.org/1999/xlink" x="0px" y="0px" viewBox="0 0 666.7 200"
	 style="enable-background:new 0 0 666.7 200;" xml:space="preserve">
<style type="text/css">
	.st0{fill:#D8D7D7;}
	.st1{enable-background:new    ;}
	.st2{fill:#444947;}
</style>
<defs>
	<meshgradient  gradientUnits="userSpaceOnUse" id="meshgradient6712" inkscape:collect="always" x="0" y="0">
		<meshrow  id="meshrow6714">
			<meshpatch  id="meshpatch6716">
				<stop  id="stop6718" path="c 222.222,0  444.444,0  666.667,0" style="stop-color:#ffffff;stop-opacity:1"></stop>
				<stop  id="stop6720" path="c 0,66.6667  0,133.333  0,200" style="stop-color:#000000;stop-opacity:1"></stop>
				<stop  id="stop6722" path="c -222.222,0  -444.444,0  -666.667,0" style="stop-color:#ffffff;stop-opacity:1"></stop>
				<stop  id="stop6724" path="c 0,-66.6667  0,-133.333  0,-200" style="stop-color:#000000;stop-opacity:1"></stop>
			</meshpatch>
		</meshrow>
	</meshgradient>
</defs>
<sodipodi:namedview  bordercolor="#666666" borderopacity="1" gridtolerance="10" guidetolerance="10" id="namedview6137" inkscape:current-layer="g6143" inkscape:cx="297.583" inkscape:cy="-123.27578" inkscape:pageopacity="0" inkscape:pageshadow="2" inkscape:window-height="1017" inkscape:window-maximized="1" inkscape:window-width="1920" inkscape:window-x="1358" inkscape:window-y="-8" inkscape:zoom="0.66428022" objecttolerance="10" pagecolor="#ffffff" showgrid="false">
	</sodipodi:namedview>
<g id="g6143" inkscape:groupmode="layer" inkscape:label="Image">
	
		<image style="overflow:visible;enable-background:new    ;" width="500" height="150" id="image6145" xlink:href="624856E3.png"  transform="matrix(1.3333 0 0 1.3333 1.5054 -571.295)">
	</image>
	<path id="rect6756" class="st0" d="M100.8-0.8h466.7c55.2,0,100,44.8,100,100v0c0,55.2-44.8,100-100,100H100.8
		c-55.2,0-100-44.8-100-100v0C0.8,44,45.5-0.8,100.8-0.8z"/>
	<g class="st1">
		<path class="st2" d="M714-447.1c-0.8-0.8-1.2-1.8-1.2-3v-75.1c0-1.2,0.4-2.2,1.2-3c0.8-0.8,1.8-1.2,3-1.2h19.2
			c8,0,15.2,1.8,21.5,5.3c6.3,3.6,11.2,8.5,14.8,14.8c3.5,6.3,5.3,13.5,5.3,21.5c0,8-1.8,15.2-5.3,21.6c-3.5,6.3-8.4,11.3-14.8,14.8
			c-6.3,3.6-13.5,5.3-21.5,5.3H717C715.7-445.9,714.7-446.3,714-447.1z M736.1-453.4c6.5,0,12.2-1.5,17.3-4.4c5-3,9-7,11.8-12.2
			c2.8-5.2,4.3-11.1,4.3-17.6c0-6.5-1.4-12.4-4.3-17.6c-2.8-5.2-6.8-9.3-11.8-12.2c-5-2.9-10.8-4.4-17.3-4.4h-15v68.4H736.1z"/>
		<path class="st2" d="M805.1-449.2c-4.5-2.6-8-6.1-10.6-10.6c-2.6-4.5-3.8-9.6-3.8-15.2c0-5.6,1.3-10.7,3.8-15.3
			c2.6-4.6,6.1-8.1,10.6-10.7c4.5-2.6,9.6-3.8,15.2-3.8s10.7,1.3,15.1,3.8c4.5,2.6,8,6.1,10.6,10.7c2.6,4.6,3.9,9.6,3.9,15.3
			c0,5.6-1.3,10.7-3.8,15.2c-2.6,4.5-6.1,8.1-10.6,10.6c-4.5,2.6-9.6,3.8-15.2,3.8S809.6-446.7,805.1-449.2z M831.4-455.7
			c3.3-1.9,5.8-4.6,7.7-8c1.8-3.4,2.8-7.2,2.8-11.4c0-4.3-0.9-8.1-2.8-11.5c-1.8-3.4-4.4-6-7.7-8c-3.3-1.9-7-2.9-11.1-2.9
			c-4,0-7.7,1-11,2.9c-3.3,1.9-5.9,4.6-7.8,8c-1.9,3.4-2.8,7.2-2.8,11.5c0,4.2,0.9,8,2.8,11.4c1.9,3.4,4.5,6,7.8,8
			c3.3,1.9,7,2.9,11,2.9C824.4-452.9,828.1-453.8,831.4-455.7z"/>
		<path class="st2" d="M907.1-501.8c4,2.1,7.2,5.3,9.4,9.3c2.3,4.1,3.4,9,3.4,14.7v27.8c0,1.1-0.4,2.1-1.2,2.9
			c-0.8,0.8-1.7,1.2-2.9,1.2c-1.2,0-2.2-0.4-3-1.2c-0.8-0.8-1.2-1.7-1.2-2.9v-27.8c0-6.3-1.8-11.2-5.3-14.5c-3.5-3.3-8.1-5-13.8-5
			c-3.5,0-6.6,0.7-9.4,2c-2.8,1.4-5,3.2-6.7,5.6c-1.6,2.4-2.5,5-2.5,8v31.6c0,1.2-0.4,2.2-1.1,2.9c-0.7,0.7-1.7,1.1-2.9,1.1
			c-1.2,0-2.2-0.4-3-1.1c-0.8-0.7-1.2-1.7-1.2-2.9v-50.2c0-1.2,0.4-2.2,1.2-3c0.8-0.8,1.8-1.2,3-1.2c1.2,0,2.2,0.4,2.9,1.2
			c0.7,0.8,1.1,1.8,1.1,3v3.6c2.3-2.6,5.2-4.7,8.5-6.2c3.3-1.5,7-2.2,10.9-2.2C898.5-505,903.1-503.9,907.1-501.8z"/>
		<path class="st2" d="M979.7-501c4.5,2.6,8.1,6.2,10.7,10.7c2.6,4.6,3.9,9.6,3.9,15.2v25.1c0,1.1-0.4,2.1-1.2,2.9
			c-0.8,0.8-1.8,1.2-3,1.2c-1.2,0-2.2-0.4-3-1.1c-0.8-0.7-1.2-1.7-1.2-2.9v-6.4c-2.5,3.4-5.6,6.1-9.5,8.1c-3.8,2-8.1,2.9-12.7,2.9
			c-5.4,0-10.3-1.3-14.7-3.9c-4.4-2.6-7.8-6.2-10.3-10.7c-2.5-4.5-3.8-9.6-3.8-15.1s1.3-10.6,3.9-15.2c2.6-4.6,6.1-8.1,10.7-10.7
			c4.5-2.6,9.5-3.9,15.1-3.9S975.1-503.6,979.7-501z M975.5-455.7c3.3-1.9,5.8-4.6,7.7-8c1.9-3.4,2.8-7.2,2.8-11.4
			c0-4.2-0.9-8-2.8-11.4c-1.9-3.4-4.5-6-7.7-8c-3.3-2-6.9-2.9-11-2.9s-7.7,1-11,2.9c-3.3,2-5.9,4.6-7.8,8c-1.9,3.4-2.8,7.2-2.8,11.4
			c0,4.2,0.9,8,2.8,11.4c1.9,3.4,4.5,6,7.8,8c3.3,1.9,7,2.9,11,2.9S972.3-453.8,975.5-455.7z"/>
		<path class="st2" d="M1038.6-453c0.7,0.8,1.1,1.8,1.1,3c0,1.1-0.4,2.1-1.3,2.9c-0.9,0.8-1.9,1.2-3.2,1.2h-2.2
			c-3.8,0-7.1-0.9-10.1-2.7c-3-1.8-5.3-4.3-7-7.4c-1.7-3.1-2.5-6.6-2.5-10.5V-495h-6.9c-1.1,0-2-0.3-2.7-1c-0.7-0.7-1-1.5-1-2.5
			c0-1.1,0.3-1.9,1-2.6c0.7-0.7,1.6-1,2.7-1h6.9v-16.6c0-1.2,0.4-2.2,1.1-3c0.7-0.8,1.7-1.2,2.9-1.2c1.2,0,2.2,0.4,3,1.2
			c0.8,0.8,1.2,1.8,1.2,3v16.6h12c1.1,0,2,0.3,2.7,1c0.7,0.7,1,1.5,1,2.6c0,1-0.3,1.8-1,2.5c-0.7,0.7-1.6,1-2.7,1h-12v28.5
			c0,3.6,1.1,6.6,3.2,8.9c2.1,2.3,4.9,3.5,8.2,3.5h2.9C1037-454.1,1037.9-453.8,1038.6-453z"/>
		<path class="st2" d="M1091.8-501.2c4,2.5,7.2,5.9,9.4,10.2c2.2,4.3,3.4,9.3,3.4,14.8c0,1.1-0.4,2-1.1,2.7c-0.7,0.7-1.6,1-2.8,1
			h-43c0.6,5.8,2.8,10.6,6.8,14.2c4,3.6,9,5.4,14.9,5.4c2.6,0,5.1-0.4,7.7-1.3c2.6-0.9,4.7-2,6.2-3.4c0.9-0.7,1.9-1.1,2.9-1.1
			c0.8,0,1.6,0.3,2.3,0.9c0.9,0.9,1.4,1.8,1.4,2.9c0,0.9-0.4,1.7-1.2,2.5c-2.3,2-5.3,3.6-9,5c-3.6,1.3-7.1,2-10.4,2
			c-5.7,0-10.8-1.3-15.2-3.8c-4.5-2.5-8-6-10.5-10.6c-2.5-4.5-3.8-9.6-3.8-15.3c0-5.8,1.2-10.9,3.6-15.4c2.4-4.5,5.7-8,9.9-10.6
			c4.2-2.5,9-3.8,14.4-3.8C1083.1-504.9,1087.7-503.6,1091.8-501.2z M1064.4-492.5c-3.6,3.3-5.7,7.8-6.5,13.2h39
			c-0.6-5.5-2.6-9.9-6-13.2c-3.4-3.3-7.8-5-13.1-5C1072.4-497.5,1068-495.8,1064.4-492.5z"/>
	</g>
	
		<image style="overflow:visible;enable-background:new    ;" width="500" height="150" id="image6776" xlink:href="624856E1.png"  transform="matrix(1.3333 0 0 1.3333 3.0108 -250.8639)">
	</image>
	<g class="st1">
		<path class="st2" d="M788.3-186.5c0.8,0.8,1.2,1.8,1.2,3v75c0,1.1-0.4,2.1-1.2,2.9c-0.8,0.8-1.7,1.2-2.9,1.2c-1.2,0-2.2-0.4-3-1.2
			c-0.8-0.8-1.2-1.8-1.2-2.9v-60.4l-29.7,60.6c-0.9,1.4-2.1,2-3.6,2c-1.8,0-3.1-0.9-3.8-2.6l-29.5-59.1v59.4c0,1.1-0.4,2.1-1.2,2.9
			c-0.8,0.8-1.8,1.2-3,1.2c-1.1,0-2.1-0.4-2.9-1.2c-0.8-0.8-1.2-1.8-1.2-2.9v-75c0-1.2,0.4-2.2,1.2-3c0.8-0.8,1.8-1.2,2.9-1.2
			c1.6,0,2.9,0.7,3.7,2.1l34.1,67.8l33.5-67.8c0.9-1.4,2.1-2.1,3.7-2.1C786.5-187.7,787.5-187.3,788.3-186.5z"/>
		<path class="st2" d="M811.4-175.5c-1.1-1.1-1.7-2.5-1.7-4.2c0-1.7,0.6-3.1,1.7-4.2c1.1-1.1,2.5-1.6,4.2-1.6c1.6,0,2.9,0.5,4.1,1.6
			c1.1,1.1,1.7,2.5,1.7,4.2c0,1.6-0.6,3-1.7,4.2c-1.1,1.1-2.5,1.7-4.2,1.7C813.9-173.8,812.5-174.4,811.4-175.5z M812.6-105.5
			c-0.8-0.8-1.2-1.8-1.2-3v-50c0-1.2,0.4-2.2,1.2-3c0.8-0.8,1.8-1.2,3-1.2c1.2,0,2.2,0.4,2.9,1.2c0.7,0.8,1.1,1.8,1.1,3v50
			c0,1.2-0.4,2.2-1.1,3c-0.7,0.8-1.7,1.2-2.9,1.2C814.4-104.4,813.4-104.8,812.6-105.5z"/>
		<path class="st2" d="M874.2-105.5c-0.9-0.7-1.3-1.8-1.3-3v-75c0-1.2,0.4-2.2,1.2-3c0.8-0.8,1.8-1.2,3-1.2H903
			c4.3,0,8.1,0.9,11.6,2.7c3.4,1.8,6.2,4.3,8.2,7.5c2,3.2,3,6.8,3,10.8c0,3.8-1,7.1-3,10.1c-2,3-4.7,5.3-8.2,6.9
			c4.9,1.4,8.8,3.8,11.6,7.3c2.8,3.5,4.3,7.9,4.3,13.3c0,4.8-1.1,9-3.3,12.7s-5.2,6.7-9.1,8.7c-3.9,2.1-8.3,3.1-13.3,3.1h-27.2
			C876.1-104.4,875-104.7,874.2-105.5z M903-152.9c4.3,0,7.9-1.2,10.6-3.7c2.7-2.5,4.1-5.8,4.1-10.1c0-4.1-1.4-7.3-4.1-9.6
			c-2.7-2.3-6.3-3.4-10.7-3.4h-21.8v26.8H903z M904.8-112.4c5.2,0,9.4-1.5,12.6-4.5c3.2-3,4.9-7.1,4.9-12.1c0-4.8-1.6-8.7-4.9-11.6
			c-3.2-2.9-7.5-4.3-12.6-4.3h-23.6v32.5H904.8z"/>
		<path class="st2" d="M987.6-159.4c4.5,2.6,8.1,6.2,10.7,10.7c2.6,4.6,3.9,9.6,3.9,15.1v25.1c0,1.1-0.4,2.1-1.2,2.9
			c-0.8,0.8-1.8,1.2-3,1.2c-1.2,0-2.2-0.4-3-1.1c-0.8-0.7-1.2-1.7-1.2-2.9v-6.4c-2.5,3.4-5.7,6.1-9.5,8.1c-3.8,2-8.1,2.9-12.7,2.9
			c-5.4,0-10.3-1.3-14.7-3.9c-4.4-2.6-7.8-6.1-10.3-10.7c-2.5-4.5-3.8-9.5-3.8-15.1s1.3-10.6,3.9-15.1c2.6-4.5,6.2-8.1,10.7-10.7
			c4.5-2.6,9.5-3.9,15.1-3.9S983.1-161.9,987.6-159.4z M983.5-114.2c3.3-1.9,5.8-4.6,7.7-7.9c1.9-3.4,2.8-7.2,2.8-11.4
			c0-4.2-0.9-8-2.8-11.4c-1.9-3.4-4.5-6-7.7-8c-3.3-2-6.9-2.9-11-2.9c-4.1,0-7.7,1-11,2.9c-3.3,2-5.9,4.6-7.8,8
			c-1.9,3.4-2.8,7.2-2.8,11.4c0,4.2,0.9,8,2.8,11.4c1.9,3.4,4.5,6,7.8,7.9s7,2.9,11,2.9C976.6-111.3,980.2-112.3,983.5-114.2z"/>
		<path class="st2" d="M1059.4-160.2c4,2.1,7.2,5.2,9.4,9.3c2.3,4.1,3.4,9,3.4,14.7v27.7c0,1.1-0.4,2.1-1.2,2.9
			c-0.8,0.8-1.7,1.2-2.9,1.2c-1.2,0-2.2-0.4-3-1.2c-0.8-0.8-1.2-1.7-1.2-2.9v-27.7c0-6.3-1.8-11.1-5.3-14.5c-3.5-3.3-8.1-5-13.8-5
			c-3.5,0-6.6,0.7-9.4,2c-2.8,1.4-5,3.2-6.7,5.6c-1.6,2.4-2.5,5-2.5,7.9v31.6c0,1.2-0.4,2.2-1.1,2.9c-0.7,0.7-1.7,1.1-2.9,1.1
			c-1.2,0-2.2-0.4-3-1.1c-0.8-0.7-1.2-1.7-1.2-2.9v-50.1c0-1.2,0.4-2.2,1.2-3c0.8-0.8,1.8-1.2,3-1.2c1.2,0,2.2,0.4,2.9,1.2
			c0.7,0.8,1.1,1.8,1.1,3v3.6c2.3-2.6,5.2-4.7,8.5-6.2c3.3-1.5,7-2.2,10.9-2.2C1050.8-163.4,1055.4-162.3,1059.4-160.2z"/>
		<path class="st2" d="M1146.6-158.7v25.1c0,5.5-1.3,10.6-3.9,15.1c-2.6,4.6-6.2,8.1-10.7,10.7c-4.5,2.6-9.5,3.9-15.1,3.9
			s-10.6-1.3-15.1-3.9c-4.5-2.6-8.1-6.2-10.7-10.7c-2.6-4.5-3.9-9.6-3.9-15.1s1.3-10.6,3.8-15.1c2.5-4.5,6-8.1,10.3-10.7
			c4.4-2.6,9.3-3.9,14.7-3.9c4.6,0,8.9,1,12.7,2.9c3.8,2,7,4.6,9.5,8.1v-31.3c0-1.2,0.4-2.2,1.2-3c0.8-0.8,1.8-1.2,3-1.2
			c1.2,0,2.2,0.4,2.9,1.2c0.7,0.8,1.1,1.8,1.1,3v23.9C1146.5-159.4,1146.6-159.1,1146.6-158.7z M1127.9-114.2c3.3-2,5.8-4.6,7.7-8
			c1.9-3.4,2.8-7.2,2.8-11.4c0-1.2,0-2.1-0.1-2.7c-0.1-0.1-0.1-0.3-0.1-0.5c-0.7-5.5-3-10.1-7-13.7c-3.9-3.6-8.7-5.3-14.3-5.3
			c-4.1,0-7.7,1-11,2.9s-5.9,4.6-7.8,7.9c-1.9,3.4-2.8,7.2-2.8,11.4c0,4.2,0.9,8,2.8,11.4c1.9,3.4,4.5,6,7.8,8c3.3,2,7,2.9,11,2.9
			C1121-111.3,1124.6-112.3,1127.9-114.2z"/>
		<path class="st2" d="M1206.1-107.1c-4-2.2-7.1-5.2-9.4-9c-2.3-3.8-3.4-8.1-3.4-12.7c0-1.2,0.4-2.2,1.1-3.1
			c0.7-0.9,1.7-1.3,2.8-1.3c1.1,0,2.1,0.4,2.8,1.3c0.7,0.9,1.1,1.9,1.1,3.1c0,3.2,0.8,6.1,2.3,8.7c1.6,2.6,3.7,4.7,6.5,6.2
			c2.7,1.5,5.8,2.3,9.1,2.3c5.5,0,9.8-1.5,13-4.6c3.2-3.1,4.7-7.1,4.7-12.1c0-3.4-0.7-6.4-2.2-9.1c-1.5-2.6-3.5-4.7-6.1-6.1
			c-2.6-1.5-5.4-2.2-8.6-2.2c-1.1,0-2.1-0.4-2.9-1.2c-0.8-0.8-1.2-1.8-1.2-3c0-1.2,0.4-2.2,1.2-2.9c0.8-0.7,1.7-1.1,2.9-1.1
			c2.4,0,4.7-0.6,6.8-1.9c2.1-1.2,3.8-2.9,5.1-5c1.3-2.1,1.9-4.4,1.9-6.8c0-3.8-1.3-6.9-3.9-9.4c-2.6-2.5-6-3.8-10.2-3.8
			c-4.5,0-8.2,1.2-11.1,3.7c-2.9,2.5-4.4,5.6-4.4,9.4c0,1.2-0.4,2.2-1.1,3c-0.7,0.8-1.7,1.2-2.8,1.2c-1.1,0-2.1-0.4-2.8-1.2
			c-0.7-0.8-1.1-1.8-1.1-2.9c0-3.9,1-7.4,3-10.6c2-3.2,4.8-5.7,8.4-7.5c3.6-1.8,7.5-2.7,11.9-2.7c4.1,0,7.8,0.9,11.1,2.7
			c3.4,1.8,6,4.3,7.9,7.5c1.9,3.2,2.9,6.7,2.9,10.6c0,3.6-1.2,7-3.7,10.2c-2.5,3.2-5.5,5.6-9,7.2c5.3,1.6,9.3,4.3,12,8.3
			c2.7,3.9,4.1,8.5,4.1,13.6c0,4.6-1.1,8.7-3.4,12.4c-2.2,3.7-5.3,6.7-9.2,8.7c-3.9,2.1-8.2,3.1-13,3.1
			C1214.5-103.8,1210.1-104.9,1206.1-107.1z"/>
	</g>
	
		<image style="overflow:visible;enable-background:new    ;" width="500" height="150" id="image6794" xlink:href="624856E7.png"  transform="matrix(1.3333 0 0 1.3333 6.8845 -399.5724)">
	</image>
	<g class="st1">
		<path class="st2" d="M777.5-344.5c0.8,0.8,1.2,1.8,1.2,3v75c0,1.1-0.4,2.1-1.2,2.9c-0.8,0.8-1.7,1.2-2.9,1.2c-1.2,0-2.2-0.4-3-1.2
			c-0.8-0.8-1.2-1.8-1.2-2.9v-60.4l-29.7,60.6c-0.9,1.4-2.1,2-3.6,2c-1.8,0-3.1-0.9-3.8-2.6L703.7-326v59.4c0,1.1-0.4,2.1-1.2,2.9
			c-0.8,0.8-1.8,1.2-3,1.2c-1.1,0-2.1-0.4-2.9-1.2c-0.8-0.8-1.2-1.8-1.2-2.9v-75c0-1.2,0.4-2.2,1.2-3c0.8-0.8,1.8-1.2,2.9-1.2
			c1.6,0,2.9,0.7,3.7,2.1l34.1,67.8l33.5-67.8c0.9-1.4,2.1-2.1,3.7-2.1C775.8-345.7,776.8-345.3,777.5-344.5z"/>
	</g>
	<g class="st1">
		<path class="st2" d="M800.6-333.6c-1.1-1.1-1.7-2.5-1.7-4.2c0-1.7,0.6-3.1,1.7-4.2c1.1-1.1,2.5-1.6,4.2-1.6c1.6,0,2.9,0.5,4.1,1.6
			c1.1,1.1,1.7,2.5,1.7,4.2c0,1.6-0.6,3-1.7,4.2c-1.1,1.1-2.5,1.7-4.2,1.7C803.1-331.9,801.7-332.4,800.6-333.6z M801.9-263.6
			c-0.8-0.8-1.2-1.8-1.2-3v-50c0-1.2,0.4-2.2,1.2-3c0.8-0.8,1.8-1.2,3-1.2c1.2,0,2.2,0.4,2.9,1.2c0.7,0.8,1.1,1.8,1.1,3v50
			c0,1.2-0.4,2.2-1.1,3c-0.7,0.8-1.7,1.2-2.9,1.2C803.6-262.4,802.6-262.8,801.9-263.6z"/>
	</g>
	<g class="st1">
		<path class="st2" d="M858.3-263.5c-0.9-0.7-1.3-1.8-1.3-3v-75c0-1.2,0.4-2.2,1.2-3c0.8-0.8,1.8-1.2,3-1.2h25.9
			c4.3,0,8.1,0.9,11.6,2.7c3.4,1.8,6.2,4.3,8.2,7.5c2,3.2,3,6.8,3,10.8c0,3.8-1,7.1-3,10.1s-4.7,5.3-8.2,6.9
			c4.9,1.4,8.8,3.8,11.6,7.3c2.8,3.5,4.3,7.9,4.3,13.3c0,4.8-1.1,9-3.3,12.7c-2.2,3.7-5.2,6.7-9.1,8.7c-3.9,2.1-8.3,3.1-13.3,3.1
			h-27.2C860.3-262.4,859.1-262.8,858.3-263.5z M887.1-310.9c4.3,0,7.9-1.2,10.6-3.7c2.7-2.5,4.1-5.8,4.1-10.1
			c0-4.1-1.4-7.3-4.1-9.6c-2.7-2.3-6.3-3.4-10.7-3.4h-21.8v26.8H887.1z M888.9-270.4c5.2,0,9.4-1.5,12.6-4.5c3.2-3,4.9-7.1,4.9-12.1
			c0-4.8-1.6-8.7-4.9-11.6c-3.2-2.9-7.5-4.3-12.6-4.3h-23.6v32.5H888.9z"/>
	</g>
	<g class="st1">
		<path class="st2" d="M971.7-317.4c4.5,2.6,8.1,6.2,10.7,10.7c2.6,4.6,3.9,9.6,3.9,15.1v25.1c0,1.1-0.4,2.1-1.2,2.9
			c-0.8,0.8-1.8,1.2-3,1.2c-1.2,0-2.2-0.4-3-1.1c-0.8-0.7-1.2-1.7-1.2-2.9v-6.4c-2.5,3.4-5.7,6.1-9.5,8.1c-3.8,2-8.1,2.9-12.7,2.9
			c-5.4,0-10.3-1.3-14.7-3.9c-4.4-2.6-7.8-6.1-10.3-10.7c-2.5-4.5-3.8-9.5-3.8-15.1s1.3-10.6,3.9-15.1c2.6-4.5,6.2-8.1,10.7-10.7
			c4.5-2.6,9.5-3.9,15.1-3.9S967.2-320,971.7-317.4z M967.6-272.2c3.3-1.9,5.8-4.6,7.7-7.9c1.9-3.4,2.8-7.2,2.8-11.4
			c0-4.2-0.9-8-2.8-11.4c-1.9-3.4-4.5-6-7.7-8c-3.3-2-6.9-2.9-11-2.9c-4.1,0-7.7,1-11,2.9c-3.3,2-5.9,4.6-7.8,8
			c-1.9,3.4-2.8,7.2-2.8,11.4c0,4.2,0.9,8,2.8,11.4c1.9,3.4,4.5,6,7.8,7.9s7,2.9,11,2.9C960.7-269.3,964.3-270.3,967.6-272.2z"/>
	</g>
	<g class="st1">
		<path class="st2" d="M1043.5-318.2c4,2.1,7.2,5.2,9.4,9.3c2.3,4.1,3.4,9,3.4,14.7v27.7c0,1.1-0.4,2.1-1.2,2.9
			c-0.8,0.8-1.7,1.2-2.9,1.2c-1.2,0-2.2-0.4-3-1.2c-0.8-0.8-1.2-1.7-1.2-2.9v-27.7c0-6.3-1.8-11.1-5.3-14.5c-3.5-3.3-8.1-5-13.8-5
			c-3.5,0-6.6,0.7-9.4,2c-2.8,1.4-5,3.2-6.7,5.6c-1.6,2.4-2.5,5-2.5,7.9v31.6c0,1.2-0.4,2.2-1.1,2.9c-0.7,0.7-1.7,1.1-2.9,1.1
			c-1.2,0-2.2-0.4-3-1.1c-0.8-0.7-1.2-1.7-1.2-2.9v-50.1c0-1.2,0.4-2.2,1.2-3c0.8-0.8,1.8-1.2,3-1.2c1.2,0,2.2,0.4,2.9,1.2
			c0.7,0.8,1.1,1.8,1.1,3v3.6c2.3-2.6,5.2-4.7,8.5-6.2c3.3-1.5,7-2.2,10.9-2.2C1034.9-321.4,1039.5-320.3,1043.5-318.2z"/>
	</g>
	<g class="st1">
		<path class="st2" d="M1130.2-316.7v25.1c0,5.5-1.3,10.6-3.9,15.1c-2.6,4.6-6.2,8.1-10.7,10.7c-4.5,2.6-9.5,3.9-15.1,3.9
			s-10.6-1.3-15.1-3.9c-4.5-2.6-8.1-6.2-10.7-10.7c-2.6-4.5-3.9-9.6-3.9-15.1s1.3-10.6,3.8-15.1c2.5-4.5,6-8.1,10.3-10.7
			c4.4-2.6,9.3-3.9,14.7-3.9c4.6,0,8.9,1,12.7,2.9c3.8,2,7,4.6,9.5,8.1v-31.3c0-1.2,0.4-2.2,1.2-3c0.8-0.8,1.8-1.2,3-1.2
			c1.2,0,2.2,0.4,2.9,1.2c0.7,0.8,1.1,1.8,1.1,3v23.9C1130.1-317.5,1130.2-317.1,1130.2-316.7z M1111.5-272.3c3.3-2,5.8-4.6,7.7-8
			c1.9-3.4,2.8-7.2,2.8-11.4c0-1.2,0-2.1-0.1-2.7c-0.1-0.1-0.1-0.3-0.1-0.5c-0.7-5.5-3-10.1-7-13.7c-3.9-3.6-8.7-5.3-14.3-5.3
			c-4.1,0-7.7,1-11,2.9s-5.9,4.6-7.8,7.9c-1.9,3.4-2.8,7.2-2.8,11.4c0,4.2,0.9,8,2.8,11.4c1.9,3.4,4.5,6,7.8,8c3.3,2,7,2.9,11,2.9
			C1104.6-269.3,1108.2-270.3,1111.5-272.3z"/>
	</g>
	<g class="st1">
		<path class="st2" d="M1230.3-286c0,0.9-0.4,1.8-1.2,2.5c-0.8,0.7-1.8,1.1-2.8,1.1h-8.4v15.8c0,1.1-0.4,2.1-1.2,2.9
			c-0.8,0.8-1.8,1.2-3,1.2c-1.1,0-2.1-0.4-2.8-1.2c-0.7-0.8-1.1-1.8-1.1-3v-15.8h-38.2c-1.2,0-2.2-0.4-3-1.2
			c-0.8-0.8-1.2-1.8-1.2-2.8c0-0.9,0.3-1.7,0.9-2.5l42.2-55.3c0.8-1.1,1.9-1.7,3.4-1.7c1.1,0,2.1,0.4,2.8,1.2c0.7,0.8,1.1,1.8,1.1,3
			v51.7h8.4C1229-289.8,1230.3-288.5,1230.3-286z M1209.7-289.8v-40.7l-31.3,40.7H1209.7z"/>
	</g>
	<g class="st1">
		<path class="st2" d="M1274.4-345.3c0.7-0.4,1.4-0.6,2.3-0.6c1.2,0,2.2,0.4,2.9,1.2c0.7,0.8,1.1,1.8,1.1,2.9c0,0.6-0.1,1.1-0.3,1.7
			l-33.5,83.6c-0.6,1.6-1.9,2.3-3.8,2.3c-1.1,0-2.1-0.4-2.9-1.2c-0.8-0.8-1.2-1.7-1.2-2.9c0-0.6,0.1-1.2,0.3-1.8l33.5-83.5
			C1273.2-344.3,1273.7-344.9,1274.4-345.3z"/>
	</g>
	<g class="st1">
		<path class="st2" d="M1305.1-265.9c-4.1-2.3-7.4-5.6-9.7-9.8s-3.5-8.8-3.5-13.8c0-1.2,0.4-2.2,1.2-3c0.8-0.8,1.7-1.2,2.9-1.2
			c1.2,0,2.2,0.4,3,1.2c0.8,0.8,1.2,1.8,1.2,2.9c0,3.5,0.8,6.7,2.5,9.5c1.6,2.9,3.9,5.1,6.7,6.8c2.8,1.6,6,2.5,9.5,2.5
			c3.5,0,6.7-0.8,9.5-2.5c2.9-1.6,5.1-3.9,6.8-6.8c1.6-2.9,2.5-6.1,2.5-9.5c0-3.5-0.8-6.7-2.5-9.5c-1.6-2.9-3.9-5.1-6.8-6.8
			c-2.9-1.6-6.1-2.5-9.5-2.5h-18.7c-1.1,0-2.1-0.4-2.9-1.2c-0.8-0.8-1.2-1.8-1.2-2.9v-29.2c0-1.2,0.4-2.2,1.2-3
			c0.8-0.8,1.8-1.2,2.9-1.2h37.4c1.1,0,2.1,0.4,2.9,1.2c0.8,0.8,1.2,1.8,1.2,2.9c0,1.1-0.4,2.1-1.2,2.9c-0.8,0.8-1.8,1.2-2.9,1.2
			h-33.4v20.9h14.6c5,0,9.7,1.2,13.8,3.6c4.2,2.4,7.4,5.6,9.8,9.8c2.3,4.1,3.5,8.7,3.5,13.8c0,5.1-1.2,9.7-3.5,13.8
			s-5.6,7.4-9.8,9.8s-8.8,3.5-13.8,3.5C1313.8-262.4,1309.2-263.6,1305.1-265.9z"/>
	</g>
	
		<image style="overflow:visible;enable-background:new    ;" width="500" height="150" id="image6812" xlink:href="624856E0.png"  transform="matrix(1.3333 0 0 1.3333 -2.1478 -753.3387)">
	</image>
	<g class="st1">
		<path class="st2" d="M706.3-637c-5.2-2.9-9-6.8-11.3-11.7c-0.3-0.5-0.4-1.1-0.4-1.7c0-1,0.4-1.8,1.1-2.5c0.7-0.7,1.8-1,3-1
			c0.9,0,1.7,0.2,2.4,0.7c0.7,0.5,1.3,1.1,1.7,2c1.6,3.2,4.4,5.8,8.2,7.7c3.8,2,8.2,2.9,13.3,2.9c5.8,0,10.5-1.4,14.1-4.2
			c3.6-2.8,5.3-6.7,5.3-11.8c0-4.5-1.7-8.2-5-11.3c-3.3-3.1-8.3-5-14.9-5.9c-8.2-1-14.7-3.6-19.5-7.7c-4.7-4.2-7.1-9.3-7.1-15.3
			c0-4.3,1.2-8,3.5-11.3c2.3-3.2,5.5-5.7,9.6-7.5c4.1-1.7,8.7-2.6,13.9-2.6c5.6,0,10.6,1.2,14.8,3.7c4.3,2.5,7.6,5.7,10,9.7
			c0.5,0.8,0.7,1.6,0.7,2.6c0,1.4-0.6,2.4-1.9,3.2c-0.6,0.3-1.2,0.4-1.9,0.4c-0.8,0-1.5-0.2-2.2-0.6c-0.7-0.4-1.2-0.9-1.7-1.7
			c-4-6.3-10-9.4-18-9.5c-5.8,0-10.3,1.2-13.7,3.6c-3.3,2.4-5,5.9-5,10.3c0,8.3,6.7,13.4,20.2,15.1c8.8,1.3,15.4,4,19.7,8.1
			c4.3,4.1,6.5,9.6,6.5,16.3c0,5-1.2,9.3-3.6,12.9c-2.4,3.6-5.7,6.4-9.9,8.3c-4.2,1.9-8.9,2.8-14.1,2.8
			C717.5-632.7,711.5-634.1,706.3-637z"/>
		<path class="st2" d="M779.6-637.1c-4.5-2.6-8.1-6.1-10.6-10.6c-2.6-4.5-3.8-9.6-3.8-15.2c0-5.6,1.3-10.7,3.8-15.3
			s6.1-8.1,10.6-10.7c4.5-2.6,9.6-3.8,15.2-3.8c5.6,0,10.7,1.3,15.1,3.8c4.5,2.6,8,6.1,10.6,10.7c2.6,4.6,3.9,9.6,3.9,15.3
			c0,5.6-1.3,10.7-3.8,15.2c-2.6,4.5-6.1,8.1-10.6,10.6c-4.5,2.6-9.6,3.8-15.2,3.8C789.2-633.2,784.1-634.5,779.6-637.1z
			 M805.9-643.6c3.3-1.9,5.8-4.6,7.7-7.9c1.8-3.4,2.8-7.2,2.8-11.4c0-4.3-0.9-8.1-2.8-11.5c-1.9-3.4-4.4-6-7.7-7.9
			c-3.3-1.9-7-2.9-11.1-2.9c-4.1,0-7.7,1-11,2.9s-5.9,4.6-7.8,7.9c-1.9,3.4-2.8,7.2-2.8,11.5c0,4.2,0.9,8,2.8,11.4
			c1.9,3.4,4.5,6,7.8,7.9s7,2.9,11,2.9C798.9-640.7,802.6-641.7,805.9-643.6z"/>
		<path class="st2" d="M855.5-704.9c-2.4,3.1-3.6,7.3-3.6,12.5v2.5h12.8c1.1,0,2,0.3,2.7,1c0.7,0.7,1,1.5,1,2.6c0,1-0.3,1.8-1,2.5
			c-0.7,0.7-1.6,1-2.7,1H852v44.9c0,1.3-0.4,2.3-1.1,3c-0.7,0.7-1.8,1.1-3.1,1.1c-1.1,0-2.1-0.4-2.8-1.1c-0.7-0.7-1.1-1.8-1.1-3
			v-44.9h-6.8c-1.1,0-2-0.3-2.7-1c-0.7-0.7-1-1.5-1-2.5c0-1.1,0.3-1.9,1-2.6c0.7-0.7,1.6-1,2.7-1h6.8v-2c0-7.6,2-13.7,5.9-18.2
			c3.9-4.5,9.4-6.8,16.5-6.8c1.2,0,2.2,0.4,3,1.1c0.8,0.7,1.2,1.6,1.2,2.7c0,1.1-0.4,2-1.2,2.7c-0.8,0.7-1.8,1.1-3,1.1
			C861.4-709.6,857.9-708,855.5-704.9z"/>
		<path class="st2" d="M908-640.8c0.7,0.8,1.1,1.8,1.1,3c0,1.1-0.4,2.1-1.3,2.9c-0.9,0.8-1.9,1.2-3.2,1.2h-2.2
			c-3.8,0-7.1-0.9-10.1-2.7c-3-1.8-5.3-4.3-7-7.4c-1.7-3.1-2.5-6.6-2.5-10.5v-28.5h-6.9c-1.1,0-2-0.3-2.7-1c-0.7-0.7-1-1.5-1-2.5
			c0-1.1,0.3-1.9,1-2.6c0.7-0.7,1.6-1,2.7-1h6.9v-16.5c0-1.2,0.4-2.2,1.1-3c0.7-0.8,1.7-1.2,2.9-1.2c1.2,0,2.2,0.4,3,1.2
			c0.8,0.8,1.2,1.8,1.2,3v16.5h12.1c1.1,0,2,0.3,2.7,1c0.7,0.7,1,1.5,1,2.6c0,1-0.3,1.8-1,2.5c-0.7,0.7-1.6,1-2.7,1h-12.1v28.5
			c0,3.6,1.1,6.6,3.2,8.9c2.1,2.3,4.9,3.5,8.2,3.5h2.9C906.3-642,907.2-641.6,908-640.8z"/>
		<path class="st2" d="M988.9-691.2c0.6,0.6,1,1.5,1,2.6c0,0.9-0.1,1.6-0.4,2.2l-16.6,49.9c-0.3,0.8-0.8,1.4-1.4,1.9
			c-0.7,0.5-1.5,0.7-2.4,0.7c-0.9,0-1.8-0.2-2.5-0.7c-0.7-0.5-1.2-1.1-1.4-1.9l-12.8-42.5l-12.8,42.5c-0.3,0.9-0.8,1.5-1.5,2
			c-0.7,0.5-1.5,0.7-2.3,0.7c-0.9,0-1.7-0.2-2.4-0.7c-0.7-0.5-1.2-1.1-1.5-1.9L915-686.4c-0.2-0.9-0.3-1.6-0.3-2.2
			c0-2.3,1.1-3.5,3.4-3.5c2,0,3.3,1,4.1,3.1l13.7,41.6l12.6-41.5c0.3-1,0.8-1.8,1.4-2.3c0.7-0.6,1.5-0.9,2.6-0.9s1.9,0.3,2.6,0.9
			c0.7,0.6,1.2,1.4,1.4,2.3l12.3,41.3l13.5-41.4c0.7-2.1,2-3.1,3.9-3.1C987.4-692.1,988.3-691.8,988.9-691.2z"/>
		<path class="st2" d="M1040.8-688.8c4.5,2.6,8.1,6.2,10.7,10.7c2.6,4.6,3.9,9.6,3.9,15.1v25.1c0,1.1-0.4,2.1-1.2,2.9
			c-0.8,0.8-1.8,1.2-3,1.2c-1.2,0-2.2-0.4-3-1.1c-0.8-0.7-1.2-1.7-1.2-2.9v-6.4c-2.5,3.4-5.7,6.1-9.5,8.1c-3.8,2-8.1,2.9-12.7,2.9
			c-5.4,0-10.3-1.3-14.7-3.9c-4.4-2.6-7.8-6.1-10.3-10.7c-2.5-4.5-3.8-9.5-3.8-15.1s1.3-10.6,3.9-15.1c2.6-4.5,6.2-8.1,10.7-10.7
			c4.5-2.6,9.5-3.9,15.1-3.9S1036.3-691.4,1040.8-688.8z M1036.7-643.6c3.3-1.9,5.8-4.6,7.7-7.9c1.9-3.4,2.8-7.2,2.8-11.4
			c0-4.2-0.9-8-2.8-11.4c-1.9-3.4-4.5-6-7.7-8c-3.3-2-6.9-2.9-11-2.9s-7.7,1-11,2.9c-3.3,2-5.9,4.6-7.8,8c-1.9,3.4-2.8,7.2-2.8,11.4
			c0,4.2,0.9,8,2.8,11.4c1.9,3.4,4.5,6,7.8,7.9s7,2.9,11,2.9S1033.4-641.7,1036.7-643.6z"/>
		<path class="st2" d="M1104.8-691.6c1.7,0.8,2.6,1.9,2.6,3.3c0,0.4,0,0.7-0.1,1c-0.3,1-0.7,1.7-1.3,2c-0.6,0.4-1.4,0.5-2.5,0.5
			c-0.6,0-1.7-0.1-3.3-0.2c-0.6-0.1-1.4-0.1-2.6-0.1c-5.3,0-9.7,1.4-13.1,4.3c-3.4,2.8-5.1,6.5-5.1,11.1v31.9c0,1.3-0.4,2.3-1.1,3
			c-0.7,0.7-1.7,1.1-3,1.1s-2.3-0.4-3-1.1c-0.7-0.7-1.1-1.7-1.1-3v-50.2c0-1.3,0.4-2.3,1.1-3c0.7-0.7,1.7-1.1,3-1.1s2.3,0.4,3,1.1
			c0.7,0.7,1.1,1.7,1.1,3v4.7c2.1-3,4.7-5.3,7.9-6.9c3.2-1.6,6.6-2.5,10.3-2.5C1100.7-692.8,1103.1-692.4,1104.8-691.6z"/>
		<path class="st2" d="M1154.8-689c4.1,2.5,7.2,5.8,9.4,10.2c2.2,4.3,3.4,9.3,3.4,14.8c0,1.1-0.4,2-1.1,2.7c-0.7,0.7-1.6,1-2.8,1
			h-43.1c0.6,5.8,2.8,10.6,6.8,14.2c4,3.6,9,5.4,14.9,5.4c2.6,0,5.1-0.4,7.7-1.3c2.6-0.9,4.7-2,6.2-3.4c0.9-0.7,1.9-1.1,2.9-1.1
			c0.8,0,1.6,0.3,2.3,0.9c0.9,0.9,1.4,1.8,1.4,2.9c0,0.9-0.4,1.7-1.2,2.5c-2.3,2-5.3,3.6-9,5c-3.6,1.3-7.1,2-10.5,2
			c-5.7,0-10.8-1.3-15.3-3.8c-4.5-2.5-8-6-10.5-10.6c-2.5-4.5-3.8-9.6-3.8-15.3c0-5.8,1.2-10.9,3.6-15.4c2.4-4.5,5.7-8,9.9-10.6
			c4.2-2.5,9-3.8,14.5-3.8C1146.1-692.6,1150.7-691.4,1154.8-689z M1127.4-680.3c-3.6,3.3-5.7,7.8-6.5,13.2h39
			c-0.6-5.5-2.6-9.9-6-13.2c-3.4-3.3-7.8-5-13.1-5C1135.4-685.3,1130.9-683.6,1127.4-680.3z"/>
	</g>
	
		<image style="overflow:visible;enable-background:new    ;" width="500" height="150" id="image6830" xlink:href="624856EE.png"  transform="matrix(1.3333 0 0 1.3333 -653.7606 -547.3172)">
	</image>
	
		<image style="overflow:visible;enable-background:new    ;" width="500" height="150" id="image6844" xlink:href="624856EF.png"  transform="matrix(1.3333 0 0 1.3333 -628.3895 -753.3387)">
	</image>
	<g class="st1">
		<path class="st2" d="M175.5,135.8c-0.8-0.8-1.2-1.8-1.2-2.9v-75c0-1.2,0.4-2.2,1.2-3c0.8-0.8,1.8-1.2,2.9-1.2c1.2,0,2.2,0.4,3,1.2
			c0.8,0.8,1.2,1.8,1.2,3v33.3h52.1V57.9c0-1.2,0.4-2.2,1.2-3c0.8-0.8,1.8-1.2,2.9-1.2c1.2,0,2.2,0.4,3,1.2c0.8,0.8,1.2,1.8,1.2,3
			v75c0,1.1-0.4,2.1-1.2,2.9c-0.8,0.8-1.8,1.2-3,1.2c-1.1,0-2.1-0.4-2.9-1.2c-0.8-0.8-1.2-1.8-1.2-2.9V98.6h-52.1v34.2
			c0,1.1-0.4,2.1-1.2,2.9c-0.8,0.8-1.8,1.2-3,1.2C177.3,137,176.3,136.6,175.5,135.8z"/>
		<path class="st2" d="M274.6,133.7c-4.5-2.6-8.1-6.1-10.6-10.6c-2.6-4.5-3.8-9.6-3.8-15.2c0-5.6,1.3-10.7,3.8-15.3
			s6.1-8.1,10.6-10.7c4.5-2.6,9.6-3.8,15.2-3.8c5.6,0,10.7,1.3,15.1,3.8c4.5,2.6,8,6.1,10.6,10.7c2.6,4.6,3.9,9.6,3.9,15.3
			c0,5.6-1.3,10.7-3.8,15.2c-2.6,4.5-6.1,8.1-10.6,10.6c-4.5,2.6-9.6,3.8-15.2,3.8C284.2,137.5,279.1,136.3,274.6,133.7z
			 M300.9,127.2c3.3-1.9,5.8-4.6,7.7-7.9c1.8-3.4,2.8-7.2,2.8-11.4c0-4.3-0.9-8.1-2.8-11.5c-1.9-3.4-4.4-6-7.7-7.9
			c-3.3-1.9-7-2.9-11.1-2.9c-4.1,0-7.7,1-11,2.9s-5.9,4.6-7.8,7.9c-1.9,3.4-2.8,7.2-2.8,11.5c0,4.2,0.9,8,2.8,11.4
			c1.9,3.4,4.5,6,7.8,7.9s7,2.9,11,2.9C293.9,130.1,297.6,129.1,300.9,127.2z"/>
		<path class="st2" d="M408,81c3.2,2,5.8,4.8,7.6,8.5c1.8,3.7,2.7,7.9,2.7,12.7V133c0,1.2-0.4,2.2-1.1,2.9c-0.7,0.7-1.7,1.1-2.9,1.1
			c-1.2,0-2.2-0.4-3-1.1c-0.8-0.7-1.2-1.7-1.2-2.9v-30.7c0-5-1.3-9-3.9-12c-2.6-3-6-4.4-10.2-4.4c-4.5,0-8.1,1.5-10.9,4.5
			c-2.8,3-4.1,6.9-4.1,11.7v0.2V133c0,1.2-0.4,2.2-1.1,2.9c-0.7,0.7-1.7,1.1-2.9,1.1c-1.2,0-2.2-0.4-3-1.1c-0.8-0.7-1.2-1.7-1.2-2.9
			v-30.7c0-5-1.3-9-3.9-12c-2.6-3-6-4.4-10.2-4.4c-4.4,0-8,1.5-10.9,4.4c-2.8,2.9-4.3,6.7-4.3,11.2V133c0,1.2-0.4,2.2-1.1,2.9
			c-0.7,0.7-1.7,1.1-2.9,1.1c-1.2,0-2.2-0.4-3-1.1c-0.8-0.7-1.2-1.7-1.2-2.9V82.8c0-1.2,0.4-2.2,1.2-3c0.8-0.8,1.8-1.2,3-1.2
			c1.2,0,2.2,0.4,2.9,1.2c0.7,0.8,1.1,1.8,1.1,3v2.3c2-2.3,4.4-4,7.1-5.3c2.7-1.2,5.7-1.9,8.9-1.9c3.9,0,7.4,0.9,10.6,2.7
			c3.1,1.8,5.6,4.3,7.5,7.5c2.1-3.2,4.7-5.7,8.1-7.5c3.3-1.8,7-2.7,11.1-2.7C401.1,78,404.8,79,408,81z"/>
		<path class="st2" d="M475.3,81.8c4.1,2.5,7.2,5.8,9.4,10.2c2.2,4.3,3.4,9.3,3.4,14.8c0,1.1-0.4,2-1.1,2.7c-0.7,0.7-1.6,1-2.8,1
			h-43.1c0.6,5.8,2.8,10.6,6.8,14.2c4,3.6,9,5.4,14.9,5.4c2.6,0,5.1-0.4,7.7-1.3c2.6-0.9,4.7-2,6.2-3.4c0.9-0.7,1.9-1.1,2.9-1.1
			c0.8,0,1.6,0.3,2.3,0.9c0.9,0.9,1.4,1.8,1.4,2.9c0,0.9-0.4,1.7-1.2,2.5c-2.3,2-5.3,3.6-9,5c-3.6,1.3-7.1,2-10.5,2
			c-5.7,0-10.8-1.3-15.3-3.8c-4.5-2.5-8-6-10.5-10.6c-2.5-4.5-3.8-9.6-3.8-15.3c0-5.8,1.2-10.9,3.6-15.4c2.4-4.5,5.7-8,9.9-10.6
			c4.2-2.5,9-3.8,14.5-3.8C466.6,78.1,471.2,79.4,475.3,81.8z M447.9,90.5c-3.6,3.3-5.7,7.8-6.5,13.2h39c-0.6-5.5-2.6-9.9-6-13.2
			c-3.4-3.3-7.8-5-13.1-5C455.9,85.5,451.4,87.2,447.9,90.5z"/>
	</g>
</g>
<script  id="mesh_polyfill" type="text/javascript">
	!function(){const t=&quot;http://www.w3.org/2000/svg&quot;,e=&quot;http://www.w3.org/1999/xlink&quot;,s=&quot;http://www.w3.org/1999/xhtml&quot;,r=2;if(document.createElementNS(t,&quot;meshgradient&quot;).x)return;const n=(t,e,s,r)=&gt;{let n=new x(.5*(e.x+s.x),.5*(e.y+s.y)),o=new x(.5*(t.x+e.x),.5*(t.y+e.y)),i=new x(.5*(s.x+r.x),.5*(s.y+r.y)),a=new x(.5*(n.x+o.x),.5*(n.y+o.y)),h=new x(.5*(n.x+i.x),.5*(n.y+i.y)),l=new x(.5*(a.x+h.x),.5*(a.y+h.y));return[[t,o,a,l],[l,h,i,r]]},o=t=&gt;{let e=t[0].distSquared(t[1]),s=t[2].distSquared(t[3]),r=.25*t[0].distSquared(t[2]),n=.25*t[1].distSquared(t[3]),o=e&gt;s?e:s,i=r&gt;n?r:n;return 18*(o&gt;i?o:i)},i=(t,e)=&gt;Math.sqrt(t.distSquared(e)),a=(t,e)=&gt;t.scale(2/3).add(e.scale(1/3)),h=t=&gt;{let e,s,r,n,o,i,a,h=new g;return t.match(/(\w+\(\s*[^)]+\))+/g).forEach(t=&gt;{let l=t.match(/[\w.-]+/g),d=l.shift();switch(d){case&quot;translate&quot;:2===l.length?e=new g(1,0,0,1,l[0],l[1]):(console.error(&quot;mesh.js: translate does not have 2 arguments!&quot;),e=new g(1,0,0,1,0,0)),h=h.append(e);break;case&quot;scale&quot;:1===l.length?s=new g(l[0],0,0,l[0],0,0):2===l.length?s=new g(l[0],0,0,l[1],0,0):(console.error(&quot;mesh.js: scale does not have 1 or 2 arguments!&quot;),s=new g(1,0,0,1,0,0)),h=h.append(s);break;case&quot;rotate&quot;:if(3===l.length&amp;&amp;(e=new g(1,0,0,1,l[1],l[2]),h=h.append(e)),l[0]){r=l[0]*Math.PI/180;let t=Math.cos(r),e=Math.sin(r);Math.abs(t)&lt;1e-16&amp;&amp;(t=0),Math.abs(e)&lt;1e-16&amp;&amp;(e=0),a=new g(t,e,-e,t,0,0),h=h.append(a)}else console.error(&quot;math.js: No argument to rotate transform!&quot;);3===l.length&amp;&amp;(e=new g(1,0,0,1,-l[1],-l[2]),h=h.append(e));break;case&quot;skewX&quot;:l[0]?(r=l[0]*Math.PI/180,n=Math.tan(r),o=new g(1,0,n,1,0,0),h=h.append(o)):console.error(&quot;math.js: No argument to skewX transform!&quot;);break;case&quot;skewY&quot;:l[0]?(r=l[0]*Math.PI/180,n=Math.tan(r),i=new g(1,n,0,1,0,0),h=h.append(i)):console.error(&quot;math.js: No argument to skewY transform!&quot;);break;case&quot;matrix&quot;:6===l.length?h=h.append(new g(...l)):console.error(&quot;math.js: Incorrect number of arguments for matrix!&quot;);break;default:console.error(&quot;mesh.js: Unhandled transform type: &quot;+d)}}),h},l=t=&gt;{let e=[],s=t.split(/[ ,]+/);for(let t=0,r=s.length-1;t&lt;r;t+=2)e.push(new x(parseFloat(s[t]),parseFloat(s[t+1])));return e},d=(t,e)=&gt;{for(let s in e)t.setAttribute(s,e[s])},c=(t,e,s,r,n)=&gt;{let o,i,a=[0,0,0,0];for(let h=0;h&lt;3;++h)e[h]&lt;t[h]&amp;&amp;e[h]&lt;s[h]||t[h]&lt;e[h]&amp;&amp;s[h]&lt;e[h]?a[h]=0:(a[h]=.5*((e[h]-t[h])/r+(s[h]-e[h])/n),o=Math.abs(3*(e[h]-t[h])/r),i=Math.abs(3*(s[h]-e[h])/n),a[h]&gt;o?a[h]=o:a[h]&gt;i&amp;&amp;(a[h]=i));return a},u=[[1,0,0,0,0,0,0,0,0,0,0,0,0,0,0,0],[0,0,0,0,1,0,0,0,0,0,0,0,0,0,0,0],[-3,3,0,0,-2,-1,0,0,0,0,0,0,0,0,0,0],[2,-2,0,0,1,1,0,0,0,0,0,0,0,0,0,0],[0,0,0,0,0,0,0,0,1,0,0,0,0,0,0,0],[0,0,0,0,0,0,0,0,0,0,0,0,1,0,0,0],[0,0,0,0,0,0,0,0,-3,3,0,0,-2,-1,0,0],[0,0,0,0,0,0,0,0,2,-2,0,0,1,1,0,0],[-3,0,3,0,0,0,0,0,-2,0,-1,0,0,0,0,0],[0,0,0,0,-3,0,3,0,0,0,0,0,-2,0,-1,0],[9,-9,-9,9,6,3,-6,-3,6,-6,3,-3,4,2,2,1],[-6,6,6,-6,-3,-3,3,3,-4,4,-2,2,-2,-2,-1,-1],[2,0,-2,0,0,0,0,0,1,0,1,0,0,0,0,0],[0,0,0,0,2,0,-2,0,0,0,0,0,1,0,1,0],[-6,6,6,-6,-4,-2,4,2,-3,3,-3,3,-2,-1,-2,-1],[4,-4,-4,4,2,2,-2,-2,2,-2,2,-2,1,1,1,1]],f=t=&gt;{let e=[];for(let s=0;s&lt;16;++s){e[s]=0;for(let r=0;r&lt;16;++r)e[s]+=u[s][r]*t[r]}return e},p=(t,e,s)=&gt;{const r=e*e,n=s*s,o=e*e*e,i=s*s*s;return t[0]+t[1]*e+t[2]*r+t[3]*o+t[4]*s+t[5]*s*e+t[6]*s*r+t[7]*s*o+t[8]*n+t[9]*n*e+t[10]*n*r+t[11]*n*o+t[12]*i+t[13]*i*e+t[14]*i*r+t[15]*i*o},y=t=&gt;{let e=[],s=[],r=[];for(let s=0;s&lt;4;++s)e[s]=[],e[s][0]=n(t[0][s],t[1][s],t[2][s],t[3][s]),e[s][1]=[],e[s][1].push(...n(...e[s][0][0])),e[s][1].push(...n(...e[s][0][1])),e[s][2]=[],e[s][2].push(...n(...e[s][1][0])),e[s][2].push(...n(...e[s][1][1])),e[s][2].push(...n(...e[s][1][2])),e[s][2].push(...n(...e[s][1][3]));for(let t=0;t&lt;8;++t){s[t]=[];for(let r=0;r&lt;4;++r)s[t][r]=[],s[t][r][0]=n(e[0][2][t][r],e[1][2][t][r],e[2][2][t][r],e[3][2][t][r]),s[t][r][1]=[],s[t][r][1].push(...n(...s[t][r][0][0])),s[t][r][1].push(...n(...s[t][r][0][1])),s[t][r][2]=[],s[t][r][2].push(...n(...s[t][r][1][0])),s[t][r][2].push(...n(...s[t][r][1][1])),s[t][r][2].push(...n(...s[t][r][1][2])),s[t][r][2].push(...n(...s[t][r][1][3]))}for(let t=0;t&lt;8;++t){r[t]=[];for(let e=0;e&lt;8;++e)r[t][e]=[],r[t][e][0]=s[t][0][2][e],r[t][e][1]=s[t][1][2][e],r[t][e][2]=s[t][2][2][e],r[t][e][3]=s[t][3][2][e]}return r};class x{constructor(t,e){this.x=t||0,this.y=e||0}toString(){return`(x=${this.x}, y=${this.y})`}clone(){return new x(this.x,this.y)}add(t){return new x(this.x+t.x,this.y+t.y)}scale(t){return void 0===t.x?new x(this.x*t,this.y*t):new x(this.x*t.x,this.y*t.y)}distSquared(t){let e=this.x-t.x,s=this.y-t.y;return e*e+s*s}transform(t){let e=this.x*t.a+this.y*t.c+t.e,s=this.x*t.b+this.y*t.d+t.f;return new x(e,s)}}class g{constructor(t,e,s,r,n,o){void 0===t?(this.a=1,this.b=0,this.c=0,this.d=1,this.e=0,this.f=0):(this.a=t,this.b=e,this.c=s,this.d=r,this.e=n,this.f=o)}toString(){return`affine: ${this.a} ${this.c} ${this.e} \n       ${this.b} ${this.d} ${this.f}`}append(t){t instanceof g||console.error(&quot;mesh.js: argument to Affine.append is not affine!&quot;);let e=this.a*t.a+this.c*t.b,s=this.b*t.a+this.d*t.b,r=this.a*t.c+this.c*t.d,n=this.b*t.c+this.d*t.d,o=this.a*t.e+this.c*t.f+this.e,i=this.b*t.e+this.d*t.f+this.f;return new g(e,s,r,n,o,i)}}class w{constructor(t,e){this.nodes=t,this.colors=e}paintCurve(t,e){if(o(this.nodes)&gt;r){const s=n(...this.nodes);let r=[[],[]],o=[[],[]];for(let t=0;t&lt;4;++t)r[0][t]=this.colors[0][t],r[1][t]=(this.colors[0][t]+this.colors[1][t])/2,o[0][t]=r[1][t],o[1][t]=this.colors[1][t];let i=new w(s[0],r),a=new w(s[1],o);i.paintCurve(t,e),a.paintCurve(t,e)}else{let s=Math.round(this.nodes[0].x);if(s&gt;=0&amp;&amp;s&lt;e){let r=4*(~~this.nodes[0].y*e+s);t[r]=Math.round(this.colors[0][0]),t[r+1]=Math.round(this.colors[0][1]),t[r+2]=Math.round(this.colors[0][2]),t[r+3]=Math.round(this.colors[0][3])}}}}class m{constructor(t,e){this.nodes=t,this.colors=e}split(){let t=[[],[],[],[]],e=[[],[],[],[]],s=[[[],[]],[[],[]]],r=[[[],[]],[[],[]]];for(let s=0;s&lt;4;++s){const r=n(this.nodes[0][s],this.nodes[1][s],this.nodes[2][s],this.nodes[3][s]);t[0][s]=r[0][0],t[1][s]=r[0][1],t[2][s]=r[0][2],t[3][s]=r[0][3],e[0][s]=r[1][0],e[1][s]=r[1][1],e[2][s]=r[1][2],e[3][s]=r[1][3]}for(let t=0;t&lt;4;++t)s[0][0][t]=this.colors[0][0][t],s[0][1][t]=this.colors[0][1][t],s[1][0][t]=(this.colors[0][0][t]+this.colors[1][0][t])/2,s[1][1][t]=(this.colors[0][1][t]+this.colors[1][1][t])/2,r[0][0][t]=s[1][0][t],r[0][1][t]=s[1][1][t],r[1][0][t]=this.colors[1][0][t],r[1][1][t]=this.colors[1][1][t];return[new m(t,s),new m(e,r)]}paint(t,e){let s,n=!1;for(let t=0;t&lt;4;++t)if((s=o([this.nodes[0][t],this.nodes[1][t],this.nodes[2][t],this.nodes[3][t]]))&gt;r){n=!0;break}if(n){let s=this.split();s[0].paint(t,e),s[1].paint(t,e)}else{new w([...this.nodes[0]],[...this.colors[0]]).paintCurve(t,e)}}}class b{constructor(t){this.readMesh(t),this.type=t.getAttribute(&quot;type&quot;)||&quot;bilinear&quot;}readMesh(t){let e=[[]],s=[[]],r=Number(t.getAttribute(&quot;x&quot;)),n=Number(t.getAttribute(&quot;y&quot;));e[0][0]=new x(r,n);let o=t.children;for(let t=0,r=o.length;t&lt;r;++t){e[3*t+1]=[],e[3*t+2]=[],e[3*t+3]=[],s[t+1]=[];let r=o[t].children;for(let n=0,o=r.length;n&lt;o;++n){let o=r[n].children;for(let r=0,i=o.length;r&lt;i;++r){let i=r;0!==t&amp;&amp;++i;let h,d=o[r].getAttribute(&quot;path&quot;),c=&quot;l&quot;;null!=d&amp;&amp;(c=(h=d.match(/\s*([lLcC])\s*(.*)/))[1]);let u=l(h[2]);switch(c){case&quot;l&quot;:0===i?(e[3*t][3*n+3]=u[0].add(e[3*t][3*n]),e[3*t][3*n+1]=a(e[3*t][3*n],e[3*t][3*n+3]),e[3*t][3*n+2]=a(e[3*t][3*n+3],e[3*t][3*n])):1===i?(e[3*t+3][3*n+3]=u[0].add(e[3*t][3*n+3]),e[3*t+1][3*n+3]=a(e[3*t][3*n+3],e[3*t+3][3*n+3]),e[3*t+2][3*n+3]=a(e[3*t+3][3*n+3],e[3*t][3*n+3])):2===i?(0===n&amp;&amp;(e[3*t+3][3*n+0]=u[0].add(e[3*t+3][3*n+3])),e[3*t+3][3*n+1]=a(e[3*t+3][3*n],e[3*t+3][3*n+3]),e[3*t+3][3*n+2]=a(e[3*t+3][3*n+3],e[3*t+3][3*n])):(e[3*t+1][3*n]=a(e[3*t][3*n],e[3*t+3][3*n]),e[3*t+2][3*n]=a(e[3*t+3][3*n],e[3*t][3*n]));break;case&quot;L&quot;:0===i?(e[3*t][3*n+3]=u[0],e[3*t][3*n+1]=a(e[3*t][3*n],e[3*t][3*n+3]),e[3*t][3*n+2]=a(e[3*t][3*n+3],e[3*t][3*n])):1===i?(e[3*t+3][3*n+3]=u[0],e[3*t+1][3*n+3]=a(e[3*t][3*n+3],e[3*t+3][3*n+3]),e[3*t+2][3*n+3]=a(e[3*t+3][3*n+3],e[3*t][3*n+3])):2===i?(0===n&amp;&amp;(e[3*t+3][3*n+0]=u[0]),e[3*t+3][3*n+1]=a(e[3*t+3][3*n],e[3*t+3][3*n+3]),e[3*t+3][3*n+2]=a(e[3*t+3][3*n+3],e[3*t+3][3*n])):(e[3*t+1][3*n]=a(e[3*t][3*n],e[3*t+3][3*n]),e[3*t+2][3*n]=a(e[3*t+3][3*n],e[3*t][3*n]));break;case&quot;c&quot;:0===i?(e[3*t][3*n+1]=u[0].add(e[3*t][3*n]),e[3*t][3*n+2]=u[1].add(e[3*t][3*n]),e[3*t][3*n+3]=u[2].add(e[3*t][3*n])):1===i?(e[3*t+1][3*n+3]=u[0].add(e[3*t][3*n+3]),e[3*t+2][3*n+3]=u[1].add(e[3*t][3*n+3]),e[3*t+3][3*n+3]=u[2].add(e[3*t][3*n+3])):2===i?(e[3*t+3][3*n+2]=u[0].add(e[3*t+3][3*n+3]),e[3*t+3][3*n+1]=u[1].add(e[3*t+3][3*n+3]),0===n&amp;&amp;(e[3*t+3][3*n+0]=u[2].add(e[3*t+3][3*n+3]))):(e[3*t+2][3*n]=u[0].add(e[3*t+3][3*n]),e[3*t+1][3*n]=u[1].add(e[3*t+3][3*n]));break;case&quot;C&quot;:0===i?(e[3*t][3*n+1]=u[0],e[3*t][3*n+2]=u[1],e[3*t][3*n+3]=u[2]):1===i?(e[3*t+1][3*n+3]=u[0],e[3*t+2][3*n+3]=u[1],e[3*t+3][3*n+3]=u[2]):2===i?(e[3*t+3][3*n+2]=u[0],e[3*t+3][3*n+1]=u[1],0===n&amp;&amp;(e[3*t+3][3*n+0]=u[2])):(e[3*t+2][3*n]=u[0],e[3*t+1][3*n]=u[1]);break;default:console.error(&quot;mesh.js: &quot;+c+&quot; invalid path type.&quot;)}if(0===t&amp;&amp;0===n||r&gt;0){let e=window.getComputedStyle(o[r]).stopColor.match(/^rgb\s*\(\s*(\d+)\s*,\s*(\d+)\s*,\s*(\d+)\s*\)$/i),a=window.getComputedStyle(o[r]).stopOpacity,h=255;a&amp;&amp;(h=Math.floor(255*a)),e&amp;&amp;(0===i?(s[t][n]=[],s[t][n][0]=Math.floor(e[1]),s[t][n][1]=Math.floor(e[2]),s[t][n][2]=Math.floor(e[3]),s[t][n][3]=h):1===i?(s[t][n+1]=[],s[t][n+1][0]=Math.floor(e[1]),s[t][n+1][1]=Math.floor(e[2]),s[t][n+1][2]=Math.floor(e[3]),s[t][n+1][3]=h):2===i?(s[t+1][n+1]=[],s[t+1][n+1][0]=Math.floor(e[1]),s[t+1][n+1][1]=Math.floor(e[2]),s[t+1][n+1][2]=Math.floor(e[3]),s[t+1][n+1][3]=h):3===i&amp;&amp;(s[t+1][n]=[],s[t+1][n][0]=Math.floor(e[1]),s[t+1][n][1]=Math.floor(e[2]),s[t+1][n][2]=Math.floor(e[3]),s[t+1][n][3]=h))}}e[3*t+1][3*n+1]=new x,e[3*t+1][3*n+2]=new x,e[3*t+2][3*n+1]=new x,e[3*t+2][3*n+2]=new x,e[3*t+1][3*n+1].x=(-4*e[3*t][3*n].x+6*(e[3*t][3*n+1].x+e[3*t+1][3*n].x)+-2*(e[3*t][3*n+3].x+e[3*t+3][3*n].x)+3*(e[3*t+3][3*n+1].x+e[3*t+1][3*n+3].x)+-1*e[3*t+3][3*n+3].x)/9,e[3*t+1][3*n+2].x=(-4*e[3*t][3*n+3].x+6*(e[3*t][3*n+2].x+e[3*t+1][3*n+3].x)+-2*(e[3*t][3*n].x+e[3*t+3][3*n+3].x)+3*(e[3*t+3][3*n+2].x+e[3*t+1][3*n].x)+-1*e[3*t+3][3*n].x)/9,e[3*t+2][3*n+1].x=(-4*e[3*t+3][3*n].x+6*(e[3*t+3][3*n+1].x+e[3*t+2][3*n].x)+-2*(e[3*t+3][3*n+3].x+e[3*t][3*n].x)+3*(e[3*t][3*n+1].x+e[3*t+2][3*n+3].x)+-1*e[3*t][3*n+3].x)/9,e[3*t+2][3*n+2].x=(-4*e[3*t+3][3*n+3].x+6*(e[3*t+3][3*n+2].x+e[3*t+2][3*n+3].x)+-2*(e[3*t+3][3*n].x+e[3*t][3*n+3].x)+3*(e[3*t][3*n+2].x+e[3*t+2][3*n].x)+-1*e[3*t][3*n].x)/9,e[3*t+1][3*n+1].y=(-4*e[3*t][3*n].y+6*(e[3*t][3*n+1].y+e[3*t+1][3*n].y)+-2*(e[3*t][3*n+3].y+e[3*t+3][3*n].y)+3*(e[3*t+3][3*n+1].y+e[3*t+1][3*n+3].y)+-1*e[3*t+3][3*n+3].y)/9,e[3*t+1][3*n+2].y=(-4*e[3*t][3*n+3].y+6*(e[3*t][3*n+2].y+e[3*t+1][3*n+3].y)+-2*(e[3*t][3*n].y+e[3*t+3][3*n+3].y)+3*(e[3*t+3][3*n+2].y+e[3*t+1][3*n].y)+-1*e[3*t+3][3*n].y)/9,e[3*t+2][3*n+1].y=(-4*e[3*t+3][3*n].y+6*(e[3*t+3][3*n+1].y+e[3*t+2][3*n].y)+-2*(e[3*t+3][3*n+3].y+e[3*t][3*n].y)+3*(e[3*t][3*n+1].y+e[3*t+2][3*n+3].y)+-1*e[3*t][3*n+3].y)/9,e[3*t+2][3*n+2].y=(-4*e[3*t+3][3*n+3].y+6*(e[3*t+3][3*n+2].y+e[3*t+2][3*n+3].y)+-2*(e[3*t+3][3*n].y+e[3*t][3*n+3].y)+3*(e[3*t][3*n+2].y+e[3*t+2][3*n].y)+-1*e[3*t][3*n].y)/9}}this.nodes=e,this.colors=s}paintMesh(t,e){let s=(this.nodes.length-1)/3,r=(this.nodes[0].length-1)/3;if(&quot;bilinear&quot;===this.type||s&lt;2||r&lt;2){let n;for(let o=0;o&lt;s;++o)for(let s=0;s&lt;r;++s){let r=[];for(let t=3*o,e=3*o+4;t&lt;e;++t)r.push(this.nodes[t].slice(3*s,3*s+4));let i=[];i.push(this.colors[o].slice(s,s+2)),i.push(this.colors[o+1].slice(s,s+2)),(n=new m(r,i)).paint(t,e)}}else{let n,o,a,h,l,d,u;const x=s,g=r;s++,r++;let w=new Array(s);for(let t=0;t&lt;s;++t){w[t]=new Array(r);for(let e=0;e&lt;r;++e)w[t][e]=[],w[t][e][0]=this.nodes[3*t][3*e],w[t][e][1]=this.colors[t][e]}for(let t=0;t&lt;s;++t)for(let e=0;e&lt;r;++e)0!==t&amp;&amp;t!==x&amp;&amp;(n=i(w[t-1][e][0],w[t][e][0]),o=i(w[t+1][e][0],w[t][e][0]),w[t][e][2]=c(w[t-1][e][1],w[t][e][1],w[t+1][e][1],n,o)),0!==e&amp;&amp;e!==g&amp;&amp;(n=i(w[t][e-1][0],w[t][e][0]),o=i(w[t][e+1][0],w[t][e][0]),w[t][e][3]=c(w[t][e-1][1],w[t][e][1],w[t][e+1][1],n,o));for(let t=0;t&lt;r;++t){w[0][t][2]=[],w[x][t][2]=[];for(let e=0;e&lt;4;++e)n=i(w[1][t][0],w[0][t][0]),o=i(w[x][t][0],w[x-1][t][0]),w[0][t][2][e]=n&gt;0?2*(w[1][t][1][e]-w[0][t][1][e])/n-w[1][t][2][e]:0,w[x][t][2][e]=o&gt;0?2*(w[x][t][1][e]-w[x-1][t][1][e])/o-w[x-1][t][2][e]:0}for(let t=0;t&lt;s;++t){w[t][0][3]=[],w[t][g][3]=[];for(let e=0;e&lt;4;++e)n=i(w[t][1][0],w[t][0][0]),o=i(w[t][g][0],w[t][g-1][0]),w[t][0][3][e]=n&gt;0?2*(w[t][1][1][e]-w[t][0][1][e])/n-w[t][1][3][e]:0,w[t][g][3][e]=o&gt;0?2*(w[t][g][1][e]-w[t][g-1][1][e])/o-w[t][g-1][3][e]:0}for(let s=0;s&lt;x;++s)for(let r=0;r&lt;g;++r){let n=i(w[s][r][0],w[s+1][r][0]),o=i(w[s][r+1][0],w[s+1][r+1][0]),c=i(w[s][r][0],w[s][r+1][0]),x=i(w[s+1][r][0],w[s+1][r+1][0]),g=[[],[],[],[]];for(let t=0;t&lt;4;++t){(d=[])[0]=w[s][r][1][t],d[1]=w[s+1][r][1][t],d[2]=w[s][r+1][1][t],d[3]=w[s+1][r+1][1][t],d[4]=w[s][r][2][t]*n,d[5]=w[s+1][r][2][t]*n,d[6]=w[s][r+1][2][t]*o,d[7]=w[s+1][r+1][2][t]*o,d[8]=w[s][r][3][t]*c,d[9]=w[s+1][r][3][t]*x,d[10]=w[s][r+1][3][t]*c,d[11]=w[s+1][r+1][3][t]*x,d[12]=0,d[13]=0,d[14]=0,d[15]=0,u=f(d);for(let e=0;e&lt;9;++e){g[t][e]=[];for(let s=0;s&lt;9;++s)g[t][e][s]=p(u,e/8,s/8),g[t][e][s]&gt;255?g[t][e][s]=255:g[t][e][s]&lt;0&amp;&amp;(g[t][e][s]=0)}}h=[];for(let t=3*s,e=3*s+4;t&lt;e;++t)h.push(this.nodes[t].slice(3*r,3*r+4));l=y(h);for(let s=0;s&lt;8;++s)for(let r=0;r&lt;8;++r)(a=new m(l[s][r],[[[g[0][s][r],g[1][s][r],g[2][s][r],g[3][s][r]],[g[0][s][r+1],g[1][s][r+1],g[2][s][r+1],g[3][s][r+1]]],[[g[0][s+1][r],g[1][s+1][r],g[2][s+1][r],g[3][s+1][r]],[g[0][s+1][r+1],g[1][s+1][r+1],g[2][s+1][r+1],g[3][s+1][r+1]]]])).paint(t,e)}}}transform(t){if(t instanceof x)for(let e=0,s=this.nodes.length;e&lt;s;++e)for(let s=0,r=this.nodes[0].length;s&lt;r;++s)this.nodes[e][s]=this.nodes[e][s].add(t);else if(t instanceof g)for(let e=0,s=this.nodes.length;e&lt;s;++e)for(let s=0,r=this.nodes[0].length;s&lt;r;++s)this.nodes[e][s]=this.nodes[e][s].transform(t)}scale(t){for(let e=0,s=this.nodes.length;e&lt;s;++e)for(let s=0,r=this.nodes[0].length;s&lt;r;++s)this.nodes[e][s]=this.nodes[e][s].scale(t)}}document.querySelectorAll(&quot;rect,circle,ellipse,path,text&quot;).forEach((r,n)=&gt;{let o=r.getAttribute(&quot;id&quot;);o||(o=&quot;patchjs_shape&quot;+n,r.setAttribute(&quot;id&quot;,o));const i=r.style.fill.match(/^url\(\s*&quot;?\s*#([^\s&quot;]+)&quot;?\s*\)/),a=r.style.stroke.match(/^url\(\s*&quot;?\s*#([^\s&quot;]+)&quot;?\s*\)/);if(i&amp;&amp;i[1]){const a=document.getElementById(i[1]);if(a&amp;&amp;&quot;meshgradient&quot;===a.nodeName){const i=r.getBBox();let l=document.createElementNS(s,&quot;canvas&quot;);d(l,{width:i.width,height:i.height});const c=l.getContext(&quot;2d&quot;);let u=c.createImageData(i.width,i.height);const f=new b(a);&quot;objectBoundingBox&quot;===a.getAttribute(&quot;gradientUnits&quot;)&amp;&amp;f.scale(new x(i.width,i.height));const p=a.getAttribute(&quot;gradientTransform&quot;);null!=p&amp;&amp;f.transform(h(p)),&quot;userSpaceOnUse&quot;===a.getAttribute(&quot;gradientUnits&quot;)&amp;&amp;f.transform(new x(-i.x,-i.y)),f.paintMesh(u.data,l.width),c.putImageData(u,0,0);const y=document.createElementNS(t,&quot;image&quot;);d(y,{width:i.width,height:i.height,x:i.x,y:i.y});let g=l.toDataURL();y.setAttributeNS(e,&quot;xlink:href&quot;,g),r.parentNode.insertBefore(y,r),r.style.fill=&quot;none&quot;;const w=document.createElementNS(t,&quot;use&quot;);w.setAttributeNS(e,&quot;xlink:href&quot;,&quot;#&quot;+o);const m=&quot;patchjs_clip&quot;+n,M=document.createElementNS(t,&quot;clipPath&quot;);M.setAttribute(&quot;id&quot;,m),M.appendChild(w),r.parentElement.insertBefore(M,r),y.setAttribute(&quot;clip-path&quot;,&quot;url(#&quot;+m+&quot;)&quot;),u=null,l=null,g=null}}if(a&amp;&amp;a[1]){const o=document.getElementById(a[1]);if(o&amp;&amp;&quot;meshgradient&quot;===o.nodeName){const i=parseFloat(r.style.strokeWidth.slice(0,-2))*(parseFloat(r.style.strokeMiterlimit)||parseFloat(r.getAttribute(&quot;stroke-miterlimit&quot;))||1),a=r.getBBox(),l=Math.trunc(a.width+i),c=Math.trunc(a.height+i),u=Math.trunc(a.x-i/2),f=Math.trunc(a.y-i/2);let p=document.createElementNS(s,&quot;canvas&quot;);d(p,{width:l,height:c});const y=p.getContext(&quot;2d&quot;);let g=y.createImageData(l,c);const w=new b(o);&quot;objectBoundingBox&quot;===o.getAttribute(&quot;gradientUnits&quot;)&amp;&amp;w.scale(new x(l,c));const m=o.getAttribute(&quot;gradientTransform&quot;);null!=m&amp;&amp;w.transform(h(m)),&quot;userSpaceOnUse&quot;===o.getAttribute(&quot;gradientUnits&quot;)&amp;&amp;w.transform(new x(-u,-f)),w.paintMesh(g.data,p.width),y.putImageData(g,0,0);const M=document.createElementNS(t,&quot;image&quot;);d(M,{width:l,height:c,x:0,y:0});let S=p.toDataURL();M.setAttributeNS(e,&quot;xlink:href&quot;,S);const k=&quot;pattern_clip&quot;+n,A=document.createElementNS(t,&quot;pattern&quot;);d(A,{id:k,patternUnits:&quot;userSpaceOnUse&quot;,width:l,height:c,x:u,y:f}),A.appendChild(M),o.parentNode.appendChild(A),r.style.stroke=&quot;url(#&quot;+k+&quot;)&quot;,g=null,p=null,S=null}}})}();
	</script>
</svg>
