<?xml version="1.0" encoding="utf-8"?>
<!-- Generator: Adobe Illustrator 26.0.2, SVG Export Plug-In . SVG Version: 6.00 Build 0)  -->
<svg version="1.1" id="Слой_1" xmlns="http://www.w3.org/2000/svg" xmlns:xlink="http://www.w3.org/1999/xlink" x="0px" y="0px"
	 viewBox="0 0 1451.34 1451.34" style="enable-background:new 0 0 1451.34 1451.34;" xml:space="preserve">
<style type="text/css">
	.st0{fill:#F28A1A;}
</style>
<path class="st0" d="M1154,913.76c25.23,9.39,34.93,45.95,36.86,61.9c3.89,29.1-4.82,40.36-14.53,40.36s-23.3-11.26-37.83-33.77
	c-14.56-22.54-20.38-47.85-12.6-61c4.82-8.46,15.49-12.19,28.12-7.49H1154z"/>
<path class="st0" d="M1006.61,1019.78c15.52,0,32.98,6.56,48.5,19.68c30.05,24.41,38.79,52.54,23.27,73.19
	c-8.74,10.32-23.27,16.88-39.76,16.88c-16.49,0-33.94-5.63-45.57-15.95c-27.16-22.51-34.9-60.07-17.48-80.68
	C982.38,1024.45,993.05,1019.78,1006.61,1019.78z"/>
<path class="st0" d="M667.22,1290.9C298.67,1290.9,0,1001.93,0,645.44S298.7,0,667.19,0c368.51,0,667.22,288.97,667.22,645.44
	c0,121.01-34.9,234.56-94.04,331.19c-1.96,2.8-6.81,1.87-7.78-1.9c-23.27-158.54-123.16-245.81-268.62-272.05
	c-12.63-1.9-14.56-9.39,1.93-11.26c44.61-3.76,107.64-2.83,140.61,2.8c1.93-15.95,2.92-32.83,2.92-49.72
	c0-235.49-197.85-426.89-441.27-426.89c-243.39,0-441.24,191.4-441.24,426.89s197.85,426.89,441.27,426.89h20.35
	c-6.91-38.09-9.84-76.75-8.74-115.41c0.99-26.27,6.81-30.03,18.45-9.39c61.1,102.26,148.39,194.2,319.05,230.79
	c139.65,30.03,279.29,64.73,429.61,249.54c13.56,15.95-6.78,32.83-22.3,19.71c-153.21-131.36-292.86-174.52-419.9-174.52
	c-142.57,0.96-239.54,18.78-337.5,18.78L667.22,1290.9z"/>
</svg>
